<?xml version="1.0"?>
<COLLADA xmlns="http://www.collada.org/2005/11/COLLADASchema" version="1.4.1">
    <asset>
        <contributor>
            <authoring_tool>CINEMA4D 15.064 COLLADA Exporter</authoring_tool>
        </contributor>
        <created>2018-04-28T03:13:01Z</created>
        <modified>2018-04-28T03:13:01Z</modified>
        <unit meter="0.01" name="centimeter"/>
        <up_axis>Y_UP</up_axis>
    </asset>
    <library_images>
        <image id="ID5">
            <init_from>MetalEnv.png</init_from>
        </image>
    </library_images>
    <library_effects>
        <effect id="ID2">
            <profile_COMMON>
                <technique sid="COMMON">
                    <blinn>
                        <diffuse>
                            <color>0.8 0.8 0.8 1</color>
                        </diffuse>
                        <specular>
                            <color>0.2 0.2 0.2 1</color>
                        </specular>
                        <shininess>
                            <float>0.5</float>
                        </shininess>
                    </blinn>
                </technique>
            </profile_COMMON>
        </effect>
        <effect id="ID4">
            <profile_COMMON>
                <newparam sid="ID6">
                    <surface type="2D">
                        <init_from>ID5</init_from>
                    </surface>
                </newparam>
                <newparam sid="ID7">
                    <sampler2D>
                        <source>ID6</source>
                    </sampler2D>
                </newparam>
                <technique sid="COMMON">
                    <blinn>
                        <diffuse>
                            <texture texture="ID7" texcoord="UVSET0"/>
                        </diffuse>
                    </blinn>
                </technique>
            </profile_COMMON>
        </effect>
    </library_effects>
    <library_materials>
        <material id="ID3" name="m0">
            <instance_effect url="#ID4"/>
        </material>
    </library_materials>
    <library_geometries>
        <geometry id="ID10">
            <mesh>
                <source id="ID11">
                    <float_array id="ID12" count="600">-170.688 50.6465 1040.26 -170.688 50.6465 1040.26 -177.417 105.146 1094.36 -177.417 105.146 1094.36 -177.417 105.146 1094.36 -372.441 50.6465 985.698 -372.441 50.6465 985.698 -393.658 105.146 1035.92 -393.658 105.146 1035.92 -196.144 50.6465 1249.29 -196.144 50.6465 1249.29 -196.144 50.6465 1249.29 -189.416 105.146 1195.19 -189.416 105.146 1195.19 -455.37 50.6465 1179.33 -455.37 50.6465 1179.33 -434.282 105.146 1129.6 -434.282 105.146 1129.6 -189.416 -105.354 1195.19 -189.416 -105.354 1195.19 -189.416 -105.354 1195.19 -196.144 -51.3535 1249.29 -196.144 -51.3535 1249.29 -434.282 -105.354 1129.6 -434.282 -105.354 1129.6 -455.37 -51.3535 1179.33 -455.37 -51.3535 1179.33 -170.688 -51.3535 1040.26 -170.688 -51.3535 1040.26 -170.688 -51.3535 1040.26 -177.417 -105.354 1094.36 -177.417 -105.354 1094.36 -372.441 -51.3535 985.698 -372.441 -51.3535 985.698 -393.658 -105.354 1035.92 -393.658 -105.354 1035.92 -230 105.146 1083.9 -230 105.146 1083.9 -216.864 50.6465 1031 -216.864 50.6465 1031 -268.564 50.6465 1235.59 -268.564 50.6465 1235.59 -255.427 105.146 1182.68 -255.427 105.146 1182.68 -255.427 -105.354 1182.68 -255.427 -105.354 1182.68 -268.564 -51.3535 1235.59 -268.564 -51.3535 1235.59 -216.864 -51.3535 1031 -216.864 -51.3535 1031 -230 -105.354 1083.9 -230 -105.354 1083.9 -328.43 50.6465 1001.11 -328.43 50.6465 1001.11 -343.498 105.146 1053.5 -343.498 105.146 1053.5 -370.858 105.146 1151.76 -370.858 105.146 1151.76 -385.796 50.6465 1203.67 -385.796 50.6465 1203.67 -385.796 -51.3535 1203.67 -385.796 -51.3535 1203.67 -370.858 -105.354 1151.76 -370.858 -105.354 1151.76 -343.498 -105.354 1053.5 -343.498 -105.354 1053.5 -328.43 -51.3535 1001.11 -328.43 -51.3535 1001.11 -321.437 49.6465 1083.22 -321.437 49.6465 1083.22 -335.928 49.6465 1137.31 -335.928 49.6465 1137.31 -284.018 -28.3535 1173.47 -284.018 -28.3535 1173.47 -284.018 27.6465 1173.47 -284.018 27.6465 1173.47 -263.964 -49.8535 1098.61 -263.964 -49.8535 1098.61 -278.454 -49.8535 1152.71 -278.454 -49.8535 1152.71 -258.271 27.6465 1077.36 -258.271 27.6465 1077.36 -258.271 -28.3535 1077.36 -258.271 -28.3535 1077.36 -263.964 49.6465 1098.61 -263.964 49.6465 1098.61 -315.745 27.6465 1061.97 -315.745 27.6465 1061.97 -278.454 49.6465 1152.71 -278.454 49.6465 1152.71 -341.491 27.6465 1158.08 -341.491 27.6465 1158.08 -341.491 -28.3535 1158.08 -341.491 -28.3535 1158.08 -335.928 -49.8535 1137.31 -335.928 -49.8535 1137.31 -321.437 -49.8535 1083.22 -321.437 -49.8535 1083.22 -315.745 -28.3535 1061.97 -315.745 -28.3535 1061.97 169.69 50.6465 -1040.01 169.69 50.6465 -1040.01 176.419 105.146 -1094.11 176.419 105.146 -1094.11 176.419 105.146 -1094.11 371.443 50.6465 -985.449 371.443 50.6465 -985.449 393.143 105.146 -1035.54 393.143 105.146 -1035.54 195.146 50.6465 -1249.05 195.146 50.6465 -1249.05 195.146 50.6465 -1249.05 188.418 105.146 -1194.94 188.418 105.146 -1194.94 454.372 50.6465 -1179.09 454.372 50.6465 -1179.09 433.284 105.146 -1129.35 433.284 105.146 -1129.35 188.418 -105.354 -1194.94 188.418 -105.354 -1194.94 188.418 -105.354 -1194.94 195.146 -51.3535 -1249.05 195.146 -51.3535 -1249.05 433.284 -105.354 -1129.35 433.284 -105.354 -1129.35 454.372 -51.3535 -1179.09 454.372 -51.3535 -1179.09 169.69 -51.3535 -1040.01 169.69 -51.3535 -1040.01 169.69 -51.3535 -1040.01 176.419 -105.354 -1094.11 176.419 -105.354 -1094.11 371.443 -51.3535 -985.449 371.443 -51.3535 -985.449 393.143 -105.354 -1035.54 393.143 -105.354 -1035.54 229.002 105.146 -1083.65 229.002 105.146 -1083.65 215.866 50.6465 -1030.75 215.866 50.6465 -1030.75 267.566 50.6465 -1235.34 267.566 50.6465 -1235.34 254.429 105.146 -1182.44 254.429 105.146 -1182.44 254.429 -105.354 -1182.44 254.429 -105.354 -1182.44 267.566 -51.3535 -1235.34 267.566 -51.3535 -1235.34 215.866 -51.3535 -1030.75 215.866 -51.3535 -1030.75 229.002 -105.354 -1083.65 229.002 -105.354 -1083.65 327.432 50.6465 -1000.86 327.432 50.6465 -1000.86 342.5 105.146 -1053.25 342.5 105.146 -1053.25 370.343 105.146 -1151.39 370.343 105.146 -1151.39 385.281 50.6465 -1203.29 385.281 50.6465 -1203.29 385.281 -51.3535 -1203.29 385.281 -51.3535 -1203.29 370.343 -105.354 -1151.39 370.343 -105.354 -1151.39 342.5 -105.354 -1053.25 342.5 -105.354 -1053.25 327.432 -51.3535 -1000.86 327.432 -51.3535 -1000.86 320.439 49.6465 -1082.97 320.439 49.6465 -1082.97 334.93 49.6465 -1137.06 334.93 49.6465 -1137.06 283.02 -28.3535 -1173.22 283.02 -28.3535 -1173.22 283.02 27.6465 -1173.22 283.02 27.6465 -1173.22 262.966 -49.8535 -1098.36 262.966 -49.8535 -1098.36 277.456 -49.8535 -1152.46 277.456 -49.8535 -1152.46 257.273 27.6465 -1077.11 257.273 27.6465 -1077.11 257.273 -28.3535 -1077.11 257.273 -28.3535 -1077.11 262.966 49.6465 -1098.36 262.966 49.6465 -1098.36 314.747 27.6465 -1061.72 314.747 27.6465 -1061.72 277.456 49.6465 -1152.46 277.456 49.6465 -1152.46 340.493 27.6465 -1157.83 340.493 27.6465 -1157.83 340.493 -28.3535 -1157.83 340.493 -28.3535 -1157.83 334.93 -49.8535 -1137.06 334.93 -49.8535 -1137.06 320.439 -49.8535 -1082.97 320.439 -49.8535 -1082.97 314.747 -28.3535 -1061.72 314.747 -28.3535 -1061.72</float_array>
                    <technique_common>
                        <accessor count="200" source="#ID12" stride="3">
                            <param name="X" type="float"/>
                            <param name="Y" type="float"/>
                            <param name="Z" type="float"/>
                        </accessor>
                    </technique_common>
                </source>
                <source id="ID13">
                    <float_array id="ID14" count="432">0.99298 -0.0052856 0.118167 0.99283 -0.00136854 0.119527 0.992776 -0.000912357 0.11998 0.992666 0.000849516 0.120885 0.992666 0.000857478 0.120885 0.992776 -0.000920614 0.11998 0.99283 -0.00138093 0.119527 0.992979 -0.00533426 0.118167 0.919363 0.00331272 0.393397 0.9193 0.00376588 0.393541 0.919283 0.00251059 0.39359 0.919243 0.00140635 0.393687 0.919244 -0.00119773 0.393687 0.919282 -0.00269587 0.39359 0.919299 -0.0040438 0.39354 0.919359 -0.00449442 0.393395 -0.99298 -0.00528535 -0.118167 -0.99283 -0.00136827 -0.119527 -0.992776 -0.000912178 -0.11998 -0.992666 0.000849612 -0.120885 -0.992666 0.000857389 -0.120885 -0.992776 -0.000920803 -0.11998 -0.99283 -0.00138121 -0.119527 -0.992979 -0.00533456 -0.118167 -0.91742 0.00816079 -0.397837 -0.918349 0.00160793 -0.395769 -0.918648 0.00107194 -0.395076 -0.919243 -0.00164834 -0.393687 -0.919244 -0.00119764 -0.393687 -0.918647 0.00194695 -0.395075 -0.918346 0.00292045 -0.395768 -0.917409 0.00943369 -0.397833 -0.800636 -0.416789 0.430429 -0.838459 -0.520007 0.163031 -0.87038 -0.393952 0.295365 -0.721817 -0.652031 0.232027 0.525267 -0.63909 0.561836 0.61357 -0.387676 0.687924 0.637738 -0.524476 0.564106 0.462088 -0.424321 0.778734 -0.483517 -0.657621 -0.577707 -0.569806 -0.399794 -0.717974 -0.616546 -0.532795 -0.579655 -0.432557 -0.421716 -0.7969 0.765037 -0.427521 -0.481607 0.822805 -0.533683 -0.195383 0.861661 -0.392312 -0.321918 0.723832 -0.645505 -0.243703 -0.414374 0.423565 -0.805535 -0.608946 0.533592 -0.586911 -0.577948 0.390193 -0.716747 -0.50138 0.642807 -0.579152 0.710051 0.655773 -0.256494 0.856309 0.395899 -0.331662 0.828642 0.525305 -0.193408 0.777309 0.415668 -0.472241 -0.737425 0.637354 0.223574 -0.876525 0.384266 0.289903 -0.738274 0.600902 0.306379 -0.893115 0.296836 0.337986 0.47537 0.41539 0.775548 0.642759 0.518061 0.564336 0.45904 0.492347 0.739511 0.662985 0.570801 0.484392 -0.232751 -0.710023 0.664601 -0.232612 -0.709941 0.664737 0.233856 -0.706529 -0.667929 0.233895 -0.706564 -0.667878 0.23503 0.703264 -0.670955 0.234968 0.703299 -0.670941 -0.2335 0.706758 0.667811 -0.233694 0.706677 0.667829 -0 1 -0 -0.137513 -0.709545 0.691112 -0.13801 -0.7098 0.690751 0.130994 -0.709771 -0.692146 0.131055 -0.709816 -0.692088 0.131741 0.706513 -0.69533 0.131663 0.706559 -0.695298 -0.139258 0.706249 0.694132 -0.138657 0.706513 0.693984 -0.196702 0 0.980463 -0 -1 -0 0.185957 0 -0.982558 -0.258758 0 0.965942 -0.258758 0 0.965942 -0.330528 0 0.943796 -0.330528 0 0.943796 0.258756 0 -0.965943 0.330596 0 -0.943772 0.876525 0.384266 -0.289903 0.800697 -0.416691 -0.43041 0.893115 0.296836 -0.337986 0.87038 -0.393952 -0.295364 0.83868 -0.519337 -0.164026 0.486739 -0.655763 0.577114 0.723123 -0.650305 -0.232803 0.620568 -0.529185 0.57867 0.574356 -0.397751 0.715479 0.418531 0.423146 0.803604 0.436516 -0.421319 0.794949 0.582388 0.388179 0.714242 -0.642758 0.518061 -0.564336 -0.710051 0.655773 0.256494 -0.662985 0.570802 -0.484393 -0.828642 0.525305 0.193408 -0.525267 -0.639089 -0.561836 -0.61357 -0.387676 -0.687924 -0.637738 -0.524476 -0.564106 -0.462088 -0.424321 -0.778734 -0.765037 -0.427521 0.481607 -0.822805 -0.533683 0.195383 -0.861661 -0.392313 0.321917 -0.723832 -0.645505 0.243703 0.613495 0.530561 0.584917 0.50399 0.641525 0.578308 -0.856309 0.395899 0.331661 -0.777309 0.415668 0.472241 0.73829 0.636071 -0.22437 0.738274 0.600902 -0.306379 -0.47537 0.41539 -0.775548 -0.459039 0.492347 -0.739511 0.232832 -0.70978 -0.664832 0.232888 -0.709813 -0.664778 -0.233488 -0.706515 0.668072 -0.23354 -0.706562 0.668004 -0.234694 0.703251 0.671086 -0.23461 0.703298 0.671066 0.234043 0.706531 -0.667861 0.233965 0.706563 -0.667854 -0.130993 -0.70977 0.692147 -0.131055 -0.709816 0.692088 -0.131742 0.706512 0.695331 -0.131663 0.706559 0.695298 0.139256 0.706249 -0.694132 0.138655 0.706513 -0.693985 0.196699 -0 -0.980464 0.196699 0 -0.980464 -0.185955 -0 0.982558 0.137512 -0.709545 -0.691112 0.138008 -0.7098 -0.690752 0.330528 -0 -0.943796 0.330528 0 -0.943796 -0.330117 -0 0.94394</float_array>
                    <technique_common>
                        <accessor count="144" source="#ID14" stride="3">
                            <param name="X" type="float"/>
                            <param name="Y" type="float"/>
                            <param name="Z" type="float"/>
                        </accessor>
                    </technique_common>
                </source>
                <source id="ID15">
                    <float_array id="ID16" count="74">0 0.125 0 0.875 0 0.625 0 0.1875 0 0.375 0.949951 0.3125 0.949951 0.5625 0.949951 0.125 0.949951 0.8125 0.962463 0.875 0.963745 0.8125 0.949951 0.875 0.98822 0.1875 1 0.1875 0.98822 0.125 1 0.125 0.986206 0.375 1 0.375 0.987488 0.3125 1 0.3125 0.985657 0.625 1 0.625 0.985657 0.5625 1 0.5625 0.961731 0.1875 0.961731 0.125 0.949951 0.1875 0.987488 0.875 1 0.875 0.986206 0.8125 1 0.8125 0.963745 0.375 0.962463 0.3125 0.949951 0.375 0.964294 0.625 0.964294 0.5625 0.949951 0.625</float_array>
                    <technique_common>
                        <accessor count="37" source="#ID16" stride="2">
                            <param name="S" type="float"/>
                            <param name="T" type="float"/>
                        </accessor>
                    </technique_common>
                </source>
                <vertices id="ID17">
                    <input semantic="POSITION" source="#ID11"/>
                </vertices>
                <triangles count="184" material="Material1">
                    <input offset="0" semantic="VERTEX" source="#ID17"/>
                    <input offset="1" semantic="NORMAL" source="#ID13"/>
                    <input offset="2" semantic="TEXCOORD" source="#ID15" set="0"/>
                    <p>10 2 2 4 1 1 13 0 0 4 1 1 10 2 2 0 3 0 21 4 0 0 3 0 10 2 2 0 3 0 21 4 0 28 5 3 19 6 4 28 5 3 21 4 0 28 5 3 19 6 4 30 7 0 125 10 6 134 9 5 124 8 0 134 9 5 125 10 6 132 11 0 115 12 0 132 11 0 125 10 6 132 11 0 115 12 0 106 13 7 117 14 8 106 13 7 115 12 0 106 13 7 117 14 8 107 15 0 110 18 2 104 17 1 113 16 0 104 17 1 110 18 2 100 19 0 121 20 0 100 19 0 110 18 2 100 19 0 121 20 0 128 21 3 119 22 4 128 21 3 121 20 0 128 21 3 119 22 4 130 23 0 25 26 6 34 25 5 24 24 0 34 25 5 25 26 6 32 27 0 15 28 0 32 27 0 25 26 6 32 27 0 15 28 0 6 29 7 17 30 8 6 29 7 15 28 0 6 29 7 17 30 8 7 31 0 198 34 0 165 33 0 166 32 0 165 33 0 198 34 0 197 35 0 177 38 0 148 37 0 151 36 0 148 37 0 177 38 0 182 39 0 195 42 0 161 41 0 163 40 0 161 41 0 195 42 0 193 43 0 173 46 0 145 45 0 147 44 0 145 45 0 173 46 0 179 47 0 191 50 0 157 49 0 159 48 0 157 49 0 191 50 0 171 51 0 189 54 0 141 53 0 143 52 0 141 53 0 189 54 0 175 55 0 169 58 0 152 57 0 155 56 0 152 57 0 169 58 0 186 59 0 180 62 0 137 61 0 138 60 0 137 61 0 180 62 0 185 63 0 182 39 0 138 60 0 148 37 0 138 60 0 182 39 0 180 62 0 179 47 0 151 36 0 145 45 0 151 36 0 179 47 0 177 38 0 175 55 0 147 44 0 141 53 0 147 44 0 175 55 0 173 46 0 171 51 0 155 56 0 157 49 0 155 56 0 171 51 0 169 58 0 166 32 0 135 65 0 132 64 0 135 65 0 166 32 0 165 33 0 163 40 0 126 67 0 124 66 0 126 67 0 163 40 0 161 41 0 159 48 0 116 69 0 115 68 0 116 69 0 159 48 0 157 49 0 155 56 0 105 71 0 107 70 0 105 71 0 155 56 0 152 57 0 108 72 11 156 72 10 154 72 9 156 72 10 108 72 11 117 72 8 151 36 0 127 74 0 130 73 0 127 74 0 151 36 0 148 37 0 147 44 0 118 76 0 121 75 0 118 76 0 147 44 0 145 45 0 143 52 0 109 78 0 113 77 0 109 78 0 143 52 0 141 53 0 138 60 0 103 80 0 100 79 0 103 80 0 138 60 0 137 61 0 139 81 14 129 81 13 149 81 12 129 81 13 139 81 14 101 81 15 150 82 18 120 82 17 144 82 16 120 82 17 150 82 18 131 82 19 146 83 22 111 83 21 140 83 20 111 83 21 146 83 22 122 83 23 197 35 0 182 39 0 177 38 0 182 39 0 197 35 0 198 34 0 193 43 0 179 47 0 173 46 0 179 47 0 193 43 0 195 42 0 171 51 0 175 55 0 189 54 0 175 55 0 171 51 0 191 50 0 180 62 0 169 58 0 185 63 0 169 58 0 180 62 0 186 59 0 199 85 24 181 85 14 183 84 12 181 85 14 199 85 24 187 84 25 133 87 26 153 87 25 167 86 24 153 87 25 133 87 26 106 86 7 42 72 29 2 72 28 36 72 27 2 72 28 42 72 29 12 72 30 88 72 29 68 72 9 70 72 10 68 72 9 88 72 29 84 72 27 194 82 31 176 82 18 178 82 16 176 82 18 194 82 31 196 82 32 123 82 33 164 82 32 162 82 31 164 82 32 123 82 33 134 82 5 190 88 34 172 88 22 174 88 20 172 88 22 190 88 34 192 88 35 114 89 36 160 89 35 158 89 34 160 89 35 114 89 36 125 89 6 142 72 29 102 72 28 136 72 27 102 72 28 142 72 29 112 72 30 188 72 29 168 72 9 170 72 10 168 72 9 188 72 29 184 72 27 86 92 0 66 91 0 52 90 0 66 91 0 86 92 0 98 93 0 97 96 0 63 95 0 65 94 0 63 95 0 97 96 0 95 97 0 93 100 0 59 99 0 61 98 0 59 99 0 93 100 0 91 101 0 85 104 0 43 103 0 37 102 0 43 103 0 85 104 0 89 105 0 98 93 0 65 94 0 66 91 0 65 94 0 98 93 0 97 96 0 77 108 0 48 107 0 51 106 0 48 107 0 77 108 0 82 109 0 95 97 0 61 98 0 63 95 0 61 98 0 95 97 0 93 100 0 73 112 0 45 111 0 47 110 0 45 111 0 73 112 0 79 113 0 91 101 0 57 114 0 59 99 0 57 114 0 91 101 0 71 115 0 89 105 0 41 116 0 43 103 0 41 116 0 89 105 0 75 117 0 69 119 0 52 90 0 55 118 0 52 90 0 69 119 0 86 92 0 80 121 0 37 102 0 38 120 0 37 102 0 80 121 0 85 104 0 82 109 0 38 120 0 48 107 0 38 120 0 82 109 0 80 121 0 79 113 0 51 106 0 45 111 0 51 106 0 79 113 0 77 108 0 75 117 0 47 110 0 41 116 0 47 110 0 75 117 0 73 112 0 71 115 0 55 118 0 57 114 0 55 118 0 71 115 0 69 119 0 66 91 0 35 123 0 32 122 0 35 123 0 66 91 0 65 94 0 63 95 0 26 125 0 24 124 0 26 125 0 63 95 0 61 98 0 59 99 0 16 127 0 15 126 0 16 127 0 59 99 0 57 114 0 55 118 0 5 129 0 7 128 0 5 129 0 55 118 0 52 90 0 8 72 11 56 72 10 54 72 9 56 72 10 8 72 11 17 72 8 186 59 0 166 32 0 152 57 0 166 32 0 186 59 0 198 34 0 47 110 0 18 131 0 21 130 0 18 131 0 47 110 0 45 111 0 43 103 0 9 133 0 13 132 0 9 133 0 43 103 0 41 116 0 38 120 0 3 135 0 0 134 0 3 135 0 38 120 0 37 102 0 39 137 14 29 137 13 49 136 12 29 137 13 39 137 14 1 136 15 50 82 18 20 82 17 44 82 16 20 82 17 50 82 18 31 82 19 46 138 22 11 138 21 40 138 20 11 138 21 46 138 22 22 138 23 97 96 0 82 109 0 77 108 0 82 109 0 97 96 0 98 93 0 93 100 0 79 113 0 73 112 0 79 113 0 93 100 0 95 97 0 71 115 0 75 117 0 89 105 0 75 117 0 71 115 0 91 101 0 51 106 0 27 140 0 30 139 0 27 140 0 51 106 0 48 107 0 99 88 24 81 88 14 83 88 12 81 88 14 99 88 24 87 88 25 33 142 26 53 142 25 67 141 24 53 142 25 33 142 26 6 141 7 94 82 31 76 82 18 78 82 16 76 82 18 94 82 31 96 82 32 23 82 33 64 82 32 62 82 31 64 82 32 23 82 33 34 82 5 90 85 34 72 85 22 74 84 20 72 85 22 90 85 34 92 84 35 14 143 36 60 143 35 58 143 34 60 143 35 14 143 36 25 143 6 197 35 0 163 40 0 165 33 0 163 40 0 197 35 0 195 42 0 193 43 0 159 48 0 161 41 0 159 48 0 193 43 0 191 50 0 185 63 0 143 52 0 137 61 0 143 52 0 185 63 0 189 54 0 80 121 0 69 119 0 85 104 0 69 119 0 80 121 0 86 92 0</p>
                </triangles>
            </mesh>
        </geometry>
        <geometry id="ID19">
            <mesh>
                <source id="ID20">
                    <float_array id="ID21" count="816">-935.597 37.2264 820.195 -905.195 77.7264 793.658 -757.676 37.2264 986.911 -733.13 77.7264 955.182 -550.018 37.2264 1116.04 -532.552 77.7264 1079.83 -81.5355 37.2264 1241.54 -78.5592 77.7264 1201.44 162.867 37.2264 1233.51 157.469 77.7264 1193.76 400.301 37.2264 1178.06 387.236 77.7264 1139.88 622.843 37.2264 1077.72 602.334 77.7264 1042.21 820.986 37.2264 935.138 794.449 77.7264 904.736 987.702 37.2264 757.218 955.973 77.7264 732.672 1116.83 37.2264 549.559 1080.62 77.7264 532.094 1163.64 -85.2736 311.049 1202.76 -44.7736 321.528 1202.23 -85.2736 78.1007 1242.33 -44.7736 81.077 1194.55 -85.2736 -157.927 1234.78 -44.7736 -163.196 1140.67 -85.2736 -387.695 1178.85 -44.7736 -400.76 1043 -85.2736 -602.793 1078.51 -44.7736 -623.301 905.527 -85.2736 -794.907 935.929 -44.7736 -821.444 733.462 -85.2736 -956.431 758.009 -44.7736 -988.16 532.884 -85.2736 -1081.08 550.35 -44.7736 -1117.29 78.8914 -85.2736 -1202.69 81.8677 -44.7736 -1242.79 -157.136 -85.2736 -1195.01 -162.535 -44.7736 -1234.76 -386.904 -85.2736 -1141.12 -399.969 -44.7736 -1179.31 -602.002 -85.2736 -1043.46 -622.51 -44.7736 -1078.97 -794.117 -85.2736 -905.985 -820.654 -44.7736 -936.388 -955.641 -85.2736 -733.921 -987.37 -44.7736 -758.467 -1080.29 -85.2736 -533.343 -1116.5 -44.7736 -550.808 -1163.31 -85.2736 -312.298 -1202.43 -44.7736 -322.777 -1201.9 -85.2736 -79.3499 -1242 -44.7736 -82.3262 -1194.21 -85.2736 156.678 -1233.97 -44.7736 162.076 -1140.33 -85.2736 386.445 -1178.51 -44.7736 399.511 -1042.67 -85.2736 601.544 -1078.18 -44.7736 622.052 -905.195 -85.2736 793.658 -935.597 -44.7736 820.195 -733.13 -85.2736 955.182 -757.676 -44.7736 986.911 -532.552 -85.2736 1079.83 -550.018 -44.7736 1116.04 -78.5592 -85.2736 1201.44 -81.5355 -44.7736 1241.54 157.469 -85.2736 1193.76 162.867 -44.7736 1233.51 387.236 -85.2736 1139.88 400.301 -44.7736 1178.06 602.334 -85.2736 1042.21 622.843 -44.7736 1077.72 794.449 -85.2736 904.736 820.986 -44.7736 935.138 955.973 -85.2736 732.672 987.702 -44.7736 757.218 1080.62 -85.2736 532.094 1116.83 -44.7736 549.559 393.934 -85.2736 -1047.38 379.59 -44.7736 -1009.3 182.392 -85.2736 -1104.05 175.776 -44.7736 -1063.9 379.59 37.2264 -1009.3 175.776 37.2264 -1063.9 393.934 77.7264 -1047.38 182.392 77.7264 -1104.05 422.362 77.7264 -1122.59 195.365 77.7264 -1183.4 436.093 37.2264 -1160.32 202.335 37.2264 -1222.94 436.093 -44.7736 -1160.32 202.335 -44.7736 -1222.94 422.362 -85.2736 -1122.59 195.365 -85.2736 -1183.4 1085.4 -85.2736 290.089 -393.601 -85.2736 1046.14 1046.28 -44.7736 279.61 -379.258 -44.7736 1008.05 1121.3 -85.2736 72.9846 -182.06 -85.2736 1102.8 1081.08 -44.7736 70.4912 -175.444 -44.7736 1062.65 1114.08 -85.2736 -147.39 -379.258 37.2264 1008.05 1073.85 -44.7736 -142.121 -175.444 37.2264 1062.65 1063.82 -85.2736 -361.693 -393.601 77.7264 1046.14 1025.64 -44.7736 -348.628 -182.06 77.7264 1102.8 973.19 -85.2736 -562.483 -422.03 77.7264 1121.34 938.286 -44.7736 -542.328 -195.033 77.7264 1182.15 844.593 -85.2736 -741.35 -435.761 37.2264 1159.07 814.191 -44.7736 -714.813 -202.003 37.2264 1221.69 684.111 -85.2736 -892.007 -435.761 -44.7736 1159.07 659.436 -44.7736 -859.795 -202.003 -44.7736 1221.69 496.858 -85.2736 -1008.43 -422.03 -85.2736 1121.34 478.91 -44.7736 -972.341 -195.033 -85.2736 1182.15 73.7753 -85.2736 -1121.76 71.2819 -44.7736 -1081.54 -146.599 -85.2736 -1114.54 -141.33 -44.7736 -1074.3 -360.903 -85.2736 -1064.28 -347.837 -44.7736 -1026.1 -561.692 -85.2736 -973.648 -541.538 -44.7736 -938.745 -740.56 -85.2736 -845.052 -714.023 -44.7736 -814.65 -891.216 -85.2736 -684.57 -859.004 -44.7736 -659.894 -1007.63 -85.2736 -497.316 -971.55 -44.7736 -479.368 -1085.07 -85.2736 -291.338 -1045.95 -44.7736 -280.859 -1120.97 -85.2736 -74.2337 -1080.75 -44.7736 -71.7404 -1113.75 -85.2736 146.141 -1073.51 -44.7736 140.872 -1063.49 -85.2736 360.444 -1025.31 -44.7736 347.379 -972.858 -85.2736 561.234 -937.954 -44.7736 541.079 -844.261 -85.2736 740.101 -813.859 -44.7736 713.564 -683.779 -85.2736 890.758 -659.104 -44.7736 858.546 -496.526 -85.2736 1007.18 -478.577 -44.7736 971.091 -73.4431 -85.2736 1120.51 -70.9497 -44.7736 1080.29 146.931 -85.2736 1113.29 141.663 -44.7736 1073.06 361.235 -85.2736 1063.03 348.169 -44.7736 1024.85 562.025 -85.2736 972.399 541.87 -44.7736 937.495 740.892 -85.2736 843.803 714.355 -44.7736 813.401 891.549 -85.2736 683.321 859.337 -44.7736 658.645 1007.97 -85.2736 496.067 971.882 -44.7736 478.119 1085.4 77.7264 290.089 1046.28 37.2264 279.61 1121.3 77.7264 72.9846 1081.08 37.2264 70.4912 1114.08 77.7264 -147.39 1073.85 37.2264 -142.121 1063.82 77.7264 -361.693 1025.64 37.2264 -348.628 973.19 77.7264 -562.483 938.286 37.2264 -542.328 844.593 77.7264 -741.35 814.191 37.2264 -714.813 684.111 77.7264 -892.007 659.436 37.2264 -859.795 496.858 77.7264 -1008.43 478.91 37.2264 -972.341 73.7753 77.7264 -1121.76 71.2819 37.2264 -1081.54 -146.599 77.7264 -1114.54 -141.33 37.2264 -1074.3 -360.903 77.7264 -1064.28 -347.837 37.2264 -1026.1 -561.692 77.7264 -973.648 -541.538 37.2264 -938.745 -740.56 77.7264 -845.052 -714.023 37.2264 -814.65 -891.216 77.7264 -684.57 -859.004 37.2264 -659.894 -1007.63 77.7264 -497.316 -971.55 37.2264 -479.368 -1085.07 77.7264 -291.338 -1045.95 37.2264 -280.859 -1120.97 77.7264 -74.2337 -1080.75 37.2264 -71.7404 -1113.75 77.7264 146.141 -1073.51 37.2264 140.872 -1063.49 77.7264 360.444 -1025.31 37.2264 347.379 -972.858 77.7264 561.234 -937.954 37.2264 541.079 -844.261 77.7264 740.101 -813.859 37.2264 713.564 -683.779 77.7264 890.758 -659.104 37.2264 858.546 -496.526 77.7264 1007.18 -478.577 37.2264 971.091 -73.4431 77.7264 1120.51 -70.9497 37.2264 1080.29 146.931 77.7264 1113.29 141.663 37.2264 1073.06 361.235 77.7264 1063.03 348.169 37.2264 1024.85 562.025 77.7264 972.399 541.87 37.2264 937.495 740.892 77.7264 843.803 714.355 37.2264 813.401 891.549 77.7264 683.321 859.337 37.2264 658.645 1007.97 77.7264 496.067 971.882 37.2264 478.119 1202.76 37.2264 321.528 1163.64 77.7264 311.049 1242.33 37.2264 81.077 1202.23 77.7264 78.1007 1234.78 37.2264 -163.196 1194.55 77.7264 -157.927 1178.85 37.2264 -400.76 1140.67 77.7264 -387.695 1078.51 37.2264 -623.301 1043 77.7264 -602.793 935.929 37.2264 -821.444 905.527 77.7264 -794.907 758.009 37.2264 -988.16 733.462 77.7264 -956.431 550.35 37.2264 -1117.29 532.884 77.7264 -1081.08 81.8677 37.2264 -1242.79 78.8914 77.7264 -1202.69 -162.535 37.2264 -1234.76 -157.136 77.7264 -1195.01 -399.969 37.2264 -1179.31 -386.904 77.7264 -1141.12 -622.51 37.2264 -1078.97 -602.002 77.7264 -1043.46 -820.654 37.2264 -936.388 -794.117 77.7264 -905.985 -987.37 37.2264 -758.467 -955.641 77.7264 -733.921 -1116.5 37.2264 -550.808 -1080.29 77.7264 -533.343 -1202.43 37.2264 -322.777 -1163.31 77.7264 -312.298 -1242 37.2264 -82.3262 -1201.9 77.7264 -79.3499 -1233.97 37.2264 162.076 -1194.21 77.7264 156.678 -1178.51 37.2264 399.511 -1140.33 77.7264 386.445 -1078.18 37.2264 622.052 -1042.67 77.7264 601.544</float_array>
                    <technique_common>
                        <accessor count="272" source="#ID21" stride="3">
                            <param name="X" type="float"/>
                            <param name="Y" type="float"/>
                            <param name="Z" type="float"/>
                        </accessor>
                    </technique_common>
                </source>
                <source id="ID22">
                    <float_array id="ID23" count="816">-0.379077 -0.458074 0.804033 -0.426547 0.327415 0.843123 -0.538477 -0.382887 0.750627 -0.586553 0.382955 0.713653 -0.674051 -0.382543 0.631915 -0.713752 0.382011 0.587048 -0.78445 -0.382003 0.488582 -0.815294 0.382003 0.435166 -0.865233 -0.382011 0.324714 -0.884245 0.382543 0.267901 -0.911299 -0.382955 0.15126 -0.919288 0.382887 0.091139 -0.923514 -0.382394 -0.0299392 -0.919581 0.382242 -0.0908984 -0.899781 -0.38253 -0.209916 -0.884226 0.38253 -0.267985 -0.841878 -0.382242 -0.380962 -0.814812 0.382394 -0.435725 -0.750627 -0.382887 -0.538477 -0.713653 0.382955 -0.586553 -0.631915 -0.382543 -0.674051 -0.587049 0.38201 -0.713752 -0.488582 -0.382003 -0.78445 -0.435166 0.382003 -0.815294 -0.324714 -0.38201 -0.865234 -0.267901 0.382543 -0.884245 -0.15126 -0.382955 -0.911299 -0.0911388 0.382888 -0.919288 0.0306608 -0.38241 -0.923484 0.091678 0.383017 -0.919181 0.15277 -0.382035 -0.911433 0.153704 0.383802 -0.910533 0.0628716 0.923049 -0.379511 -0.0627296 0.92364 0.378094 0.037679 0.923411 -0.381958 -0.012103 0.923744 0.382819 -0.0378077 0.923134 -0.382614 0.0625468 0.924005 0.377231 -0.111609 0.923473 -0.367071 0.134841 0.923604 0.35885 -0.179196 0.924682 -0.335936 0.202687 0.923598 0.325401 -0.242369 0.924172 -0.295235 0.261741 0.923816 0.279383 -0.296849 0.923277 -0.243804 0.310741 0.923978 0.222946 -0.338939 0.923215 -0.181092 0.3491 0.923688 0.157892 -0.36639 0.923787 -0.111247 0.372786 0.923829 0.0870112 -0.381664 0.923536 -0.0376076 0.382794 0.92375 0.0123922 -0.380897 0.923863 0.0373439 0.377231 0.924005 -0.0625468 -0.366182 0.923823 0.111629 0.358851 0.923604 -0.134842 -0.335936 0.924682 0.179196 0.325401 0.923597 -0.202687 -0.295235 0.924172 0.242369 0.279383 0.923816 -0.261741 -0.243804 0.923277 0.296849 0.222946 0.923978 -0.310741 -0.154919 0.944419 0.289953 0.188541 0.889234 -0.416791 -0.188541 0.889234 0.416791 0.154919 0.944419 -0.289953 -0.222946 0.923978 0.310741 0.243804 0.923277 -0.296849 -0.279383 0.923816 0.261741 0.295235 0.924172 -0.242369 -0.325401 0.923597 0.202687 0.335936 0.924682 -0.179196 -0.35885 0.923604 0.134842 0.367071 0.923473 -0.111609 -0.377231 0.924005 0.0625468 0.382614 0.923134 -0.0378077 -0.382795 0.92375 -0.0123921 0.381664 0.923535 0.0376076 -0.372786 0.923829 -0.0870111 0.36639 0.923787 0.111247 -0.349099 0.923688 -0.157892 0.338939 0.923215 0.181092 -0.310741 0.923978 -0.222946 0.296849 0.923277 0.243804 -0.261742 0.923816 -0.279383 0.242369 0.924172 0.295235 -0.202687 0.923597 -0.325401 0.179196 0.924682 0.335936 -0.134842 0.923604 -0.358851 0.111609 0.923473 0.367071 -0.0625468 0.924005 -0.377231 0.0378077 0.923134 0.382614 0.0121032 0.923744 -0.382818 -0.0376792 0.923411 0.381958 0.0627296 0.92364 -0.378094 -0.0628716 0.923049 0.379511 0.150324 -0.38068 -0.912406 0.150512 0.38038 -0.912501 0.0905311 -0.381533 -0.919911 0.0299967 0.381067 -0.924061 -0.0906948 -0.38086 -0.920174 -0.151024 0.381197 -0.912075 -0.267973 -0.381692 -0.884591 -0.324703 0.383341 -0.864649 -0.434809 -0.384699 -0.814216 -0.487827 0.384699 -0.783601 -0.586547 -0.383341 -0.713451 -0.632179 0.381692 -0.674286 -0.714443 -0.381197 -0.586737 -0.751616 0.38086 -0.538535 -0.815285 -0.381066 -0.436003 -0.841824 0.381825 -0.3815 -0.884159 -0.382483 -0.268271 -0.899867 0.382483 -0.209635 -0.919748 -0.381813 -0.0910058 -0.923665 0.38195 -0.0309281 -0.91947 -0.382678 0.0901789 -0.91128 0.383013 0.151232 -0.884 -0.382507 0.268763 -0.864458 0.383329 0.325226 -0.814216 -0.384699 0.434809 -0.783601 0.384699 0.487827 -0.713451 -0.383341 0.586547 -0.674286 0.381692 0.632178 -0.586737 -0.381197 0.714443 -0.538535 0.38086 0.751616 -0.427811 -0.326261 0.84293 -0.379981 0.456324 0.804601 0.379982 0.456323 -0.804601 0.427811 -0.326261 -0.84293 0.538535 0.38086 -0.751616 0.586737 -0.381197 -0.714443 0.674286 0.381692 -0.632178 0.713451 -0.383341 -0.586547 0.783601 0.3847 -0.487827 0.814216 -0.384699 -0.434809 0.864649 0.383341 -0.324703 0.884591 -0.381692 -0.267973 0.912075 0.381197 -0.151024 0.920174 -0.38086 -0.0906948 0.924063 0.381066 0.0299348 0.919803 -0.381824 0.0904057 0.899867 0.382482 0.209635 0.88416 -0.382482 0.268271 0.841824 0.381825 0.3815 0.815285 -0.381066 0.436003 0.751616 0.38086 0.538535 0.714443 -0.381197 0.586737 0.632178 0.381692 0.674286 0.586547 -0.383341 0.713451 0.487827 0.384699 0.783601 0.434809 -0.384699 0.814216 0.324704 0.383341 0.864649 0.267973 -0.381692 0.884591 0.151024 0.381197 0.912075 0.0906947 -0.38086 0.920174 -0.029997 0.381068 0.92406 -0.0905315 -0.381534 0.919911 -0.150513 0.38038 0.9125 -0.150325 -0.38068 0.912406 -0.0613977 -0.924343 0.37659 0.0627546 -0.922919 -0.379846 -0.0376655 -0.923989 0.380561 0.0125906 -0.923215 -0.384078 0.037755 -0.923978 0.380579 -0.0627648 -0.923277 -0.378973 0.111129 -0.923816 0.366352 -0.134542 -0.924172 -0.357498 0.180505 -0.923598 0.338209 -0.201372 -0.924682 -0.32313 0.243391 -0.923604 0.29617 -0.262124 -0.923473 -0.280159 0.295449 -0.924005 0.242745 -0.312478 -0.923134 -0.22401 0.337729 -0.92375 0.180622 -0.349355 -0.923536 -0.158218 0.366362 -0.923829 0.110992 -0.372937 -0.923787 -0.0868049 0.38128 -0.923688 0.0377626 -0.38315 -0.923597 -0.0128619 0.380578 -0.923978 -0.037755 -0.377196 -0.924005 0.0627593 0.366352 -0.923816 -0.111129 -0.357498 -0.924172 0.134542 0.338209 -0.923597 -0.180505 -0.32313 -0.924682 0.201372 0.29617 -0.923604 -0.243391 -0.280158 -0.923473 0.262124 0.242745 -0.924005 -0.295449 -0.22401 -0.923134 0.312478 0.154745 -0.944795 -0.288817 -0.189357 -0.888383 0.418233 0.189357 -0.888383 -0.418234 -0.154745 -0.944795 0.288817 0.22401 -0.923134 -0.312479 -0.242745 -0.924005 0.295449 0.280158 -0.923473 -0.262124 -0.29617 -0.923604 0.243391 0.32313 -0.924682 -0.201372 -0.338209 -0.923598 0.180505 0.357498 -0.924172 -0.134542 -0.366352 -0.923816 0.111129 0.378973 -0.923277 -0.0627648 -0.380579 -0.923978 0.037755 0.384078 -0.923215 0.0125906 -0.38128 -0.923688 -0.0377626 0.372938 -0.923787 0.0868051 -0.366362 -0.923829 -0.110992 0.349355 -0.923535 0.158218 -0.337729 -0.92375 -0.180622 0.312478 -0.923134 0.22401 -0.295449 -0.924005 -0.242745 0.262124 -0.923473 0.280158 -0.243391 -0.923604 -0.296171 0.201372 -0.924682 0.323131 -0.180505 -0.923597 -0.338209 0.134542 -0.924172 0.357498 -0.111129 -0.923816 -0.366352 0.0627647 -0.923277 0.378973 -0.037755 -0.923978 -0.380578 -0.0125906 -0.923215 0.384077 0.0376655 -0.923989 -0.380561 -0.0627548 -0.922919 0.379846 0.0613983 -0.924343 -0.37659 -0.153705 0.383803 0.910533 -0.15277 -0.382035 0.911433 -0.0916784 0.383017 0.919181 -0.0306611 -0.382409 0.923484 0.091139 0.382887 0.919288 0.15126 -0.382955 0.911299 0.267901 0.382543 0.884245 0.324714 -0.382011 0.865233 0.435166 0.382003 0.815294 0.488582 -0.382003 0.78445 0.587048 0.382011 0.713752 0.631915 -0.382543 0.674051 0.713653 0.382955 0.586553 0.750627 -0.382887 0.538477 0.814812 0.382394 0.435725 0.841878 -0.382242 0.380963 0.884226 0.382529 0.267985 0.899781 -0.382529 0.209916 0.919581 0.382242 0.0908982 0.923514 -0.382395 0.029939 0.919288 0.382888 -0.0911388 0.911299 -0.382955 -0.15126 0.884245 0.382543 -0.267901 0.865234 -0.38201 -0.324714 0.815294 0.382003 -0.435166 0.78445 -0.382003 -0.488582 0.713752 0.382011 -0.587049 0.674051 -0.382543 -0.631915 0.586553 0.382955 -0.713653 0.538477 -0.382887 -0.750627 0.426547 0.327415 -0.843123 0.379077 -0.458074 -0.804033 -0.304511 -0.502473 0.809193 -0.341122 0.25143 0.90577 0.177874 -0.862417 -0.473917 -0.0893162 -0.9672 0.237796 0.30242 0.504613 -0.808646 0.337365 -0.253447 -0.906614 -0.178984 0.861101 0.475889 0.0892109 0.967727 -0.235681 0.341123 0.25143 -0.905769 0.178985 0.8611 -0.475889 0.0893162 -0.9672 -0.237796 0.304511 -0.502473 -0.809194 -0.337366 -0.253447 0.906614 -0.177874 -0.862417 0.473917 -0.0892109 0.967727 0.235681 -0.30242 0.504613 0.808646</float_array>
                    <technique_common>
                        <accessor count="272" source="#ID23" stride="3">
                            <param name="X" type="float"/>
                            <param name="Y" type="float"/>
                            <param name="Z" type="float"/>
                        </accessor>
                    </technique_common>
                </source>
                <source id="ID24">
                    <float_array id="ID25" count="272">0.4375 0.752014 0.4375 0.248047 0.375 0.752014 0.375 0.248047 0.3125 0.752014 0.3125 0.248047 0.25 0.752014 0.25 0.248047 0.1875 0.752014 0.1875 0.248047 0.125 0.752014 0.125 0.248047 0.0625 0.752014 0.0625 0.248047 0 0.752014 0 0.248047 -0.062439 0.752014 -0.062439 0.248047 -0.124939 0.752014 -0.124939 0.248047 -0.187439 0.752014 -0.187439 0.248047 -0.249939 0.752014 -0.249939 0.248047 -0.312439 0.752014 -0.312439 0.248047 -0.374939 0.752014 -0.374939 0.248047 -0.437439 0.752014 -0.437439 0.248047 -0.468689 0.752014 -0.468689 0.248047 0.53125 0 0.5625 0 0.625 0 0.6875 0 0.75 0 0.8125 0 0.875 0 0.9375 0 1 0 1.0625 0 1.125 0 1.1875 0 1.25 0 1.3125 0 1.375 0 1.4375 0 0.4375 0 0.375 0 0.3125 0 0.25 0 0.1875 0 0.125 0 0.0625 0 0 0 -0.062439 0 -0.124939 0 -0.187439 0 -0.249939 0 -0.312439 0 -0.374939 0 -0.437439 0 -0.468689 0 0.53125 0.752014 0.53125 0.248047 0.5625 0.752014 0.5625 0.248047 0.625 0.752014 0.625 0.248047 0.6875 0.752014 0.6875 0.248047 0.75 0.752014 0.75 0.248047 0.8125 0.752014 0.8125 0.248047 0.875 0.752014 0.875 0.248047 0.9375 0.752014 0.9375 0.248047 1 0.752014 1 0.248047 1.0625 0.752014 1.0625 0.248047 1.125 0.752014 1.125 0.248047 1.1875 0.752014 1.1875 0.248047 1.25 0.752014 1.25 0.248047 1.3125 0.752014 1.3125 0.248047 1.375 0.752014 1.375 0.248047 1.4375 0.752014 1.4375 0.248047 0.53125 1 0.5625 1 0.625 1 0.6875 1 0.75 1 0.8125 1 0.875 1 0.9375 1 1 1 1.0625 1 1.125 1 1.1875 1 1.25 1 1.3125 1 1.375 1 1.4375 1 0.4375 1 0.375 1 0.3125 1 0.25 1 0.1875 1 0.125 1 0.0625 1 0 1 -0.062439 1 -0.124939 1 -0.187439 1 -0.249939 1 -0.312439 1 -0.374939 1 -0.437439 1 -0.468689 1 1.46875 0.752014 1.46875 0.248047 1.46875 1 1.46875 0 0.46875 0.248047 0.46875 0 0.46875 1 0.46875 0.752014</float_array>
                    <technique_common>
                        <accessor count="136" source="#ID25" stride="2">
                            <param name="S" type="float"/>
                            <param name="T" type="float"/>
                        </accessor>
                    </technique_common>
                </source>
                <vertices id="ID26">
                    <input semantic="POSITION" source="#ID20"/>
                </vertices>
                <triangles count="512" material="Material1">
                    <input offset="0" semantic="VERTEX" source="#ID26"/>
                    <input offset="1" semantic="NORMAL" source="#ID22"/>
                    <input offset="2" semantic="TEXCOORD" source="#ID24" set="0"/>
                    <p>215 2 2 157 1 1 217 0 0 157 1 1 215 2 2 155 3 3 213 4 4 155 3 3 215 2 2 155 3 3 213 4 4 153 5 5 211 6 6 153 5 5 213 4 4 153 5 5 211 6 6 151 7 7 209 8 8 151 7 7 211 6 6 151 7 7 209 8 8 149 9 9 207 10 10 149 9 9 209 8 8 149 9 9 207 10 10 147 11 11 205 12 12 147 11 11 207 10 10 147 11 11 205 12 12 145 13 13 203 14 14 145 13 13 205 12 12 145 13 13 203 14 14 143 15 15 201 16 16 143 15 15 203 14 14 143 15 15 201 16 16 141 17 17 199 18 18 141 17 17 201 16 16 141 17 17 199 18 18 139 19 19 197 20 20 139 19 19 199 18 18 139 19 19 197 20 20 137 21 21 195 22 22 137 21 21 197 20 20 137 21 21 195 22 22 135 23 23 193 24 24 135 23 23 195 22 22 135 23 23 193 24 24 133 25 25 191 26 26 133 25 25 193 24 24 133 25 25 191 26 26 131 27 27 189 28 28 131 27 27 191 26 26 131 27 27 189 28 28 129 29 29 85 30 30 129 29 29 189 28 28 129 29 29 85 30 30 83 31 31 66 34 33 101 33 32 127 32 32 101 33 32 66 34 33 158 35 33 68 36 34 158 35 33 66 34 33 158 35 33 68 36 34 160 37 34 70 38 35 160 37 34 68 36 34 160 37 34 70 38 35 162 39 35 72 40 36 162 39 35 70 38 35 162 39 35 72 40 36 164 41 36 74 42 37 164 41 36 72 40 36 164 41 36 74 42 37 166 43 37 76 44 38 166 43 37 74 42 37 166 43 37 76 44 38 168 45 38 78 46 39 168 45 38 76 44 38 168 45 38 78 46 39 170 47 39 20 48 40 170 47 39 78 46 39 170 47 39 20 48 40 96 49 40 22 50 41 96 49 40 20 48 40 96 49 40 22 50 41 100 51 41 24 52 42 100 51 41 22 50 41 100 51 41 24 52 42 104 53 42 26 54 43 104 53 42 24 52 42 104 53 42 26 54 43 108 55 43 28 56 44 108 55 43 26 54 43 108 55 43 28 56 44 112 57 44 30 58 45 112 57 44 28 56 44 112 57 44 30 58 45 116 59 45 32 60 46 116 59 45 30 58 45 116 59 45 32 60 46 120 61 46 34 62 47 120 61 46 32 60 46 120 61 46 34 62 47 124 63 47 154 66 49 64 65 48 156 64 48 64 65 48 154 66 49 62 67 49 152 68 50 62 67 49 154 66 49 62 67 49 152 68 50 60 69 50 150 70 51 60 69 50 152 68 50 60 69 50 150 70 51 58 71 51 148 72 52 58 71 51 150 70 51 58 71 51 148 72 52 56 73 52 146 74 53 56 73 52 148 72 52 56 73 52 146 74 53 54 75 53 144 76 54 54 75 53 146 74 53 54 75 53 144 76 54 52 77 54 142 78 55 52 77 54 144 76 54 52 77 54 142 78 55 50 79 55 140 80 56 50 79 55 142 78 55 50 79 55 140 80 56 48 81 56 138 82 57 48 81 56 140 80 56 48 81 56 138 82 57 46 83 57 136 84 58 46 83 57 138 82 57 46 83 57 136 84 58 44 85 58 134 86 59 44 85 58 136 84 58 44 85 58 134 86 59 42 87 59 132 88 60 42 87 59 134 86 59 42 87 59 132 88 60 40 89 60 130 90 61 40 89 60 132 88 60 40 89 60 130 90 61 38 91 61 128 92 62 38 91 61 130 90 61 38 91 61 128 92 62 36 93 62 82 94 63 36 93 62 128 92 62 36 93 62 82 94 63 95 95 63 6 98 66 123 97 65 119 96 64 123 97 65 6 98 66 67 99 67 8 100 68 67 99 67 6 98 66 67 99 67 8 100 68 69 101 69 10 102 70 69 101 69 8 100 68 69 101 69 10 102 70 71 103 71 12 104 72 71 103 71 10 102 70 71 103 71 12 104 72 73 105 73 14 106 74 73 105 73 12 104 72 73 105 73 14 106 74 75 107 75 16 108 76 75 107 75 14 106 74 75 107 75 16 108 76 77 109 77 18 110 78 77 109 77 16 108 76 77 109 77 18 110 78 79 111 79 232 112 80 79 111 79 18 110 78 79 111 79 232 112 80 21 113 81 234 114 82 21 113 81 232 112 80 21 113 81 234 114 82 23 115 83 236 116 84 23 115 83 234 114 82 23 115 83 236 116 84 25 117 85 238 118 86 25 117 85 236 116 84 25 117 85 238 118 86 27 119 87 240 120 88 27 119 87 238 118 86 27 119 87 240 120 88 29 121 89 242 122 90 29 121 89 240 120 88 29 121 89 242 122 90 31 123 91 244 124 92 31 123 91 242 122 90 31 123 91 244 124 92 33 125 93 246 126 94 33 125 93 244 124 92 33 125 93 246 126 94 35 127 95 63 130 3 4 129 0 65 128 1 4 129 0 63 130 3 2 131 2 61 132 5 2 131 2 63 130 3 2 131 2 61 132 5 0 133 4 59 134 7 0 133 4 61 132 5 0 133 4 59 134 7 270 135 6 57 136 9 270 135 6 59 134 7 270 135 6 57 136 9 268 137 8 55 138 11 268 137 8 57 136 9 268 137 8 55 138 11 266 139 10 53 140 13 266 139 10 55 138 11 266 139 10 53 140 13 264 141 12 51 142 15 264 141 12 53 140 13 264 141 12 51 142 15 262 143 14 49 144 17 262 143 14 51 142 15 262 143 14 49 144 17 260 145 16 47 146 19 260 145 16 49 144 17 260 145 16 47 146 19 258 147 18 45 148 21 258 147 18 47 146 19 258 147 18 45 148 21 256 149 20 43 150 23 256 149 20 45 148 21 256 149 20 43 150 23 254 151 22 41 152 25 254 151 22 43 150 23 254 151 22 41 152 25 252 153 24 39 154 27 252 153 24 41 152 25 252 153 24 39 154 27 250 155 26 37 156 29 250 155 26 39 154 27 250 155 26 37 156 29 248 157 28 93 158 31 248 157 28 37 156 29 248 157 28 93 158 31 91 159 30 218 162 97 115 161 96 111 160 96 115 161 96 218 162 97 7 163 97 220 164 98 7 163 97 218 162 97 7 163 97 220 164 98 9 165 98 222 166 99 9 165 98 220 164 98 9 165 98 222 166 99 11 167 99 224 168 100 11 167 99 222 166 99 11 167 99 224 168 100 13 169 100 226 170 101 13 169 100 224 168 100 13 169 100 226 170 101 15 171 101 228 172 102 15 171 101 226 170 101 15 171 101 228 172 102 17 173 102 230 174 103 17 173 102 228 172 102 17 173 102 230 174 103 19 175 103 172 176 104 19 175 103 230 174 103 19 175 103 172 176 104 233 177 104 174 178 105 233 177 104 172 176 104 233 177 104 174 178 105 235 179 105 176 180 106 235 179 105 174 178 105 235 179 105 176 180 106 237 181 106 178 182 107 237 181 106 176 180 106 237 181 106 178 182 107 239 183 107 180 184 108 239 183 107 178 182 107 239 183 107 180 184 108 241 185 108 182 186 109 241 185 108 180 184 108 241 185 108 182 186 109 243 187 109 184 188 110 243 187 109 182 186 109 243 187 109 184 188 110 245 189 110 186 190 111 245 189 110 184 188 110 245 189 110 186 190 111 247 191 111 3 194 113 216 193 112 5 192 112 216 193 112 3 194 113 214 195 113 1 196 114 214 195 113 3 194 113 214 195 113 1 196 114 212 197 114 271 198 115 212 197 114 1 196 114 212 197 114 271 198 115 210 199 115 269 200 116 210 199 115 271 198 115 210 199 115 269 200 116 208 201 116 267 202 117 208 201 116 269 200 116 208 201 116 267 202 117 206 203 117 265 204 118 206 203 117 267 202 117 206 203 117 265 204 118 204 205 118 263 206 119 204 205 118 265 204 118 204 205 118 263 206 119 202 207 119 261 208 120 202 207 119 263 206 119 202 207 119 261 208 120 200 209 120 259 210 121 200 209 120 261 208 120 200 209 120 259 210 121 198 211 121 257 212 122 198 211 121 259 210 121 198 211 121 257 212 122 196 213 122 255 214 123 196 213 122 257 212 122 196 213 122 255 214 123 194 215 123 253 216 124 194 215 123 255 214 123 194 215 123 253 216 124 192 217 124 251 218 125 192 217 124 253 216 124 192 217 124 251 218 125 190 219 125 249 220 126 190 219 125 251 218 125 190 219 125 249 220 126 188 221 126 89 222 127 188 221 126 249 220 126 188 221 126 89 222 127 87 223 127 159 226 67 107 225 64 103 224 65 107 225 64 159 226 67 219 227 66 161 228 69 219 227 66 159 226 67 219 227 66 161 228 69 221 229 68 163 230 71 221 229 68 161 228 69 221 229 68 163 230 71 223 231 70 165 232 73 223 231 70 163 230 71 223 231 70 165 232 73 225 233 72 167 234 75 225 233 72 165 232 73 225 233 72 167 234 75 227 235 74 169 236 77 227 235 74 167 234 75 227 235 74 169 236 77 229 237 76 171 238 79 229 237 76 169 236 77 229 237 76 171 238 79 231 239 78 98 240 81 231 239 78 171 238 79 231 239 78 98 240 81 173 241 80 102 242 83 173 241 80 98 240 81 173 241 80 102 242 83 175 243 82 106 244 85 175 243 82 102 242 83 175 243 82 106 244 85 177 245 84 110 246 87 177 245 84 106 244 85 177 245 84 110 246 87 179 247 86 114 248 89 179 247 86 110 246 87 179 247 86 114 248 89 181 249 88 118 250 91 181 249 88 114 248 89 181 249 88 118 250 91 183 251 90 122 252 93 183 251 90 118 250 91 183 251 90 122 252 93 185 253 92 126 254 95 185 253 92 122 252 93 185 253 92 126 254 95 187 255 94 93 158 31 36 93 62 95 95 63 36 93 62 93 158 31 37 156 29 89 222 127 248 157 28 91 159 30 248 157 28 89 222 127 249 220 126 85 30 30 188 221 126 87 223 127 188 221 126 85 30 30 189 28 28 82 94 63 129 29 29 83 31 31 129 29 29 82 94 63 128 92 62 92 257 129 246 126 94 90 256 128 246 126 94 92 257 129 35 127 95 88 259 130 186 190 111 86 258 130 186 190 111 88 259 130 247 191 111 84 261 128 126 254 95 81 260 129 126 254 95 84 261 128 187 255 94 80 263 131 34 62 47 94 262 131 34 62 47 80 263 131 124 63 47 67 99 67 68 36 34 66 34 33 68 36 34 67 99 67 69 101 69 69 101 69 70 38 35 68 36 34 70 38 35 69 101 69 71 103 71 71 103 71 72 40 36 70 38 35 72 40 36 71 103 71 73 105 73 73 105 73 74 42 37 72 40 36 74 42 37 73 105 73 75 107 75 75 107 75 76 44 38 74 42 37 76 44 38 75 107 75 77 109 77 77 109 77 78 46 39 76 44 38 78 46 39 77 109 77 79 111 79 125 265 133 65 128 1 121 264 132 65 128 1 125 265 133 64 65 48 64 65 48 63 130 3 65 128 1 63 130 3 64 65 48 62 67 49 62 67 49 61 132 5 63 130 3 61 132 5 62 67 49 60 69 50 60 69 50 59 134 7 61 132 5 59 134 7 60 69 50 58 71 51 58 71 51 57 136 9 59 134 7 57 136 9 58 71 51 56 73 52 56 73 52 55 138 11 57 136 9 55 138 11 56 73 52 54 75 53 54 75 53 53 140 13 55 138 11 53 140 13 54 75 53 52 77 54 52 77 54 51 142 15 53 140 13 51 142 15 52 77 54 50 79 55 50 79 55 49 144 17 51 142 15 49 144 17 50 79 55 48 81 56 48 81 56 47 146 19 49 144 17 47 146 19 48 81 56 46 83 57 46 83 57 45 148 21 47 146 19 45 148 21 46 83 57 44 85 58 44 85 58 43 150 23 45 148 21 43 150 23 44 85 58 42 87 59 42 87 59 41 152 25 43 150 23 41 152 25 42 87 59 40 89 60 40 89 60 39 154 27 41 152 25 39 154 27 40 89 60 38 91 61 38 91 61 37 156 29 39 154 27 37 156 29 38 91 61 36 93 62 94 262 131 35 127 95 92 257 129 35 127 95 94 262 131 34 62 47 34 62 47 33 125 93 35 127 95 33 125 93 34 62 47 32 60 46 32 60 46 31 123 91 33 125 93 31 123 91 32 60 46 30 58 45 30 58 45 29 121 89 31 123 91 29 121 89 30 58 45 28 56 44 28 56 44 27 119 87 29 121 89 27 119 87 28 56 44 26 54 43 26 54 43 25 117 85 27 119 87 25 117 85 26 54 43 24 52 42 24 52 42 23 115 83 25 117 85 23 115 83 24 52 42 22 50 41 79 111 79 20 48 40 78 46 39 20 48 40 79 111 79 21 113 81 22 50 41 21 113 81 23 115 83 21 113 81 22 50 41 20 48 40 7 163 97 8 100 68 6 98 66 8 100 68 7 163 97 9 165 98 9 165 98 10 102 70 8 100 68 10 102 70 9 165 98 11 167 99 11 167 99 12 104 72 10 102 70 12 104 72 11 167 99 13 169 100 13 169 100 14 106 74 12 104 72 14 106 74 13 169 100 15 171 101 15 171 101 16 108 76 14 106 74 16 108 76 15 171 101 17 173 102 17 173 102 18 110 78 16 108 76 18 110 78 17 173 102 19 175 103 117 267 135 5 192 112 113 266 134 5 192 112 117 267 135 4 129 0 4 129 0 3 194 113 5 192 112 3 194 113 4 129 0 2 131 2 2 131 2 1 196 114 3 194 113 1 196 114 2 131 2 0 133 4 0 133 4 271 198 115 1 196 114 271 198 115 0 133 4 270 135 6 270 135 6 269 200 116 271 198 115 269 200 116 270 135 6 268 137 8 268 137 8 267 202 117 269 200 116 267 202 117 268 137 8 266 139 10 266 139 10 265 204 118 267 202 117 265 204 118 266 139 10 264 141 12 264 141 12 263 206 119 265 204 118 263 206 119 264 141 12 262 143 14 262 143 14 261 208 120 263 206 119 261 208 120 262 143 14 260 145 16 260 145 16 259 210 121 261 208 120 259 210 121 260 145 16 258 147 18 258 147 18 257 212 122 259 210 121 257 212 122 258 147 18 256 149 20 256 149 20 255 214 123 257 212 122 255 214 123 256 149 20 254 151 22 254 151 22 253 216 124 255 214 123 253 216 124 254 151 22 252 153 24 252 153 24 251 218 125 253 216 124 251 218 125 252 153 24 250 155 26 250 155 26 249 220 126 251 218 125 249 220 126 250 155 26 248 157 28 90 256 128 247 191 111 88 259 130 247 191 111 90 256 128 246 126 94 246 126 94 245 189 110 247 191 111 245 189 110 246 126 94 244 124 92 244 124 92 243 187 109 245 189 110 243 187 109 244 124 92 242 122 90 242 122 90 241 185 108 243 187 109 241 185 108 242 122 90 240 120 88 240 120 88 239 183 107 241 185 108 239 183 107 240 120 88 238 118 86 238 118 86 237 181 106 239 183 107 237 181 106 238 118 86 236 116 84 236 116 84 235 179 105 237 181 106 235 179 105 236 116 84 234 114 82 19 175 103 232 112 80 18 110 78 232 112 80 19 175 103 233 177 104 234 114 82 233 177 104 235 179 105 233 177 104 234 114 82 232 112 80 219 227 66 220 164 98 218 162 97 220 164 98 219 227 66 221 229 68 221 229 68 222 166 99 220 164 98 222 166 99 221 229 68 223 231 70 223 231 70 224 168 100 222 166 99 224 168 100 223 231 70 225 233 72 225 233 72 226 170 101 224 168 100 226 170 101 225 233 72 227 235 74 227 235 74 228 172 102 226 170 101 228 172 102 227 235 74 229 237 76 229 237 76 230 174 103 228 172 102 230 174 103 229 237 76 231 239 78 109 269 134 217 0 0 105 268 135 217 0 0 109 269 134 216 193 112 216 193 112 215 2 2 217 0 0 215 2 2 216 193 112 214 195 113 214 195 113 213 4 4 215 2 2 213 4 4 214 195 113 212 197 114 212 197 114 211 6 6 213 4 4 211 6 6 212 197 114 210 199 115 210 199 115 209 8 8 211 6 6 209 8 8 210 199 115 208 201 116 208 201 116 207 10 10 209 8 8 207 10 10 208 201 116 206 203 117 206 203 117 205 12 12 207 10 10 205 12 12 206 203 117 204 205 118 204 205 118 203 14 14 205 12 12 203 14 14 204 205 118 202 207 119 202 207 119 201 16 16 203 14 14 201 16 16 202 207 119 200 209 120 200 209 120 199 18 18 201 16 16 199 18 18 200 209 120 198 211 121 198 211 121 197 20 20 199 18 18 197 20 20 198 211 121 196 213 122 196 213 122 195 22 22 197 20 20 195 22 22 196 213 122 194 215 123 194 215 123 193 24 24 195 22 22 193 24 24 194 215 123 192 217 124 192 217 124 191 26 26 193 24 24 191 26 26 192 217 124 190 219 125 190 219 125 189 28 28 191 26 26 189 28 28 190 219 125 188 221 126 86 258 130 187 255 94 84 261 128 187 255 94 86 258 130 186 190 111 186 190 111 185 253 92 187 255 94 185 253 92 186 190 111 184 188 110 184 188 110 183 251 90 185 253 92 183 251 90 184 188 110 182 186 109 182 186 109 181 249 88 183 251 90 181 249 88 182 186 109 180 184 108 180 184 108 179 247 86 181 249 88 179 247 86 180 184 108 178 182 107 178 182 107 177 245 84 179 247 86 177 245 84 178 182 107 176 180 106 176 180 106 175 243 82 177 245 84 175 243 82 176 180 106 174 178 105 231 239 78 172 176 104 230 174 103 172 176 104 231 239 78 173 241 80 174 178 105 173 241 80 175 243 82 173 241 80 174 178 105 172 176 104 158 35 33 161 228 69 159 226 67 161 228 69 158 35 33 160 37 34 123 97 65 66 34 33 127 32 32 66 34 33 123 97 65 67 99 67 162 39 35 165 232 73 163 230 71 165 232 73 162 39 35 164 41 36 164 41 36 167 234 75 165 232 73 167 234 75 164 41 36 166 43 37 166 43 37 169 236 77 167 234 75 169 236 77 166 43 37 168 45 38 168 45 38 171 238 79 169 236 77 171 238 79 168 45 38 170 47 39 99 271 132 156 64 48 97 270 133 156 64 48 99 271 132 157 1 1 157 1 1 154 66 49 156 64 48 154 66 49 157 1 1 155 3 3 155 3 3 152 68 50 154 66 49 152 68 50 155 3 3 153 5 5 153 5 5 150 70 51 152 68 50 150 70 51 153 5 5 151 7 7 151 7 7 148 72 52 150 70 51 148 72 52 151 7 7 149 9 9 149 9 9 146 74 53 148 72 52 146 74 53 149 9 9 147 11 11 147 11 11 144 76 54 146 74 53 144 76 54 147 11 11 145 13 13 145 13 13 142 78 55 144 76 54 142 78 55 145 13 13 143 15 15 143 15 15 140 80 56 142 78 55 140 80 56 143 15 15 141 17 17 141 17 17 138 82 57 140 80 56 138 82 57 141 17 17 139 19 19 139 19 19 136 84 58 138 82 57 136 84 58 139 19 19 137 21 21 137 21 21 134 86 59 136 84 58 134 86 59 137 21 21 135 23 23 135 23 23 132 88 60 134 86 59 132 88 60 135 23 23 133 25 25 160 37 34 163 230 71 161 228 69 163 230 71 160 37 34 162 39 35 131 27 27 128 92 62 130 90 61 128 92 62 131 27 27 129 29 29 81 260 129 124 63 47 80 263 131 124 63 47 81 260 129 126 254 95 126 254 95 120 61 46 124 63 47 120 61 46 126 254 95 122 252 93 122 252 93 116 59 45 120 61 46 116 59 45 122 252 93 118 250 91 118 250 91 112 57 44 116 59 45 112 57 44 118 250 91 114 248 89 114 248 89 108 55 43 112 57 44 108 55 43 114 248 89 110 246 87 110 246 87 104 53 42 108 55 43 104 53 42 110 246 87 106 244 85 106 244 85 100 51 41 104 53 42 100 51 41 106 244 85 102 242 83 102 242 83 96 49 40 100 51 41 96 49 40 102 242 83 98 240 81 170 47 39 98 240 81 171 238 79 98 240 81 170 47 39 96 49 40 115 161 96 6 98 66 119 96 64 6 98 66 115 161 96 7 163 97 107 225 64 218 162 97 111 160 96 218 162 97 107 225 64 219 227 66 101 33 32 159 226 67 103 224 65 159 226 67 101 33 32 158 35 33 121 264 132 4 129 0 117 267 135 4 129 0 121 264 132 65 128 1 113 266 134 216 193 112 109 269 134 216 193 112 113 266 134 5 192 112 105 268 135 157 1 1 99 271 132 157 1 1 105 268 135 217 0 0 97 270 133 64 65 48 125 265 133 64 65 48 97 270 133 156 64 48 133 25 25 130 90 61 132 88 60 130 90 61 133 25 25 131 27 27</p>
                </triangles>
            </mesh>
        </geometry>
        <geometry id="ID28">
            <mesh>
                <source id="ID29">
                    <float_array id="ID30" count="816">-820.654 37.2264 -936.388 -794.117 77.7264 -905.985 -987.37 37.2264 -758.467 -955.641 77.7264 -733.921 -1116.5 37.2264 -550.808 -1080.29 77.7264 -533.343 -1202.43 37.2264 -322.777 -1163.31 77.7264 -312.298 -1242 37.2264 -82.3262 -1201.9 77.7264 -79.3499 -1233.97 37.2264 162.076 -1194.21 77.7264 156.678 -1178.51 37.2264 399.511 -1140.33 77.7264 386.445 -1078.18 37.2264 622.052 -1042.67 77.7264 601.544 -935.597 37.2264 820.195 -905.195 77.7264 793.658 -757.676 37.2264 986.911 -733.13 77.7264 955.182 -550.018 37.2264 1116.04 -532.552 77.7264 1079.83 -81.5355 37.2264 1241.54 -78.5592 77.7264 1201.44 162.867 37.2264 1233.51 157.469 77.7264 1193.76 400.301 37.2264 1178.06 387.236 77.7264 1139.88 622.843 37.2264 1077.72 602.334 77.7264 1042.21 820.986 37.2264 935.138 794.449 77.7264 904.736 987.702 37.2264 757.218 955.973 77.7264 732.672 1116.83 37.2264 549.559 1080.62 77.7264 532.094 1163.64 -85.2736 311.049 1202.76 -44.7736 321.528 1202.23 -85.2736 78.1007 1242.33 -44.7736 81.077 1194.55 -85.2736 -157.927 1234.78 -44.7736 -163.196 1140.67 -85.2736 -387.695 1178.85 -44.7736 -400.76 1043 -85.2736 -602.793 1078.51 -44.7736 -623.301 905.527 -85.2736 -794.907 935.929 -44.7736 -821.444 733.462 -85.2736 -956.431 758.009 -44.7736 -988.16 532.884 -85.2736 -1081.08 550.35 -44.7736 -1117.29 78.8914 -85.2736 -1202.69 81.8677 -44.7736 -1242.79 -157.136 -85.2736 -1195.01 -162.535 -44.7736 -1234.76 -386.904 -85.2736 -1141.12 -399.969 -44.7736 -1179.31 -602.002 -85.2736 -1043.46 -622.51 -44.7736 -1078.97 -794.117 -85.2736 -905.985 -820.654 -44.7736 -936.388 -955.641 -85.2736 -733.921 -987.37 -44.7736 -758.467 -1080.29 -85.2736 -533.343 -1116.5 -44.7736 -550.808 -1163.31 -85.2736 -312.298 -1202.43 -44.7736 -322.777 -1201.9 -85.2736 -79.3499 -1242 -44.7736 -82.3262 -1194.21 -85.2736 156.678 -1233.97 -44.7736 162.076 -1140.33 -85.2736 386.445 -1178.51 -44.7736 399.511 -1042.67 -85.2736 601.544 -1078.18 -44.7736 622.052 -905.195 -85.2736 793.658 -935.597 -44.7736 820.195 -733.13 -85.2736 955.182 -757.676 -44.7736 986.911 -532.552 -85.2736 1079.83 -550.018 -44.7736 1116.04 -78.5592 -85.2736 1201.44 -81.5355 -44.7736 1241.54 157.469 -85.2736 1193.76 162.867 -44.7736 1233.51 387.236 -85.2736 1139.88 400.301 -44.7736 1178.06 602.334 -85.2736 1042.21 622.843 -44.7736 1077.72 794.449 -85.2736 904.736 820.986 -44.7736 935.138 955.973 -85.2736 732.672 987.702 -44.7736 757.218 1080.62 -85.2736 532.094 1116.83 -44.7736 549.559 393.934 -85.2736 -1047.38 379.59 -44.7736 -1009.3 182.392 -85.2736 -1104.05 175.776 -44.7736 -1063.9 379.59 37.2264 -1009.3 175.776 37.2264 -1063.9 393.934 77.7264 -1047.38 182.392 77.7264 -1104.05 422.362 77.7264 -1122.59 195.365 77.7264 -1183.4 436.093 37.2264 -1160.32 202.335 37.2264 -1222.94 436.093 -44.7736 -1160.32 202.335 -44.7736 -1222.94 422.362 -85.2736 -1122.59 195.365 -85.2736 -1183.4 1085.4 -85.2736 290.089 -393.601 -85.2736 1046.14 1046.28 -44.7736 279.61 -379.258 -44.7736 1008.05 1121.3 -85.2736 72.9846 -182.06 -85.2736 1102.8 1081.08 -44.7736 70.4912 -175.444 -44.7736 1062.65 1114.08 -85.2736 -147.39 -379.258 37.2264 1008.05 1073.85 -44.7736 -142.121 -175.444 37.2264 1062.65 1063.82 -85.2736 -361.693 -393.601 77.7264 1046.14 1025.64 -44.7736 -348.628 -182.06 77.7264 1102.8 973.19 -85.2736 -562.483 -422.03 77.7264 1121.34 938.286 -44.7736 -542.328 -195.033 77.7264 1182.15 844.593 -85.2736 -741.35 -435.761 37.2264 1159.07 814.191 -44.7736 -714.813 -202.003 37.2264 1221.69 684.111 -85.2736 -892.007 -435.761 -44.7736 1159.07 659.436 -44.7736 -859.795 -202.003 -44.7736 1221.69 496.858 -85.2736 -1008.43 -422.03 -85.2736 1121.34 478.91 -44.7736 -972.341 -195.033 -85.2736 1182.15 73.7753 -85.2736 -1121.76 71.2819 -44.7736 -1081.54 -146.599 -85.2736 -1114.54 -141.33 -44.7736 -1074.3 -360.903 -85.2736 -1064.28 -347.837 -44.7736 -1026.1 -561.692 -85.2736 -973.648 -541.538 -44.7736 -938.745 -740.56 -85.2736 -845.052 -714.023 -44.7736 -814.65 -891.216 -85.2736 -684.57 -859.004 -44.7736 -659.894 -1007.63 -85.2736 -497.316 -971.55 -44.7736 -479.368 -1085.07 -85.2736 -291.338 -1045.95 -44.7736 -280.859 -1120.97 -85.2736 -74.2337 -1080.75 -44.7736 -71.7404 -1113.75 -85.2736 146.141 -1073.51 -44.7736 140.872 -1063.49 -85.2736 360.444 -1025.31 -44.7736 347.379 -972.858 -85.2736 561.234 -937.954 -44.7736 541.079 -844.261 -85.2736 740.101 -813.859 -44.7736 713.564 -683.779 -85.2736 890.758 -659.104 -44.7736 858.546 -496.526 -85.2736 1007.18 -478.577 -44.7736 971.091 -73.4431 -85.2736 1120.51 -70.9497 -44.7736 1080.29 146.931 -85.2736 1113.29 141.663 -44.7736 1073.06 361.235 -85.2736 1063.03 348.169 -44.7736 1024.85 562.025 -85.2736 972.399 541.87 -44.7736 937.495 740.892 -85.2736 843.803 714.355 -44.7736 813.401 891.549 -85.2736 683.321 859.337 -44.7736 658.645 1007.97 -85.2736 496.067 971.882 -44.7736 478.119 1085.4 77.7264 290.089 1046.28 37.2264 279.61 1121.3 77.7264 72.9846 1081.08 37.2264 70.4912 1114.08 77.7264 -147.39 1073.85 37.2264 -142.121 1063.82 77.7264 -361.693 1025.64 37.2264 -348.628 973.19 77.7264 -562.483 938.286 37.2264 -542.328 844.593 77.7264 -741.35 814.191 37.2264 -714.813 684.111 77.7264 -892.007 659.436 37.2264 -859.795 496.858 77.7264 -1008.43 478.91 37.2264 -972.341 73.7753 77.7264 -1121.76 71.2819 37.2264 -1081.54 -146.599 77.7264 -1114.54 -141.33 37.2264 -1074.3 -360.903 77.7264 -1064.28 -347.837 37.2264 -1026.1 -561.692 77.7264 -973.648 -541.538 37.2264 -938.745 -740.56 77.7264 -845.052 -714.023 37.2264 -814.65 -891.216 77.7264 -684.57 -859.004 37.2264 -659.894 -1007.63 77.7264 -497.316 -971.55 37.2264 -479.368 -1085.07 77.7264 -291.338 -1045.95 37.2264 -280.859 -1120.97 77.7264 -74.2337 -1080.75 37.2264 -71.7404 -1113.75 77.7264 146.141 -1073.51 37.2264 140.872 -1063.49 77.7264 360.444 -1025.31 37.2264 347.379 -972.858 77.7264 561.234 -937.954 37.2264 541.079 -844.261 77.7264 740.101 -813.859 37.2264 713.564 -683.779 77.7264 890.758 -659.104 37.2264 858.546 -496.526 77.7264 1007.18 -478.577 37.2264 971.091 -73.4431 77.7264 1120.51 -70.9497 37.2264 1080.29 146.931 77.7264 1113.29 141.663 37.2264 1073.06 361.235 77.7264 1063.03 348.169 37.2264 1024.85 562.025 77.7264 972.399 541.87 37.2264 937.495 740.892 77.7264 843.803 714.355 37.2264 813.401 891.549 77.7264 683.321 859.337 37.2264 658.645 1007.97 77.7264 496.067 971.882 37.2264 478.119 1202.76 37.2264 321.528 1163.64 77.7264 311.049 1242.33 37.2264 81.077 1202.23 77.7264 78.1007 1234.78 37.2264 -163.196 1194.55 77.7264 -157.927 1178.85 37.2264 -400.76 1140.67 77.7264 -387.695 1078.51 37.2264 -623.301 1043 77.7264 -602.793 935.929 37.2264 -821.444 905.527 77.7264 -794.907 758.009 37.2264 -988.16 733.462 77.7264 -956.431 550.35 37.2264 -1117.29 532.884 77.7264 -1081.08 81.8677 37.2264 -1242.79 78.8914 77.7264 -1202.69 -162.535 37.2264 -1234.76 -157.136 77.7264 -1195.01 -399.969 37.2264 -1179.31 -386.904 77.7264 -1141.12 -622.51 37.2264 -1078.97 -602.002 77.7264 -1043.46</float_array>
                    <technique_common>
                        <accessor count="272" source="#ID30" stride="3">
                            <param name="X" type="float"/>
                            <param name="Y" type="float"/>
                            <param name="Z" type="float"/>
                        </accessor>
                    </technique_common>
                </source>
                <source id="ID31">
                    <float_array id="ID32" count="816">-0.0628716 -0.923049 0.379511 -0.150512 -0.38038 0.912501 -0.037679 -0.923411 0.381958 -0.0299967 -0.381067 0.924061 0.0378077 -0.923134 0.382614 0.151024 -0.381197 0.912075 0.111609 -0.923473 0.367071 0.324703 -0.383341 0.864649 0.179196 -0.924682 0.335936 0.487827 -0.384699 0.783601 0.242369 -0.924172 0.295235 0.632179 -0.381692 0.674286 0.296849 -0.923277 0.243804 0.751616 -0.38086 0.538535 0.338939 -0.923215 0.181092 0.841824 -0.381825 0.3815 0.36639 -0.923787 0.111247 0.899867 -0.382483 0.209635 0.381664 -0.923536 0.0376076 0.923665 -0.38195 0.0309281 0.380897 -0.923863 -0.0373439 0.91128 -0.383012 -0.151232 0.366182 -0.923823 -0.111629 0.864458 -0.383329 -0.325226 0.335936 -0.924682 -0.179196 0.783601 -0.384699 -0.487827 0.295235 -0.924172 -0.242369 0.674286 -0.381692 -0.632178 0.243804 -0.923277 -0.296849 0.538535 -0.38086 -0.751616 0.154919 -0.944419 -0.289953 0.379981 -0.456324 -0.804601 0.178984 -0.861101 -0.475889 0.341122 -0.25143 -0.90577 -0.150324 0.38068 0.912406 -0.0627546 0.922919 0.379846 -0.090531 0.381533 0.919911 -0.0125906 0.923215 0.384078 0.0906948 0.38086 0.920174 0.0627648 0.923277 0.378973 0.267973 0.381692 0.884591 0.134542 0.924172 0.357498 0.434809 0.384699 0.814216 0.201372 0.924682 0.32313 0.586547 0.383341 0.713451 0.262124 0.923473 0.280158 0.714443 0.381197 0.586737 0.312478 0.923134 0.22401 0.815285 0.381066 0.436003 0.349355 0.923536 0.158218 0.884159 0.382483 0.268271 0.372937 0.923787 0.086805 0.919748 0.381813 0.0910058 0.38315 0.923597 0.0128619 0.91947 0.382678 -0.0901789 0.377196 0.924005 -0.0627593 0.884 0.382507 -0.268763 0.357498 0.924172 -0.134542 0.814216 0.384699 -0.434809 0.32313 0.924682 -0.201372 0.713451 0.383341 -0.586547 0.280158 0.923473 -0.262124 0.586737 0.381197 -0.714443 0.22401 0.923134 -0.312478 0.427811 0.326261 -0.84293 0.189357 0.888383 -0.418233 0.304511 0.502473 -0.809193 0.0893162 0.9672 -0.237796 0.0613977 0.924343 -0.37659 0.15277 0.382035 -0.911433 0.0376655 0.923989 -0.380561 0.0306611 0.382409 -0.923484 -0.037755 0.923978 -0.380579 -0.15126 0.382955 -0.911299 -0.111129 0.923816 -0.366352 -0.324714 0.382011 -0.865233 -0.180505 0.923598 -0.338209 -0.488582 0.382003 -0.78445 -0.243391 0.923604 -0.29617 -0.631915 0.382543 -0.674051 -0.295449 0.924005 -0.242745 -0.750627 0.382887 -0.538477 -0.337729 0.92375 -0.180622 -0.841878 0.382242 -0.380963 -0.366362 0.923829 -0.110992 -0.899781 0.382529 -0.209916 -0.38128 0.923688 -0.0377626 -0.923514 0.382395 -0.029939 -0.380578 0.923978 0.037755 -0.911299 0.382955 0.15126 -0.366352 0.923816 0.111129 -0.865234 0.38201 0.324714 -0.338209 0.923597 0.180505 -0.78445 0.382003 0.488582 -0.29617 0.923604 0.243391 -0.674051 0.382543 0.631915 -0.242745 0.924005 0.295449 -0.538477 0.382887 0.750627 -0.154745 0.944795 0.288817 -0.379077 0.458074 0.804033 -0.177874 0.862417 0.473917 -0.337365 0.253447 0.906614 0.153705 -0.383803 -0.910533 0.0627296 -0.92364 -0.378094 0.0916784 -0.383017 -0.919181 0.012103 -0.923744 -0.382819 -0.091139 -0.382887 -0.919288 -0.0625468 -0.924005 -0.377231 -0.267901 -0.382543 -0.884245 -0.134841 -0.923604 -0.35885 -0.435166 -0.382003 -0.815294 -0.202687 -0.923598 -0.325401 -0.587048 -0.382011 -0.713752 -0.261741 -0.923816 -0.279383 -0.713653 -0.382955 -0.586553 -0.310741 -0.923978 -0.222946 -0.814812 -0.382394 -0.435725 -0.3491 -0.923688 -0.157892 -0.884226 -0.382529 -0.267985 -0.372786 -0.923829 -0.0870112 -0.919581 -0.382242 -0.0908982 -0.382794 -0.92375 -0.0123922 -0.919288 -0.382888 0.0911388 -0.377231 -0.924005 0.0625467 -0.884245 -0.382543 0.267901 -0.358851 -0.923604 0.134842 -0.815294 -0.382003 0.435166 -0.325401 -0.923597 0.202687 -0.713752 -0.382011 0.587049 -0.279383 -0.923816 0.261741 -0.586553 -0.382955 0.713653 -0.222946 -0.923978 0.310741 -0.426547 -0.327415 0.843123 -0.188541 -0.889234 0.416791 -0.30242 -0.504613 0.808646 -0.0892109 -0.967727 0.235681 0.0628716 -0.923049 -0.379511 0.150513 -0.38038 -0.9125 0.0376792 -0.923411 -0.381958 0.029997 -0.381068 -0.92406 -0.0378077 -0.923134 -0.382614 -0.151024 -0.381197 -0.912075 -0.111609 -0.923473 -0.367071 -0.324704 -0.383341 -0.864649 -0.179196 -0.924682 -0.335936 -0.487827 -0.384699 -0.783601 -0.242369 -0.924172 -0.295235 -0.632178 -0.381692 -0.674286 -0.296849 -0.923277 -0.243804 -0.751616 -0.38086 -0.538535 -0.338939 -0.923215 -0.181092 -0.841824 -0.381825 -0.3815 -0.36639 -0.923787 -0.111247 -0.899867 -0.382482 -0.209635 -0.381664 -0.923535 -0.0376076 -0.924063 -0.381066 -0.0299348 -0.382614 -0.923134 0.0378077 -0.912075 -0.381197 0.151024 -0.367071 -0.923473 0.111609 -0.864649 -0.383341 0.324703 -0.335936 -0.924682 0.179196 -0.783601 -0.3847 0.487827 -0.295235 -0.924172 0.242369 -0.674286 -0.381692 0.632178 -0.243804 -0.923277 0.296849 -0.538535 -0.38086 0.751616 -0.154919 -0.944419 0.289953 -0.379982 -0.456323 0.804601 -0.178985 -0.8611 0.475889 -0.341123 -0.25143 0.905769 0.150325 0.38068 -0.912406 0.0627548 0.922919 -0.379846 0.0905315 0.381534 -0.919911 0.0125906 0.923215 -0.384077 -0.0906947 0.38086 -0.920174 -0.0627647 0.923277 -0.378973 -0.267973 0.381692 -0.884591 -0.134542 0.924172 -0.357498 -0.434809 0.384699 -0.814216 -0.201372 0.924682 -0.323131 -0.586547 0.38334 -0.713451 -0.262124 0.923473 -0.280158 -0.714443 0.381197 -0.586737 -0.312478 0.923134 -0.22401 -0.815285 0.381066 -0.436003 -0.349355 0.923535 -0.158218 -0.88416 0.382482 -0.268271 -0.372938 0.923787 -0.0868051 -0.919803 0.381824 -0.0904057 -0.384078 0.923215 -0.0125906 -0.920174 0.38086 0.0906948 -0.378973 0.923277 0.0627648 -0.884591 0.381692 0.267973 -0.357498 0.924172 0.134542 -0.814216 0.384699 0.434809 -0.32313 0.924682 0.201372 -0.713451 0.383341 0.586547 -0.280158 0.923473 0.262124 -0.586737 0.381197 0.714443 -0.22401 0.923134 0.312479 -0.427811 0.326261 0.84293 -0.189357 0.888383 0.418234 -0.304511 0.502473 0.809194 -0.0893162 0.9672 0.237796 -0.0613983 0.924343 0.37659 -0.15277 0.382035 0.911433 -0.0376655 0.923989 0.380561 -0.0306608 0.38241 0.923484 0.037755 0.923978 0.380578 0.15126 0.382955 0.911299 0.111129 0.923816 0.366352 0.324714 0.38201 0.865234 0.180505 0.923597 0.338209 0.488582 0.382003 0.78445 0.243391 0.923604 0.296171 0.631915 0.382543 0.674051 0.295449 0.924005 0.242745 0.750627 0.382887 0.538477 0.337729 0.92375 0.180622 0.841878 0.382242 0.380962 0.366362 0.923829 0.110992 0.899781 0.38253 0.209916 0.38128 0.923688 0.0377626 0.923514 0.382394 0.0299392 0.380579 0.923978 -0.037755 0.911299 0.382955 -0.15126 0.366352 0.923816 -0.111129 0.865233 0.382011 -0.324714 0.338209 0.923598 -0.180505 0.78445 0.382003 -0.488582 0.29617 0.923604 -0.243391 0.674051 0.382543 -0.631915 0.242745 0.924005 -0.295449 0.538477 0.382887 -0.750627 0.154745 0.944795 -0.288817 0.379077 0.458074 -0.804033 0.177874 0.862417 -0.473917 0.337366 0.253447 -0.906614 -0.153704 -0.383802 0.910533 -0.0627296 -0.92364 0.378094 -0.091678 -0.383017 0.919181 -0.0121032 -0.923744 0.382818 0.0911388 -0.382888 0.919288 0.0625468 -0.924005 0.377231 0.267901 -0.382543 0.884245 0.134842 -0.923604 0.358851 0.435166 -0.382003 0.815294 0.202687 -0.923597 0.325401 0.587049 -0.38201 0.713752 0.261742 -0.923816 0.279383 0.713653 -0.382955 0.586553 0.310741 -0.923978 0.222946 0.814812 -0.382394 0.435725 0.349099 -0.923688 0.157892 0.884226 -0.38253 0.267985 0.372786 -0.923829 0.0870111 0.919581 -0.382242 0.0908984 0.382795 -0.92375 0.0123921 0.919289 -0.382887 -0.091139 0.377231 -0.924005 -0.0625468 0.884245 -0.382543 -0.267901 0.35885 -0.923604 -0.134841 0.815294 -0.382003 -0.435166 0.325401 -0.923597 -0.202687 0.713752 -0.382011 -0.587048 0.279383 -0.923816 -0.261741 0.586553 -0.382955 -0.713653 0.222946 -0.923978 -0.310741 0.426547 -0.327415 -0.843123 0.188541 -0.889234 -0.416791 0.30242 -0.504613 -0.808646 0.0892109 -0.967727 -0.235681</float_array>
                    <technique_common>
                        <accessor count="272" source="#ID32" stride="3">
                            <param name="X" type="float"/>
                            <param name="Y" type="float"/>
                            <param name="Z" type="float"/>
                        </accessor>
                    </technique_common>
                </source>
                <source id="ID33">
                    <float_array id="ID34" count="272">0.53125 0 0.53125 0.248047 0.5625 0 0.5625 0.248047 0.625 0 0.625 0.248047 0.6875 0 0.6875 0.248047 0.75 0 0.75 0.248047 0.8125 0 0.8125 0.248047 0.875 0 0.875 0.248047 0.9375 0 0.9375 0.248047 1 0 1 0.248047 1.0625 0 1.0625 0.248047 1.125 0 1.125 0.248047 1.1875 0 1.1875 0.248047 1.25 0 1.25 0.248047 1.3125 0 1.3125 0.248047 1.375 0 1.375 0.248047 1.4375 0 1.4375 0.248047 1.46875 0 1.46875 0.248047 0.53125 0.752014 0.53125 1 0.5625 0.752014 0.5625 1 0.625 0.752014 0.625 1 0.6875 0.752014 0.6875 1 0.75 0.752014 0.75 1 0.8125 0.752014 0.8125 1 0.875 0.752014 0.875 1 0.9375 0.752014 0.9375 1 1 0.752014 1 1 1.0625 0.752014 1.0625 1 1.125 0.752014 1.125 1 1.1875 0.752014 1.1875 1 1.25 0.752014 1.25 1 1.3125 0.752014 1.3125 1 1.375 0.752014 1.375 1 1.4375 0.752014 1.4375 1 1.46875 0.752014 1.46875 1 -0.468689 0 -0.468689 0.248047 -0.437439 0 -0.437439 0.248047 -0.374939 0 -0.374939 0.248047 -0.312439 0 -0.312439 0.248047 -0.249939 0 -0.249939 0.248047 -0.187439 0 -0.187439 0.248047 -0.124939 0 -0.124939 0.248047 -0.062439 0 -0.062439 0.248047 0 0 0 0.248047 0.0625 0 0.0625 0.248047 0.125 0 0.125 0.248047 0.1875 0 0.1875 0.248047 0.25 0 0.25 0.248047 0.3125 0 0.3125 0.248047 0.375 0 0.375 0.248047 0.4375 0 0.4375 0.248047 0.46875 0 0.46875 0.248047 -0.468689 0.752014 -0.468689 1 -0.437439 0.752014 -0.437439 1 -0.374939 0.752014 -0.374939 1 -0.312439 0.752014 -0.312439 1 -0.249939 0.752014 -0.249939 1 -0.187439 0.752014 -0.187439 1 -0.124939 0.752014 -0.124939 1 -0.062439 0.752014 -0.062439 1 0 0.752014 0 1 0.0625 0.752014 0.0625 1 0.125 0.752014 0.125 1 0.1875 0.752014 0.1875 1 0.25 0.752014 0.25 1 0.3125 0.752014 0.3125 1 0.375 0.752014 0.375 1 0.4375 0.752014 0.4375 1 0.46875 0.752014 0.46875 1</float_array>
                    <technique_common>
                        <accessor count="136" source="#ID34" stride="2">
                            <param name="S" type="float"/>
                            <param name="T" type="float"/>
                        </accessor>
                    </technique_common>
                </source>
                <vertices id="ID35">
                    <input semantic="POSITION" source="#ID29"/>
                </vertices>
                <triangles count="512" material="Material1">
                    <input offset="0" semantic="VERTEX" source="#ID35"/>
                    <input offset="1" semantic="NORMAL" source="#ID31"/>
                    <input offset="2" semantic="TEXCOORD" source="#ID33" set="0"/>
                    <p>82 2 2 139 1 1 143 0 0 139 1 1 82 2 2 83 3 3 84 4 4 83 3 3 82 2 2 83 3 3 84 4 4 85 5 5 86 6 6 85 5 5 84 4 4 85 5 5 86 6 6 87 7 7 88 8 8 87 7 7 86 6 6 87 7 7 88 8 8 89 9 9 90 10 10 89 9 9 88 8 8 89 9 9 90 10 10 91 11 11 92 12 12 91 11 11 90 10 10 91 11 11 92 12 12 93 13 13 94 14 14 93 13 13 92 12 12 93 13 13 94 14 14 95 15 15 36 16 16 95 15 15 94 14 14 95 15 15 36 16 16 37 17 17 38 18 18 37 17 17 36 16 16 37 17 17 38 18 18 39 19 19 40 20 20 39 19 19 38 18 18 39 19 19 40 20 20 41 21 21 42 22 22 41 21 21 40 20 20 41 21 21 42 22 22 43 23 23 44 24 24 43 23 23 42 22 22 43 23 23 44 24 24 45 25 25 46 26 26 45 25 25 44 24 24 45 25 25 46 26 26 47 27 27 48 28 28 47 27 27 46 26 26 47 27 27 48 28 28 49 29 29 50 30 30 49 29 29 48 28 28 49 29 29 50 30 30 51 31 31 110 32 32 51 31 31 50 30 30 51 31 31 110 32 32 108 33 33 22 36 36 131 35 35 135 34 34 131 35 35 22 36 36 23 37 37 24 38 38 23 37 37 22 36 36 23 37 37 24 38 38 25 39 39 26 40 40 25 39 39 24 38 38 25 39 39 26 40 40 27 41 41 28 42 42 27 41 41 26 40 40 27 41 41 28 42 42 29 43 43 30 44 44 29 43 43 28 42 42 29 43 43 30 44 44 31 45 45 32 46 46 31 45 45 30 44 44 31 45 45 32 46 46 33 47 47 34 48 48 33 47 47 32 46 46 33 47 47 34 48 48 35 49 49 248 50 50 35 49 49 34 48 48 35 49 49 248 50 50 249 51 51 250 52 52 249 51 51 248 50 50 249 51 51 250 52 52 251 53 53 252 54 54 251 53 53 250 52 52 251 53 53 252 54 54 253 55 55 254 56 56 253 55 55 252 54 54 253 55 55 254 56 56 255 57 57 256 58 58 255 57 57 254 56 56 255 57 57 256 58 58 257 59 59 258 60 60 257 59 59 256 58 58 257 59 59 258 60 60 259 61 61 260 62 62 259 61 61 258 60 60 259 61 61 260 62 62 261 63 63 262 64 64 261 63 63 260 62 62 261 63 63 262 64 64 263 65 65 106 66 66 263 65 65 262 64 64 263 65 65 106 66 66 104 67 67 234 70 37 123 69 34 127 68 35 123 69 34 234 70 37 235 71 36 236 72 39 235 71 36 234 70 37 235 71 36 236 72 39 237 73 38 238 74 41 237 73 38 236 72 39 237 73 38 238 74 41 239 75 40 240 76 43 239 75 40 238 74 41 239 75 40 240 76 43 241 77 42 242 78 45 241 77 42 240 76 43 241 77 42 242 78 45 243 79 44 244 80 47 243 79 44 242 78 45 243 79 44 244 80 47 245 81 46 246 82 49 245 81 46 244 80 47 245 81 46 246 82 49 247 83 48 188 84 51 247 83 48 246 82 49 247 83 48 188 84 51 189 85 50 190 86 53 189 85 50 188 84 51 189 85 50 190 86 53 191 87 52 192 88 55 191 87 52 190 86 53 191 87 52 192 88 55 193 89 54 194 90 57 193 89 54 192 88 55 193 89 54 194 90 57 195 91 56 196 92 59 195 91 56 194 90 57 195 91 56 196 92 59 197 93 58 198 94 61 197 93 58 196 92 59 197 93 58 198 94 61 199 95 60 200 96 63 199 95 60 198 94 61 199 95 60 200 96 63 201 97 62 202 98 65 201 97 62 200 96 63 201 97 62 202 98 65 203 99 64 102 100 67 203 99 64 202 98 65 203 99 64 102 100 67 100 101 66 175 104 3 117 103 0 119 102 1 117 103 0 175 104 3 174 105 2 177 106 5 174 105 2 175 104 3 174 105 2 177 106 5 176 107 4 179 108 7 176 107 4 177 106 5 176 107 4 179 108 7 178 109 6 181 110 9 178 109 6 179 108 7 178 109 6 181 110 9 180 111 8 183 112 11 180 111 8 181 110 9 180 111 8 183 112 11 182 113 10 185 114 13 182 113 10 183 112 11 182 113 10 185 114 13 184 115 12 187 116 15 184 115 12 185 114 13 184 115 12 187 116 15 186 117 14 114 118 17 186 117 14 187 116 15 186 117 14 114 118 17 112 119 16 118 120 19 112 119 16 114 118 17 112 119 16 118 120 19 116 121 18 122 122 21 116 121 18 118 120 19 116 121 18 122 122 21 120 123 20 126 124 23 120 123 20 122 122 21 120 123 20 126 124 23 124 125 22 130 126 25 124 125 22 126 124 23 124 125 22 130 126 25 128 127 24 134 128 27 128 127 24 130 126 25 128 127 24 134 128 27 132 129 26 138 130 29 132 129 26 134 128 27 132 129 26 138 130 29 136 131 28 142 132 31 136 131 28 138 130 29 136 131 28 142 132 31 140 133 30 97 134 33 140 133 30 142 132 31 140 133 30 97 134 33 96 135 32 52 138 70 109 137 69 111 136 68 109 137 69 52 138 70 53 139 71 54 140 72 53 139 71 52 138 70 53 139 71 54 140 72 55 141 73 56 142 74 55 141 73 54 140 72 55 141 73 56 142 74 57 143 75 58 144 76 57 143 75 56 142 74 57 143 75 58 144 76 59 145 77 60 146 78 59 145 77 58 144 76 59 145 77 60 146 78 61 147 79 62 148 80 61 147 79 60 146 78 61 147 79 62 148 80 63 149 81 64 150 82 63 149 81 62 148 80 63 149 81 64 150 82 65 151 83 66 152 84 65 151 83 64 150 82 65 151 83 66 152 84 67 153 85 68 154 86 67 153 85 66 152 84 67 153 85 68 154 86 69 155 87 70 156 88 69 155 87 68 154 86 69 155 87 70 156 88 71 157 89 72 158 90 71 157 89 70 156 88 71 157 89 72 158 90 73 159 91 74 160 92 73 159 91 72 158 90 73 159 91 74 160 92 75 161 93 76 162 94 75 161 93 74 160 92 75 161 93 76 162 94 77 163 95 78 164 96 77 163 95 76 162 94 77 163 95 78 164 96 79 165 97 80 166 98 79 165 97 78 164 96 79 165 97 80 166 98 81 167 99 141 168 100 81 167 99 80 166 98 81 167 99 141 168 100 137 169 101 264 172 104 105 171 103 107 170 102 105 171 103 264 172 104 265 173 105 266 174 106 265 173 105 264 172 104 265 173 105 266 174 106 267 175 107 268 176 108 267 175 107 266 174 106 267 175 107 268 176 108 269 177 109 270 178 110 269 177 109 268 176 108 269 177 109 270 178 110 271 179 111 0 180 112 271 179 111 270 178 110 271 179 111 0 180 112 1 181 113 2 182 114 1 181 113 0 180 112 1 181 113 2 182 114 3 183 115 4 184 116 3 183 115 2 182 114 3 183 115 4 184 116 5 185 117 6 186 118 5 185 117 4 184 116 5 185 117 6 186 118 7 187 119 8 188 120 7 187 119 6 186 118 7 187 119 8 188 120 9 189 121 10 190 122 9 189 121 8 188 120 9 189 121 10 190 122 11 191 123 12 192 124 11 191 123 10 190 122 11 191 123 12 192 124 13 193 125 14 194 126 13 193 125 12 192 124 13 193 125 14 194 126 15 195 127 16 196 128 15 195 127 14 194 126 15 195 127 16 196 128 17 197 129 18 198 130 17 197 129 16 196 128 17 197 129 18 198 130 19 199 131 20 200 132 19 199 131 18 198 130 19 199 131 20 200 132 21 201 133 133 202 134 21 201 133 20 200 132 21 201 133 133 202 134 129 203 135 204 206 105 101 205 102 103 204 103 101 205 102 204 206 105 205 207 104 206 208 107 205 207 104 204 206 105 205 207 104 206 208 107 207 209 106 208 210 109 207 209 106 206 208 107 207 209 106 208 210 109 209 211 108 210 212 111 209 211 108 208 210 109 209 211 108 210 212 111 211 213 110 212 214 113 211 213 110 210 212 111 211 213 110 212 214 113 213 215 112 214 216 115 213 215 112 212 214 113 213 215 112 214 216 115 215 217 114 216 218 117 215 217 114 214 216 115 215 217 114 216 218 117 217 219 116 218 220 119 217 219 116 216 218 117 217 219 116 218 220 119 219 221 118 220 222 121 219 221 118 218 220 119 219 221 118 220 222 121 221 223 120 222 224 123 221 223 120 220 222 121 221 223 120 222 224 123 223 225 122 224 226 125 223 225 122 222 224 123 223 225 122 224 226 125 225 227 124 226 228 127 225 227 124 224 226 125 225 227 124 226 228 127 227 229 126 228 230 129 227 229 126 226 228 127 227 229 126 228 230 129 229 231 128 230 232 131 229 231 128 228 230 129 229 231 128 230 232 131 231 233 130 232 234 133 231 233 130 230 232 131 231 233 130 232 234 133 233 235 132 125 236 135 233 235 132 232 234 133 233 235 132 125 236 135 121 237 134 145 240 71 98 239 68 99 238 69 98 239 68 145 240 71 144 241 70 147 242 73 144 241 70 145 240 71 144 241 70 147 242 73 146 243 72 149 244 75 146 243 72 147 242 73 146 243 72 149 244 75 148 245 74 151 246 77 148 245 74 149 244 75 148 245 74 151 246 77 150 247 76 153 248 79 150 247 76 151 246 77 150 247 76 153 248 79 152 249 78 155 250 81 152 249 78 153 248 79 152 249 78 155 250 81 154 251 80 157 252 83 154 251 80 155 250 81 154 251 80 157 252 83 156 253 82 159 254 85 156 253 82 157 252 83 156 253 82 159 254 85 158 255 84 161 256 87 158 255 84 159 254 85 158 255 84 161 256 87 160 257 86 163 258 89 160 257 86 161 256 87 160 257 86 163 258 89 162 259 88 165 260 91 162 259 88 163 258 89 162 259 88 165 260 91 164 261 90 167 262 93 164 261 90 165 260 91 164 261 90 167 262 93 166 263 92 169 264 95 166 263 92 167 262 93 166 263 92 169 264 95 168 265 94 171 266 97 168 265 94 169 264 95 168 265 94 171 266 97 170 267 96 173 268 99 170 267 96 171 266 97 170 267 96 173 268 99 172 269 98 115 270 101 172 269 98 173 268 99 172 269 98 115 270 101 113 271 100 78 164 96 170 267 96 80 166 98 170 267 96 78 164 96 168 265 94 76 162 94 168 265 94 78 164 96 168 265 94 76 162 94 166 263 92 74 160 92 166 263 92 76 162 94 166 263 92 74 160 92 164 261 90 72 158 90 164 261 90 74 160 92 164 261 90 72 158 90 162 259 88 70 156 88 162 259 88 72 158 90 162 259 88 70 156 88 160 257 86 68 154 86 160 257 86 70 156 88 160 257 86 68 154 86 158 255 84 66 152 84 158 255 84 68 154 86 158 255 84 66 152 84 156 253 82 64 150 82 156 253 82 66 152 84 156 253 82 64 150 82 154 251 80 62 148 80 154 251 80 64 150 82 154 251 80 62 148 80 152 249 78 60 146 78 152 249 78 62 148 80 152 249 78 60 146 78 150 247 76 58 144 76 150 247 76 60 146 78 150 247 76 58 144 76 148 245 74 56 142 74 148 245 74 58 144 76 148 245 74 56 142 74 146 243 72 54 140 72 146 243 72 56 142 74 146 243 72 54 140 72 144 241 70 52 138 70 144 241 70 54 140 72 144 241 70 52 138 70 98 239 68 111 136 68 98 239 68 52 138 70 18 198 130 79 165 97 20 200 132 79 165 97 18 198 130 77 163 95 16 196 128 77 163 95 18 198 130 77 163 95 16 196 128 75 161 93 14 194 126 75 161 93 16 196 128 75 161 93 14 194 126 73 159 91 12 192 124 73 159 91 14 194 126 73 159 91 12 192 124 71 157 89 10 190 122 71 157 89 12 192 124 71 157 89 10 190 122 69 155 87 8 188 120 69 155 87 10 190 122 69 155 87 8 188 120 67 153 85 6 186 118 67 153 85 8 188 120 67 153 85 6 186 118 65 151 83 4 184 116 65 151 83 6 186 118 65 151 83 4 184 116 63 149 81 2 182 114 63 149 81 4 184 116 63 149 81 2 182 114 61 147 79 0 180 112 61 147 79 2 182 114 61 147 79 0 180 112 59 145 77 270 178 110 59 145 77 0 180 112 59 145 77 270 178 110 57 143 75 268 176 108 57 143 75 270 178 110 57 143 75 268 176 108 55 141 73 266 174 106 55 141 73 268 176 108 55 141 73 266 174 106 53 139 71 264 172 104 53 139 71 266 174 106 53 139 71 264 172 104 109 137 69 107 170 102 109 137 69 264 172 104 230 232 131 19 199 131 232 234 133 19 199 131 230 232 131 17 197 129 228 230 129 17 197 129 230 232 131 17 197 129 228 230 129 15 195 127 226 228 127 15 195 127 228 230 129 15 195 127 226 228 127 13 193 125 224 226 125 13 193 125 226 228 127 13 193 125 224 226 125 11 191 123 222 224 123 11 191 123 224 226 125 11 191 123 222 224 123 9 189 121 220 222 121 9 189 121 222 224 123 9 189 121 220 222 121 7 187 119 218 220 119 7 187 119 220 222 121 7 187 119 218 220 119 5 185 117 216 218 117 5 185 117 218 220 119 5 185 117 216 218 117 3 183 115 214 216 115 3 183 115 216 218 117 3 183 115 214 216 115 1 181 113 212 214 113 1 181 113 214 216 115 1 181 113 212 214 113 271 179 111 210 212 111 271 179 111 212 214 113 271 179 111 210 212 111 269 177 109 208 210 109 269 177 109 210 212 111 269 177 109 208 210 109 267 175 107 206 208 107 267 175 107 208 210 109 267 175 107 206 208 107 265 173 105 204 206 105 265 173 105 206 208 107 265 173 105 204 206 105 105 171 103 103 204 103 105 171 103 204 206 105 171 266 97 231 233 130 173 268 99 231 233 130 171 266 97 229 231 128 169 264 95 229 231 128 171 266 97 229 231 128 169 264 95 227 229 126 167 262 93 227 229 126 169 264 95 227 229 126 167 262 93 225 227 124 165 260 91 225 227 124 167 262 93 225 227 124 165 260 91 223 225 122 163 258 89 223 225 122 165 260 91 223 225 122 163 258 89 221 223 120 161 256 87 221 223 120 163 258 89 221 223 120 161 256 87 219 221 118 159 254 85 219 221 118 161 256 87 219 221 118 159 254 85 217 219 116 157 252 83 217 219 116 159 254 85 217 219 116 157 252 83 215 217 114 155 250 81 215 217 114 157 252 83 215 217 114 155 250 81 213 215 112 153 248 79 213 215 112 155 250 81 213 215 112 153 248 79 211 213 110 151 246 77 211 213 110 153 248 79 211 213 110 151 246 77 209 211 108 149 244 75 209 211 108 151 246 77 209 211 108 149 244 75 207 209 106 147 242 73 207 209 106 149 244 75 207 209 106 147 242 73 205 207 104 145 240 71 205 207 104 147 242 73 205 207 104 145 240 71 101 205 102 99 238 69 101 205 102 145 240 71 48 28 28 136 131 28 50 30 30 136 131 28 48 28 28 132 129 26 46 26 26 132 129 26 48 28 28 132 129 26 46 26 26 128 127 24 44 24 24 128 127 24 46 26 26 128 127 24 44 24 24 124 125 22 42 22 22 124 125 22 44 24 24 124 125 22 42 22 22 120 123 20 40 20 20 120 123 20 42 22 22 120 123 20 40 20 20 116 121 18 38 18 18 116 121 18 40 20 20 116 121 18 38 18 18 112 119 16 36 16 16 112 119 16 38 18 18 260 62 62 49 29 29 262 64 64 49 29 29 260 62 62 47 27 27 258 60 60 47 27 27 260 62 62 47 27 27 258 60 60 45 25 25 256 58 58 45 25 25 258 60 60 45 25 25 256 58 58 43 23 23 254 56 56 43 23 23 256 58 58 43 23 23 254 56 56 41 21 21 252 54 54 41 21 21 254 56 56 41 21 21 252 54 54 39 19 19 250 52 52 39 19 19 252 54 54 39 19 19 250 52 52 37 17 17 248 50 50 37 17 17 250 52 52 138 130 29 201 97 62 142 132 31 201 97 62 138 130 29 199 95 60 134 128 27 199 95 60 138 130 29 199 95 60 134 128 27 197 93 58 130 126 25 197 93 58 134 128 27 197 93 58 130 126 25 195 91 56 126 124 23 195 91 56 130 126 25 195 91 56 126 124 23 193 89 54 122 122 21 193 89 54 126 124 23 193 89 54 122 122 21 191 87 52 118 120 19 191 87 52 122 122 21 191 87 52 118 120 19 189 85 50 114 118 17 189 85 50 118 120 19 200 96 63 261 63 63 202 98 65 261 63 63 200 96 63 259 61 61 198 94 61 259 61 61 200 96 63 259 61 61 198 94 61 257 59 59 196 92 59 257 59 59 198 94 61 257 59 59 196 92 59 255 57 57 194 90 57 255 57 57 196 92 59 255 57 57 194 90 57 253 55 55 192 88 55 253 55 55 194 90 57 253 55 55 192 88 55 251 53 53 190 86 53 251 53 53 192 88 55 251 53 53 190 86 53 249 51 51 188 84 51 249 51 51 190 86 53 20 200 132 137 169 101 133 202 134 137 169 101 20 200 132 81 167 99 79 165 97 81 167 99 20 200 132 232 234 133 129 203 135 125 236 135 129 203 135 232 234 133 21 201 133 19 199 131 21 201 133 232 234 133 173 268 99 121 237 134 115 270 101 121 237 134 173 268 99 233 235 132 231 233 130 233 235 132 173 268 99 80 166 98 113 271 100 141 168 100 113 271 100 80 166 98 172 269 98 170 267 96 172 269 98 80 166 98 262 64 64 108 33 33 106 66 66 108 33 33 262 64 64 51 31 31 49 29 29 51 31 31 262 64 64 202 98 65 104 67 67 102 100 67 104 67 67 202 98 65 263 65 65 261 63 63 263 65 65 202 98 65 142 132 31 100 101 66 97 134 33 100 101 66 142 132 31 203 99 64 201 97 62 203 99 64 142 132 31 50 30 30 96 135 32 110 32 32 96 135 32 50 30 30 140 133 30 136 131 28 140 133 30 50 30 30 184 115 12 94 14 14 92 12 12 94 14 14 184 115 12 186 117 14 186 117 14 36 16 16 94 14 14 36 16 16 186 117 14 112 119 16 139 1 1 22 36 36 135 34 34 22 36 36 139 1 1 83 3 3 83 3 3 24 38 38 22 36 36 24 38 38 83 3 3 85 5 5 182 113 10 92 12 12 90 10 10 92 12 12 182 113 10 184 115 12 87 7 7 28 42 42 26 40 40 28 42 42 87 7 7 89 9 9 89 9 9 30 44 44 28 42 42 30 44 44 89 9 9 91 11 11 91 11 11 32 46 46 30 44 44 32 46 46 91 11 11 93 13 13 93 13 13 34 48 48 32 46 46 34 48 48 93 13 13 95 15 15 95 15 15 248 50 50 34 48 48 248 50 50 95 15 15 37 17 17 117 103 0 82 2 2 143 0 0 82 2 2 117 103 0 174 105 2 85 5 5 26 40 40 24 38 38 26 40 40 85 5 5 87 7 7 131 35 35 234 70 37 127 68 35 234 70 37 131 35 35 23 37 37 23 37 37 236 72 39 234 70 37 236 72 39 23 37 37 25 39 39 25 39 39 238 74 41 236 72 39 238 74 41 25 39 39 27 41 41 27 41 41 240 76 43 238 74 41 240 76 43 27 41 41 29 43 43 29 43 43 242 78 45 240 76 43 242 78 45 29 43 43 31 45 45 174 105 2 84 4 4 82 2 2 84 4 4 174 105 2 176 107 4 33 47 47 246 82 49 244 80 47 246 82 49 33 47 47 35 49 49 35 49 49 188 84 51 246 82 49 188 84 51 35 49 49 249 51 51 176 107 4 86 6 6 84 4 4 86 6 6 176 107 4 178 109 6 178 109 6 88 8 8 86 6 6 88 8 8 178 109 6 180 111 8 123 69 34 175 104 3 119 102 1 175 104 3 123 69 34 235 71 36 235 71 36 177 106 5 175 104 3 177 106 5 235 71 36 237 73 38 31 45 45 244 80 47 242 78 45 244 80 47 31 45 45 33 47 47 239 75 40 181 110 9 179 108 7 181 110 9 239 75 40 241 77 42 241 77 42 183 112 11 181 110 9 183 112 11 241 77 42 243 79 44 243 79 44 185 114 13 183 112 11 185 114 13 243 79 44 245 81 46 245 81 46 187 116 15 185 114 13 187 116 15 245 81 46 247 83 48 247 83 48 114 118 17 187 116 15 114 118 17 247 83 48 189 85 50 180 111 8 90 10 10 88 8 8 90 10 10 180 111 8 182 113 10 237 73 38 179 108 7 177 106 5 179 108 7 237 73 38 239 75 40</p>
                </triangles>
            </mesh>
        </geometry>
    </library_geometries>
    <library_visual_scenes>
        <visual_scene id="ID8">
            <node id="ID9" name="n0b0">
                <translate sid="translate">0 0 -0</translate>
                <rotate sid="rotateY">0 1 0 -0</rotate>
                <rotate sid="rotateX">1 0 0 0</rotate>
                <rotate sid="rotateZ">0 0 1 -0</rotate>
                <scale sid="scale">1 1 1</scale>
                <instance_geometry url="#ID10">
                    <bind_material>
                        <technique_common>
                            <instance_material symbol="Material1" target="#ID3">
                                <bind_vertex_input semantic="UVSET0" input_semantic="TEXCOORD" input_set="0"/>
                            </instance_material>
                        </technique_common>
                    </bind_material>
                </instance_geometry>
            </node>
            <node id="ID18" name="n1b1">
                <translate sid="translate">0 0 -0</translate>
                <rotate sid="rotateY">0 1 0 -0</rotate>
                <rotate sid="rotateX">1 0 0 0</rotate>
                <rotate sid="rotateZ">0 0 1 -0</rotate>
                <scale sid="scale">1 1 1</scale>
                <instance_geometry url="#ID19">
                    <bind_material>
                        <technique_common>
                            <instance_material symbol="Material1" target="#ID3">
                                <bind_vertex_input semantic="UVSET0" input_semantic="TEXCOORD" input_set="0"/>
                            </instance_material>
                        </technique_common>
                    </bind_material>
                </instance_geometry>
            </node>
            <node id="ID27" name="n2b2">
                <translate sid="translate">0 0 -0</translate>
                <rotate sid="rotateY">0 1 0 -0</rotate>
                <rotate sid="rotateX">1 0 0 0</rotate>
                <rotate sid="rotateZ">0 0 1 -0</rotate>
                <scale sid="scale">1 1 1</scale>
                <instance_geometry url="#ID28">
                    <bind_material>
                        <technique_common>
                            <instance_material symbol="Material1" target="#ID3">
                                <bind_vertex_input semantic="UVSET0" input_semantic="TEXCOORD" input_set="0"/>
                            </instance_material>
                        </technique_common>
                    </bind_material>
                </instance_geometry>
            </node>
        </visual_scene>
    </library_visual_scenes>
    <scene>
        <instance_visual_scene url="#ID8"/>
    </scene>
</COLLADA>
