<?xml version="1.0"?>
<COLLADA xmlns="http://www.collada.org/2005/11/COLLADASchema" version="1.4.1">
    <asset>
        <contributor>
            <authoring_tool>CINEMA4D 15.064 COLLADA Exporter</authoring_tool>
        </contributor>
        <created>2018-04-28T04:52:33Z</created>
        <modified>2018-04-28T04:52:33Z</modified>
        <unit meter="0.01" name="centimeter"/>
        <up_axis>Y_UP</up_axis>
    </asset>
    <library_images>
        <image id="ID5">
            <init_from>IP2_glow1_i.png</init_from>
        </image>
        <image id="ID10">
            <init_from>PlateMetalBase_64.png</init_from>
        </image>
        <image id="ID15">
            <init_from>golddoorwakuMM2.png</init_from>
        </image>
        <image id="ID22">
            <init_from>mablesidelozet_64.png</init_from>
        </image>
    </library_images>
    <library_effects>
        <effect id="ID2">
            <profile_COMMON>
                <technique sid="COMMON">
                    <blinn>
                        <diffuse>
                            <color>0.8 0.8 0.8 1</color>
                        </diffuse>
                        <specular>
                            <color>0.2 0.2 0.2 1</color>
                        </specular>
                        <shininess>
                            <float>0.5</float>
                        </shininess>
                    </blinn>
                </technique>
            </profile_COMMON>
        </effect>
        <effect id="ID4">
            <profile_COMMON>
                <newparam sid="ID6">
                    <surface type="2D">
                        <init_from>ID5</init_from>
                    </surface>
                </newparam>
                <newparam sid="ID7">
                    <sampler2D>
                        <source>ID6</source>
                    </sampler2D>
                </newparam>
                <technique sid="COMMON">
                    <blinn>
                        <diffuse>
                            <texture texture="ID7" texcoord="UVSET0"/>
                        </diffuse>
                    </blinn>
                </technique>
            </profile_COMMON>
        </effect>
        <effect id="ID9">
            <profile_COMMON>
                <newparam sid="ID11">
                    <surface type="2D">
                        <init_from>ID10</init_from>
                    </surface>
                </newparam>
                <newparam sid="ID12">
                    <sampler2D>
                        <source>ID11</source>
                    </sampler2D>
                </newparam>
                <technique sid="COMMON">
                    <blinn>
                        <diffuse>
                            <texture texture="ID12" texcoord="UVSET0"/>
                        </diffuse>
                    </blinn>
                </technique>
            </profile_COMMON>
        </effect>
        <effect id="ID14">
            <profile_COMMON>
                <newparam sid="ID16">
                    <surface type="2D">
                        <init_from>ID15</init_from>
                    </surface>
                </newparam>
                <newparam sid="ID17">
                    <sampler2D>
                        <source>ID16</source>
                    </sampler2D>
                </newparam>
                <technique sid="COMMON">
                    <blinn>
                        <diffuse>
                            <texture texture="ID17" texcoord="UVSET0"/>
                        </diffuse>
                    </blinn>
                </technique>
            </profile_COMMON>
        </effect>
        <effect id="ID19">
            <profile_COMMON>
                <technique sid="COMMON">
                    <blinn>
                        <diffuse>
                            <color>0.588235 0.588235 0.588235 1</color>
                        </diffuse>
                    </blinn>
                </technique>
            </profile_COMMON>
        </effect>
        <effect id="ID21">
            <profile_COMMON>
                <newparam sid="ID23">
                    <surface type="2D">
                        <init_from>ID22</init_from>
                    </surface>
                </newparam>
                <newparam sid="ID24">
                    <sampler2D>
                        <source>ID23</source>
                    </sampler2D>
                </newparam>
                <technique sid="COMMON">
                    <blinn>
                        <diffuse>
                            <texture texture="ID24" texcoord="UVSET0"/>
                        </diffuse>
                    </blinn>
                </technique>
            </profile_COMMON>
        </effect>
    </library_effects>
    <library_materials>
        <material id="ID3" name="m4">
            <instance_effect url="#ID4"/>
        </material>
        <material id="ID8" name="m3">
            <instance_effect url="#ID9"/>
        </material>
        <material id="ID13" name="m2">
            <instance_effect url="#ID14"/>
        </material>
        <material id="ID18" name="m1">
            <instance_effect url="#ID19"/>
        </material>
        <material id="ID20" name="m0">
            <instance_effect url="#ID21"/>
        </material>
    </library_materials>
    <library_geometries>
        <geometry id="ID27">
            <mesh>
                <source id="ID28">
                    <float_array id="ID29" count="633">1468.79 760 -1771.68 1562.89 695 -1488.79 1562.89 695 -1488.79 1562.89 695 -1488.79 1503.79 760 -1791.92 1542.92 760 -1802.42 1583.17 760 -1802.42 1622.17 760 -1791.91 1657.17 760 -1771.66 1685.66 760 -1743.16 1705.91 760 -1708.16 1716.41 760 -1669.15 1716.4 760 -1628.78 1705.9 760 -1589.78 1685.65 760 -1554.78 1657.14 760 -1526.28 1657.14 760 -1526.28 1622.14 760 -1506.04 1583.14 760 -1495.54 1542.89 760 -1495.55 1503.77 760 -1506.05 1468.77 760 -1526.3 1440.27 760 -1554.81 1420.02 760 -1589.81 1409.65 760 -1628.81 1409.66 760 -1669.18 1420.03 760 -1708.18 1440.29 760 -1743.18 1458.89 675 -1513.43 1497.64 675 -1491.05 1540.76 675 -1479.55 1585.26 675 -1479.54 1628.39 675 -1491.04 1667.02 675 -1513.41 1667.02 675 -1513.41 1698.64 675 -1544.91 1720.9 675 -1583.53 1732.53 675 -1626.65 1732.53 675 -1671.28 1720.91 675 -1714.28 1698.66 675 -1753.03 1667.04 675 -1784.53 1628.42 675 -1806.91 1585.3 675 -1818.42 1540.8 675 -1818.42 1497.67 675 -1806.93 1458.92 675 -1784.55 1427.41 675 -1753.06 1405.04 675 -1714.31 1393.53 675 -1671.31 1393.53 675 -1626.69 1405.02 675 -1583.56 1427.39 675 -1544.93 1458.89 765 -1513.43 1458.89 765 -1513.43 1497.64 765 -1491.05 1497.64 765 -1491.05 1540.76 765 -1479.55 1540.76 765 -1479.55 1585.26 765 -1479.54 1585.26 765 -1479.54 1628.39 765 -1491.04 1628.39 765 -1491.04 1667.02 765 -1513.41 1667.02 765 -1513.41 1667.02 765 -1513.41 1667.02 765 -1513.41 1698.64 765 -1544.91 1698.64 765 -1544.91 1720.9 765 -1583.53 1720.9 765 -1583.53 1732.53 765 -1626.65 1732.53 765 -1626.65 1732.53 765 -1671.28 1732.53 765 -1671.28 1720.91 765 -1714.28 1720.91 765 -1714.28 1698.66 765 -1753.03 1698.66 765 -1753.03 1667.04 765 -1784.53 1667.04 765 -1784.53 1628.42 765 -1806.91 1628.42 765 -1806.91 1585.3 765 -1818.42 1585.3 765 -1818.42 1540.8 765 -1818.42 1540.8 765 -1818.42 1497.67 765 -1806.93 1497.67 765 -1806.93 1458.92 765 -1784.55 1458.92 765 -1784.55 1427.41 765 -1753.06 1427.41 765 -1753.06 1405.04 765 -1714.31 1405.04 765 -1714.31 1393.53 765 -1671.31 1393.53 765 -1671.31 1393.53 765 -1626.69 1393.53 765 -1626.69 1405.02 765 -1583.56 1405.02 765 -1583.56 1427.39 765 -1544.93 1427.39 765 -1544.93 1468.79 765 -1771.68 1503.79 765 -1791.92 1542.92 765 -1802.42 1583.17 765 -1802.42 1622.17 765 -1791.91 1657.17 765 -1771.66 1685.66 765 -1743.16 1705.91 765 -1708.16 1716.41 765 -1669.15 1716.4 765 -1628.78 1705.9 765 -1589.78 1685.65 765 -1554.78 1657.14 765 -1526.28 1657.14 765 -1526.28 1622.14 765 -1506.04 1583.14 765 -1495.54 1542.89 765 -1495.55 1503.77 765 -1506.05 1468.77 765 -1526.3 1440.27 765 -1554.81 1420.02 765 -1589.81 1409.65 765 -1628.81 1409.66 765 -1669.18 1420.03 765 -1708.18 1440.29 765 -1743.18 1540.76 750 -1479.55 1585.26 750 -1479.54 1628.39 750 -1491.04 1667.02 750 -1513.41 1667.02 750 -1513.41 1698.64 750 -1544.91 1720.9 750 -1583.53 1732.53 750 -1626.65 1732.53 750 -1671.28 1720.91 750 -1714.28 1698.66 750 -1753.03 1667.04 750 -1784.53 1628.42 750 -1806.91 1585.3 750 -1818.42 1540.8 750 -1818.42 1497.67 750 -1806.93 1458.92 750 -1784.55 1427.41 750 -1753.06 1405.04 750 -1714.31 1393.53 750 -1671.31 1393.53 750 -1626.69 1405.02 750 -1583.56 1427.39 750 -1544.93 1458.89 750 -1513.43 1497.64 750 -1491.05 1497.64 690 -1491.05 1458.89 690 -1513.43 1427.39 690 -1544.93 1405.02 690 -1583.56 1393.53 690 -1626.69 1393.53 690 -1671.31 1405.04 690 -1714.31 1427.41 690 -1753.06 1458.92 690 -1784.55 1497.67 690 -1806.93 1540.8 690 -1818.42 1585.3 690 -1818.42 1628.42 690 -1806.91 1667.04 690 -1784.53 1698.66 690 -1753.03 1720.91 690 -1714.28 1732.53 690 -1671.28 1732.53 690 -1626.65 1720.9 690 -1583.53 1698.64 690 -1544.91 1667.02 690 -1513.41 1667.02 690 -1513.41 1628.39 690 -1491.04 1585.26 690 -1479.54 1540.76 690 -1479.55 1482.89 695 -1510.3 1482.89 695 -1510.3 1482.89 695 -1510.3 1424.27 695 -1568.93 1424.27 695 -1568.93 1424.27 695 -1568.93 1402.9 695 -1648.93 1402.9 695 -1648.93 1402.9 695 -1648.93 1424.29 695 -1729.06 1424.29 695 -1729.06 1424.29 695 -1729.06 1482.92 695 -1787.68 1482.92 695 -1787.68 1482.92 695 -1787.68 1562.92 695 -1809.17 1562.92 695 -1809.17 1562.92 695 -1809.17 1643.04 695 -1787.66 1643.04 695 -1787.66 1643.04 695 -1787.66 1701.66 695 -1729.03 1701.66 695 -1729.03 1701.66 695 -1729.03 1723.15 695 -1648.9 1723.15 695 -1648.9 1723.15 695 -1648.9 1701.65 695 -1568.91 1701.65 695 -1568.91 1701.65 695 -1568.91 1643.02 695 -1510.29 1643.02 695 -1510.29 1643.02 695 -1510.29</float_array>
                    <technique_common>
                        <accessor count="211" source="#ID29" stride="3">
                            <param name="X" type="float"/>
                            <param name="Y" type="float"/>
                            <param name="Z" type="float"/>
                        </accessor>
                    </technique_common>
                </source>
                <source id="ID30">
                    <float_array id="ID31" count="480">0.840629 0.43708 -0.319851 0.821921 0.562981 -0.0865928 0.309188 0.947351 -0.0832457 0.30814 0.947744 -0.0826518 -0.485753 0.562231 -0.669284 -0.697189 0.436847 -0.568412 -0.642897 0 -0.765953 -0.819205 0 -0.5735 -0.755145 0.562556 -0.336581 -0.939839 0 -0.341619 -0.887614 0.437693 -0.143407 -0.996219 0 -0.0868734 -0.821989 0.563036 0.0855898 -0.984925 0 0.172984 -0.840671 0.437368 0.319346 -0.90601 0 0.423256 -0.668762 0.562404 0.486271 -0.765654 0 0.643253 -0.568413 0.436846 0.697189 -0.573502 0 0.819205 0.501173 0 0.865347 0.423255 0 0.906011 0.472079 0.335758 0.815112 0.319346 0.437367 0.840672 0.172985 0 0.984924 0.0856693 0.562025 0.822672 -0.0866332 0 0.99624 -0.143043 0.436088 0.888462 -0.341164 0 0.940004 -0.336558 0.561919 0.755629 0.0827704 0.947277 0.30954 0.0832594 0.946951 0.310406 0.696261 0.437959 0.568694 0.461807 0.756322 0.463369 0.225751 0.94755 0.22624 0.226838 0.947137 0.226881 0.887411 0.437752 0.144478 0.754812 0.563052 0.336499 0.308709 0.947518 0.083123 0.309193 0.947359 0.0831276 0.984576 0 0.174955 0.996158 0 -0.0875754 0.996162 0 0.0875259 0.984524 0 -0.175247 0.567978 0.436896 -0.697512 0.66935 0.562822 -0.484977 0.226313 0.947302 -0.22672 0.22567 0.947716 -0.225627 0.142998 0.436291 -0.888371 0.337062 0.562449 -0.75501 0.0829778 0.947082 -0.310083 0.0829683 0.947409 -0.309083 -0.318984 0.436994 -0.841002 -0.0857669 0.561782 -0.822827 -0.0830575 0.946981 -0.310369 -0.0836728 0.946568 -0.31146 -0.0833027 0.946734 0.311055 -0.0832909 0.947146 0.309801 -0.226836 0.947138 -0.22688 -0.226837 0.947138 -0.22688 -0.308887 0.947511 -0.0825374 -0.309287 0.94738 -0.0825404 -0.308942 0.947502 0.0824332 -0.309212 0.947401 0.0825857 -0.226881 0.947138 0.226837 -0.226881 0.947137 0.226838 0.501173 0 0.865347 0.341419 0 0.939911 0.0864455 0 0.996257 -0.173172 0 0.984892 0.705637 0 0.708574 0.765194 0 0.643799 0.819224 0 0.573474 0.906238 0 0.422767 0.939501 0 0.342545 0.939558 0 -0.342391 0.906611 0 -0.421967 0.819868 0 -0.572552 0.765615 0 -0.643299 0.642385 0 -0.766382 0.573733 0 -0.819042 0.42343 0 -0.905929 0.3416 0 -0.939845 0.173172 0 -0.984892 0.0866332 0 -0.99624 -0.0864455 0 -0.996257 -0.172985 0 -0.984924 -0.340983 0 -0.940069 -0.422405 0 -0.906407 -0.573343 0 -0.819316 -0.765828 0 -0.643045 -0.906225 0 -0.422796 -0.984807 0 -0.17365 -0.996257 0 0.0864438 -0.939911 0 0.341419 -0.818777 0 0.574112 -0.643046 0 0.765828 -0.42258 0 0.906326 -0.500708 0 -0.865616 -0.423646 0 -0.905828 -0.342758 0 -0.939424 -0.174562 0 -0.984646 -0.087232 0 -0.996188 0.0871598 0 -0.996194 0.174222 0 -0.984706 0.342433 0 -0.939542 0.423579 0 -0.905859 0.573974 0 -0.818874 0.643264 0 -0.765645 0.765768 0 -0.643117 0.818983 0 -0.573818 0.906246 0 -0.422751 0.940108 0 -0.340875 0.984994 0 -0.172589 0.996274 0 -0.0862457 0.996257 0 0.0864375 0.984961 0 0.172778 0.940043 0 0.341055 0.906165 0 0.422924 0.818873 0 0.573975 0.765645 0 0.643263 0.643118 0 0.765767 0.573818 0 0.818983 -0.707039 0 -0.707175 -0.765645 0 -0.643264 -0.818874 0 -0.573974 -0.905747 0 -0.42382 -0.939358 0 -0.342937 -0.984613 0 -0.174751 -0.996171 0 -0.087424 -0.996188 0 0.0872323 -0.984646 0 0.174562 -0.939424 0 0.342758 -0.905828 0 0.423646 -0.818984 0 0.573817 -0.765768 0 0.643117 -0.643263 0 0.765645 -0.573975 0 0.818873 -0.423821 0 0.905746 -0.342936 0 0.939359 -0.174749 0 0.984613 -0.0874233 0 0.996171 0.0869669 0 0.996211 0.174032 0 0.98474 0.342252 0 0.939608 0.423407 0 0.90594 -0 1 -0 0.996162 0 0.0875259 -4.43502e-005 0.879706 0.475517 -0.410233 0.880667 -0.236928 0.236808 0.881327 0.408882 4.43501e-005 0.879707 -0.475517 0.407573 0.882461 0.234834 -0.40888 0.881328 0.236808 0.470591 0.882352 4.5055e-005 -0.470586 0.882354 -4.50545e-005 0.409003 0.881809 -0.234796 -0.23693 0.880666 0.410234 0.236887 0.881328 -0.408835 -0.236851 0.880665 -0.410281</float_array>
                    <technique_common>
                        <accessor count="160" source="#ID31" stride="3">
                            <param name="X" type="float"/>
                            <param name="Y" type="float"/>
                            <param name="Z" type="float"/>
                        </accessor>
                    </technique_common>
                </source>
                <source id="ID32">
                    <float_array id="ID33" count="422">-1.24976 -2.85156 -1.49976 -2.85156 -1.24976 -2.7959 -1.49976 -2.7959 0.5 -2.85156 0.75 -2.85156 0.5 -2.99854 0.75 -2.99854 1 -2.85156 1 -2.99854 1.25 -2.85156 1.25 -2.99854 1.5 -2.85156 1.5 -2.99854 1.75 -2.85156 1.75 -2.99854 2 -2.85156 2 -2.99854 2.25 -2.85156 2.25 -2.99854 3.5 -2.99854 3.25 -2.99854 3.5 -2.85156 3.25 -2.85156 3 -2.99854 3 -2.85156 2.75 -2.99854 2.75 -2.85156 2.5 -2.99854 2.5 -2.85156 3.25 -2.7959 3 -2.7959 -2.24976 -2.85156 -2.49976 -2.85156 -2.24976 -2.7959 -2.49976 -2.7959 -1.74976 -2.85156 -1.99976 -2.85156 -1.74976 -2.7959 -1.99976 -2.7959 -1.74976 -1.99854 -1.49976 -1.99854 -1.74976 -2.22021 -1.49976 -2.22021 -0.749756 -2.85156 -0.999756 -2.85156 -0.749756 -2.7959 -0.999756 -2.7959 -0.249756 -2.85156 -0.499756 -2.85156 -0.249756 -2.7959 -0.499756 -2.7959 0.25 -2.85156 0 -2.85156 0.25 -2.7959 0 -2.7959 2.75 -2.7959 2.5 -2.7959 0.75 -2.7959 0.5 -2.7959 1.25 -2.7959 1 -2.7959 1.75 -2.7959 1.5 -2.7959 2.25 -2.7959 2 -2.7959 3.5 -2.22021 3.25 -2.22021 3.5 -1.99854 3.25 -1.99854 3 -2.22021 3 -1.99854 2.75 -2.22021 2.75 -1.99854 -2.49976 -1.99854 -2.24976 -1.99854 -2.49976 -2.22021 -2.24976 -2.22021 -1.99976 -1.99854 -1.99976 -2.22021 -1.24976 -1.99854 -1.24976 -2.22021 -0.999756 -1.99854 -0.999756 -2.22021 -0.749756 -1.99854 -0.749756 -2.22021 -0.499756 -1.99854 -0.499756 -2.22021 -0.249756 -1.99854 -0.249756 -2.22021 0 -1.99854 0 -2.22021 0.25 -1.99854 0.25 -2.22021 0.5 -1.99854 0.5 -2.22021 0.75 -1.99854 0.75 -2.22021 1 -1.99854 1 -2.22021 1.25 -1.99854 1.25 -2.22021 1.5 -1.99854 1.5 -2.22021 1.75 -1.99854 1.75 -2.22021 2 -1.99854 2 -2.22021 2.25 -1.99854 2.25 -2.22021 2.5 -1.99854 2.5 -2.22021 1.99731 -1 1.83081 -1 1.99731 -1.28198 1.83081 -1.28198 1.66431 -1 1.66431 -1.28198 1.4978 -1 1.4978 -1.28198 1.33154 -1 1.33154 -1.28198 1.16504 -1 1.16504 -1.28198 0.998535 -1 0.998535 -1.28198 0.832275 -1 0.832275 -1.28198 0.665771 -1 0.665771 -1.28198 0.499268 -1 0.499268 -1.28198 0.332764 -1 0.332764 -1.28198 0.166504 -1 0.166504 -1.28198 0 -1 0 -1.28198 -1.99683 -1.28198 -1.83057 -1.28198 -1.99683 -1 -1.83057 -1 -1.66406 -1.28198 -1.66406 -1 -1.49756 -1.28198 -1.49756 -1 -1.3313 -1.28198 -1.3313 -1 -1.16479 -1.28198 -1.16479 -1 -0.998291 -1.28198 -0.998291 -1 -0.831787 -1.28198 -0.831787 -1 -0.665527 -1.28198 -0.665527 -1 -0.499023 -1.28198 -0.499023 -1 -0.33252 -1.28198 -0.33252 -1 -0.16626 -1.28198 -0.16626 -1 -1.99683 -1.22827 -1.83057 -1.22827 -1.66406 -1.22827 -1.49756 -1.22827 -1.3313 -1.22827 -1.16479 -1.22827 -0.998291 -1.22827 -0.831787 -1.22827 -0.665527 -1.22827 -0.499023 -1.22827 -0.33252 -1.22827 -0.16626 -1.22827 0 -1.22827 0.166504 -1.22827 0.332764 -1.22827 0.499268 -1.22827 0.665771 -1.22827 0.832275 -1.22827 0.998535 -1.22827 1.16504 -1.22827 1.99731 -1.22827 1.83081 -1.22827 1.66431 -1.22827 1.4978 -1.22827 1.33154 -1.22827 -2.49976 -2.99854 -2.24976 -2.99854 -1.99976 -2.99854 -1.74976 -2.99854 -1.49976 -2.99854 -1.24976 -2.99854 -0.999756 -2.99854 -0.749756 -2.99854 -0.499756 -2.99854 -0.249756 -2.99854 0 -2.99854 0.25 -2.99854 2.875 -2.7959 0.875 -2.7959 3.375 -2.7959 -0.124756 -2.7959 -2.12476 -2.7959 1.875 -2.7959 -1.62476 -2.7959 1.375 -2.7959 -1.12476 -2.7959 2.375 -2.7959 -0.624756 -2.7959 0.375 -2.7959</float_array>
                    <technique_common>
                        <accessor count="211" source="#ID33" stride="2">
                            <param name="S" type="float"/>
                            <param name="T" type="float"/>
                        </accessor>
                    </technique_common>
                </source>
                <vertices id="ID34">
                    <input semantic="POSITION" source="#ID28"/>
                </vertices>
                <triangles count="228" material="Material1">
                    <input offset="0" semantic="VERTEX" source="#ID34"/>
                    <input offset="1" semantic="NORMAL" source="#ID30"/>
                    <input offset="2" semantic="TEXCOORD" source="#ID32" set="0"/>
                    <p>201 2 2 169 1 1 168 0 0 169 1 1 201 2 2 202 3 3 46 6 6 160 5 5 161 4 4 160 5 5 46 6 6 47 7 7 47 7 7 159 8 8 160 5 5 159 8 8 47 7 7 48 9 9 48 9 9 158 10 10 159 8 8 158 10 10 48 9 9 49 11 11 49 11 11 157 12 12 158 10 10 157 12 12 49 11 11 50 13 13 50 13 13 156 14 14 157 12 12 156 14 14 50 13 13 51 15 15 51 15 15 155 16 16 156 14 14 155 16 16 51 15 15 52 17 17 52 17 17 154 18 18 155 16 16 154 18 18 52 17 17 28 19 19 173 22 22 32 21 21 33 20 20 32 21 21 173 22 22 175 23 23 175 23 23 31 24 24 32 21 21 31 24 24 175 23 23 176 25 25 176 25 25 30 26 26 31 24 24 30 26 26 176 25 25 177 27 27 177 27 27 29 28 28 30 26 26 29 28 28 177 27 27 153 29 29 210 30 30 176 25 25 175 23 23 176 25 25 210 30 30 1 31 31 207 34 34 174 33 33 172 32 32 174 33 33 207 34 34 208 35 35 204 38 38 171 37 37 170 36 36 171 37 37 204 38 38 205 39 39 135 42 42 73 41 41 71 40 40 73 41 41 135 42 42 136 43 43 198 46 46 167 45 45 166 44 44 167 45 45 198 46 46 199 47 47 195 50 50 165 49 49 164 48 48 165 49 49 195 50 50 196 51 51 192 54 54 163 53 53 162 52 52 163 53 53 192 54 54 193 55 55 3 56 56 153 29 29 177 27 27 153 29 29 3 56 56 180 57 57 189 58 58 161 4 4 160 5 5 161 4 4 189 58 58 190 59 59 186 60 60 159 8 8 158 10 10 159 8 8 186 60 60 187 61 61 183 62 62 157 12 12 156 14 14 157 12 12 183 62 62 184 63 63 179 64 64 155 16 16 154 18 18 155 16 16 179 64 64 181 65 65 64 66 68 130 21 67 132 20 66 130 21 67 64 66 68 61 67 69 61 67 69 129 24 70 130 21 67 129 24 70 61 67 69 59 68 71 59 68 71 128 26 72 129 24 70 128 26 72 59 68 71 58 69 73 131 70 76 67 71 75 63 70 74 67 71 75 131 70 76 133 72 77 133 72 77 69 73 78 67 71 75 69 73 78 133 72 77 134 74 79 134 74 79 71 40 40 69 73 78 71 40 40 134 74 79 135 42 42 153 29 29 28 19 19 29 28 28 28 19 19 153 29 29 154 18 18 136 43 43 75 75 80 73 41 41 75 75 80 136 43 43 137 76 81 137 76 81 77 77 82 75 75 80 77 77 82 137 76 81 138 78 83 138 78 83 79 79 84 77 77 82 79 79 84 138 78 83 139 80 85 139 80 85 81 81 86 79 79 84 81 81 86 139 80 85 140 82 87 140 82 87 83 83 88 81 81 86 83 83 88 140 82 87 141 84 89 141 84 89 85 85 90 83 83 88 85 85 90 141 84 89 142 86 91 142 86 91 87 87 92 85 85 90 87 87 92 142 86 91 143 88 93 143 88 93 89 89 94 87 87 92 89 89 94 143 88 93 144 6 95 144 6 95 92 90 96 89 89 94 92 90 96 144 6 95 145 7 97 145 7 97 94 91 98 92 90 96 94 91 98 145 7 97 146 9 99 146 9 99 96 92 100 94 91 98 96 92 100 146 9 99 147 11 101 147 11 101 98 93 102 96 92 100 98 93 102 147 11 101 148 13 103 148 13 103 100 94 104 98 93 102 100 94 104 148 13 103 149 15 105 149 15 105 102 95 106 100 94 104 102 95 106 149 15 105 150 17 107 150 17 107 54 96 108 102 95 106 54 96 108 150 17 107 151 19 109 151 19 109 56 97 110 54 96 108 56 97 110 151 19 109 152 28 111 58 69 73 152 28 111 128 26 72 152 28 111 58 69 73 56 97 110 16 98 114 117 99 113 115 98 112 117 99 113 16 98 114 17 100 115 17 100 115 118 101 116 117 99 113 118 101 116 17 100 115 18 102 117 18 102 117 119 103 118 118 101 116 119 103 118 18 102 117 19 104 119 19 104 119 120 105 120 119 103 118 120 105 120 19 104 119 20 106 121 20 106 121 121 107 122 120 105 120 121 107 122 20 106 121 21 108 123 21 108 123 122 109 124 121 107 122 122 109 124 21 108 123 22 110 125 22 110 125 123 111 126 122 109 124 123 111 126 22 110 125 23 112 127 23 112 127 124 113 128 123 111 126 124 113 128 23 112 127 24 114 129 24 114 129 125 115 130 124 113 128 125 115 130 24 114 129 25 116 131 25 116 131 126 117 132 125 115 130 126 117 132 25 116 131 26 118 133 26 118 133 127 119 134 126 117 132 127 119 134 26 118 133 27 120 135 27 120 135 103 121 136 127 119 134 103 121 136 27 120 135 0 122 137 116 123 140 14 124 139 15 123 138 14 124 139 116 123 140 114 125 141 114 125 141 13 126 142 14 124 139 13 126 142 114 125 141 113 127 143 113 127 143 12 128 144 13 126 142 12 128 144 113 127 143 112 129 145 112 129 145 11 130 146 12 128 144 11 130 146 112 129 145 111 131 147 111 131 147 10 132 148 11 130 146 10 132 148 111 131 147 110 133 149 110 133 149 9 134 150 10 132 148 9 134 150 110 133 149 109 135 151 109 135 151 8 136 152 9 134 150 8 136 152 109 135 151 108 137 153 108 137 153 7 138 154 8 136 152 7 138 154 108 137 153 107 139 155 107 139 155 6 140 156 7 138 154 6 140 156 107 139 155 106 141 157 106 141 157 5 142 158 6 140 156 5 142 158 106 141 157 105 143 159 105 143 159 4 144 160 5 142 158 4 144 160 105 143 159 104 145 161 0 122 137 104 145 161 103 121 136 104 145 161 0 122 137 4 144 160 66 146 162 114 146 141 116 146 140 114 146 141 66 146 162 68 146 163 68 146 163 113 146 143 114 146 141 113 146 143 68 146 163 70 146 164 70 146 164 112 146 145 113 146 143 112 146 145 70 146 164 72 146 165 72 146 165 111 146 147 112 146 145 111 146 147 72 146 165 74 146 166 74 146 166 110 146 149 111 146 147 110 146 149 74 146 166 76 146 167 76 146 167 109 146 151 110 146 149 109 146 151 76 146 167 78 146 168 78 146 168 108 146 153 109 146 151 108 146 153 78 146 168 80 146 169 80 146 169 107 146 155 108 146 153 107 146 155 80 146 169 82 146 170 82 146 170 106 146 157 107 146 155 106 146 157 82 146 170 84 146 171 84 146 171 105 146 159 106 146 157 105 146 159 84 146 171 86 146 172 86 146 172 104 146 161 105 146 159 104 146 161 86 146 172 88 146 173 88 146 173 103 146 136 104 146 161 103 146 136 88 146 173 90 146 174 90 146 174 127 146 134 103 146 136 127 146 134 90 146 174 91 146 175 91 146 175 126 146 132 127 146 134 126 146 132 91 146 175 93 146 176 93 146 176 125 146 130 126 146 132 125 146 130 93 146 176 95 146 177 95 146 177 124 146 128 125 146 130 124 146 128 95 146 177 97 146 178 97 146 178 123 146 126 124 146 128 123 146 126 97 146 178 99 146 179 99 146 179 122 146 124 123 146 126 122 146 124 99 146 179 101 146 180 101 146 180 121 146 122 122 146 124 121 146 122 101 146 180 53 146 181 115 146 112 62 146 183 65 146 182 62 146 183 115 146 112 117 146 113 117 146 113 60 146 184 62 146 183 60 146 184 117 146 113 118 146 116 118 146 116 57 146 185 60 146 184 57 146 185 118 146 116 119 146 118 119 146 118 55 146 186 57 146 185 55 146 186 119 146 118 120 146 120 120 146 120 53 146 181 55 146 186 53 146 181 120 146 120 121 146 122 34 70 187 172 32 32 174 33 33 172 32 32 34 70 187 35 72 188 35 72 188 171 37 37 172 32 32 171 37 37 35 72 188 36 74 189 36 74 189 170 36 36 171 37 37 170 36 36 36 74 189 37 147 190 37 147 190 169 1 1 170 36 36 169 1 1 37 147 190 38 43 191 38 43 191 168 0 0 169 1 1 168 0 0 38 43 191 39 76 192 39 76 192 167 45 45 168 0 0 167 45 45 39 76 192 40 78 193 40 78 193 166 44 44 167 45 45 166 44 44 40 78 193 41 80 194 41 80 194 165 49 49 166 44 44 165 49 49 41 80 194 42 82 195 42 82 195 164 48 48 165 49 49 164 48 48 42 82 195 43 84 196 43 84 196 163 53 53 164 48 48 163 53 53 43 84 196 44 86 197 44 86 197 162 52 52 163 53 53 162 52 52 44 86 197 45 88 198 45 88 198 161 4 4 162 52 52 161 4 4 45 88 198 46 6 6 177 27 27 176 25 25 2 148 199 160 5 5 159 8 8 188 149 200 175 23 23 173 22 22 209 150 201 164 48 48 163 53 53 194 151 202 172 32 32 171 37 37 206 152 203 156 14 14 155 16 16 182 153 204 170 36 36 169 1 1 203 154 205 158 10 10 157 12 12 185 155 206 168 0 0 167 45 45 200 156 207 154 18 18 153 29 29 178 157 208 166 44 44 165 49 49 197 158 209 162 52 52 161 4 4 191 159 210</p>
                </triangles>
            </mesh>
        </geometry>
        <geometry id="ID36">
            <mesh>
                <source id="ID37">
                    <float_array id="ID38" count="144">1468.79 760.875 -1771.68 1503.79 760.875 -1791.92 1542.92 760.875 -1802.42 1583.17 760.875 -1802.42 1622.17 760.875 -1791.91 1657.17 760.875 -1771.66 1685.66 760.875 -1743.16 1705.91 760.875 -1708.16 1716.41 760.875 -1669.15 1716.4 760.875 -1628.78 1705.9 760.875 -1589.78 1685.65 760.875 -1554.78 1657.14 760.875 -1526.28 1622.14 760.875 -1506.04 1583.14 760.875 -1495.54 1542.89 760.875 -1495.55 1503.77 760.875 -1506.05 1468.77 760.875 -1526.3 1440.27 760.875 -1554.81 1420.02 760.875 -1589.81 1409.65 760.875 -1628.81 1409.66 760.875 -1669.18 1420.03 760.875 -1708.18 1440.29 760.875 -1743.18 1450.41 760.875 -1663.8 1458.16 760.875 -1692.43 1472.91 760.875 -1718.05 1493.91 760.875 -1739.05 1519.54 760.875 -1753.92 1548.29 760.875 -1761.55 1577.79 760.875 -1761.54 1606.41 760.875 -1753.91 1632.04 760.875 -1739.04 1653.04 760.875 -1718.04 1667.91 760.875 -1692.41 1675.53 760.875 -1663.78 1675.53 760.875 -1634.16 1667.9 760.875 -1605.53 1653.02 760.875 -1579.91 1632.02 760.875 -1558.91 1606.39 760.875 -1544.04 1577.77 760.875 -1536.42 1548.27 760.875 -1536.42 1519.52 760.875 -1544.05 1493.9 760.875 -1558.93 1472.9 760.875 -1579.93 1458.15 760.875 -1605.55 1450.4 760.875 -1634.18</float_array>
                    <technique_common>
                        <accessor count="48" source="#ID38" stride="3">
                            <param name="X" type="float"/>
                            <param name="Y" type="float"/>
                            <param name="Z" type="float"/>
                        </accessor>
                    </technique_common>
                </source>
                <source id="ID39">
                    <float_array id="ID40" count="3">0 1 0</float_array>
                    <technique_common>
                        <accessor count="1" source="#ID40" stride="3">
                            <param name="X" type="float"/>
                            <param name="Y" type="float"/>
                            <param name="Z" type="float"/>
                        </accessor>
                    </technique_common>
                </source>
                <source id="ID41">
                    <float_array id="ID42" count="96">1.82849 0.30603 1.68726 0.235962 1.80884 0.397827 1.65137 0.361572 1.80212 0.496338 1.63904 0.496338 1.80884 0.594849 1.65137 0.631226 1.82849 0.686646 1.68738 0.756836 1.85986 0.765381 1.74451 0.864746 1.90063 0.825928 1.81909 0.94751 1.94812 0.863892 1.90601 0.999512 1.99915 0.876831 1.99915 1.01709 2.05005 0.863892 2.09229 0.99939 2.09753 0.825806 2.17908 0.947388 2.13843 0.765381 2.25366 0.864624 2.16968 0.686523 2.31091 0.756714 2.18933 0.594727 2.3468 0.630981 2.19604 0.496216 2.35913 0.496216 2.18933 0.397705 2.3468 0.36145 2.16968 0.30603 2.31079 0.235718 2.13831 0.227173 2.25354 0.12793 2.09753 0.166748 2.17908 0.045166 2.05005 0.128662 2.09216 -0.00683594 1.99902 0.115723 1.99902 -0.0246582 1.90588 -0.00683594 1.81897 0.045166 1.74451 0.128052 1.85974 0.227295 1.94812 0.128784 1.90051 0.166748</float_array>
                    <technique_common>
                        <accessor count="48" source="#ID42" stride="2">
                            <param name="S" type="float"/>
                            <param name="T" type="float"/>
                        </accessor>
                    </technique_common>
                </source>
                <vertices id="ID43">
                    <input semantic="POSITION" source="#ID37"/>
                </vertices>
                <triangles count="48" material="Material1">
                    <input offset="0" semantic="VERTEX" source="#ID43"/>
                    <input offset="1" semantic="NORMAL" source="#ID39"/>
                    <input offset="2" semantic="TEXCOORD" source="#ID41" set="0"/>
                    <p>28 0 2 0 0 1 27 0 0 0 0 1 28 0 2 1 0 3 29 0 4 1 0 3 28 0 2 1 0 3 29 0 4 2 0 5 30 0 6 2 0 5 29 0 4 2 0 5 30 0 6 3 0 7 31 0 8 3 0 7 30 0 6 3 0 7 31 0 8 4 0 9 32 0 10 4 0 9 31 0 8 4 0 9 32 0 10 5 0 11 33 0 12 5 0 11 32 0 10 5 0 11 33 0 12 6 0 13 34 0 14 6 0 13 33 0 12 6 0 13 34 0 14 7 0 15 35 0 16 7 0 15 34 0 14 7 0 15 35 0 16 8 0 17 36 0 18 8 0 17 35 0 16 8 0 17 36 0 18 9 0 19 37 0 20 9 0 19 36 0 18 9 0 19 37 0 20 10 0 21 38 0 22 10 0 21 37 0 20 10 0 21 38 0 22 11 0 23 39 0 24 11 0 23 38 0 22 11 0 23 39 0 24 12 0 25 40 0 26 12 0 25 39 0 24 12 0 25 40 0 26 13 0 27 41 0 28 13 0 27 40 0 26 13 0 27 41 0 28 14 0 29 42 0 30 14 0 29 41 0 28 14 0 29 42 0 30 15 0 31 43 0 32 15 0 31 42 0 30 15 0 31 43 0 32 16 0 33 44 0 34 16 0 33 43 0 32 16 0 33 44 0 34 17 0 35 45 0 36 17 0 35 44 0 34 17 0 35 45 0 36 18 0 37 46 0 38 18 0 37 45 0 36 18 0 37 46 0 38 19 0 39 47 0 40 19 0 39 46 0 38 19 0 39 47 0 40 20 0 41 21 0 42 20 0 41 47 0 40 26 0 45 23 0 44 22 0 43 23 0 44 26 0 45 0 0 1 27 0 0 0 0 1 26 0 45 24 0 46 21 0 42 47 0 40 21 0 42 24 0 46 25 0 47 25 0 47 22 0 43 21 0 42 22 0 43 25 0 47 26 0 45</p>
                </triangles>
            </mesh>
        </geometry>
        <geometry id="ID45">
            <mesh>
                <source id="ID46">
                    <float_array id="ID47" count="459">1468.79 760 -1771.68 1562.89 695 -1488.79 1562.89 695 -1488.79 1503.79 760 -1791.92 1651.4 763.375 -1586.54 1561.78 760 -1648.04 1638.65 763.375 -1649.16 1542.92 760 -1802.42 1648.91 763.375 -1714.91 1583.17 760 -1802.42 1500.65 763.375 -1601.17 1622.17 760 -1791.91 1531.14 763.375 -1545.55 1657.17 760 -1771.66 1586.52 763.375 -1575.17 1685.66 760 -1743.16 1517.4 763.375 -1614.05 1705.91 760 -1708.16 1537.15 763.375 -1567.8 1716.41 760 -1669.15 1578.02 763.375 -1595.67 1716.4 760 -1628.78 1630.65 763.375 -1599.54 1705.9 760 -1589.78 1614.9 763.375 -1648.04 1685.65 760 -1554.78 1628.78 763.375 -1699.41 1657.14 760 -1526.28 1525.54 763.375 -1750.55 1622.14 760 -1506.04 1582.79 763.375 -1722.04 1583.14 760 -1495.54 1454.9 763.375 -1645.05 1542.89 760 -1495.55 1497.78 763.375 -1690.8 1503.77 760 -1506.05 1477.78 763.375 -1645.18 1468.77 760 -1526.3 1515.41 763.375 -1677.3 1440.27 760 -1554.81 1532.79 763.375 -1727.17 1420.02 760 -1589.81 1575.41 763.375 -1699.42 1409.65 760 -1628.81 1409.66 760 -1669.18 1420.03 760 -1708.18 1440.29 760 -1743.18 1664.91 759.5 -1727.16 1673.77 759.5 -1572.41 1649.03 759.5 -1649.29 1589.9 759.5 -1564.79 1524.39 759.5 -1520.67 1491.77 759.5 -1594.3 1517.67 759.5 -1775.8 1429.03 759.5 -1644.93 1488.66 759.5 -1696.8 1585.66 759.5 -1731.92 1615.53 760 -1689.29 1541.54 760 -1710.67 1574.41 760 -1689.29 1499.03 760 -1647.43 1528.03 760 -1672.17 1529.53 760 -1623.3 1544.9 760 -1587.67 1617.03 760 -1612.16 1576.4 760 -1609.17 1604.9 760 -1649.54 1659.66 750 -1723.16 1659.66 750 -1723.16 1617.78 750 -1690.91 1617.78 750 -1690.91 1584.16 750 -1727.67 1584.16 750 -1727.67 1519.42 750 -1769.42 1519.42 750 -1769.42 1539.29 750 -1713.67 1539.29 750 -1713.67 1574.16 750 -1690.92 1574.16 750 -1690.92 1494.4 750 -1646.55 1494.4 750 -1646.55 1525.03 750 -1672.92 1525.03 750 -1672.92 1491.78 750 -1694.18 1491.78 750 -1694.18 1435.03 750 -1644.81 1435.03 750 -1644.81 1526.65 750 -1621.17 1526.65 750 -1621.17 1494.77 750 -1596.68 1494.77 750 -1596.68 1542.9 750 -1583.3 1542.9 750 -1583.3 1619.28 750 -1609.29 1619.28 750 -1609.29 1576.28 750 -1606.17 1576.28 750 -1606.17 1525.77 750 -1526.42 1525.77 750 -1526.42 1588.27 750 -1568.54 1588.27 750 -1568.54 1668.02 750 -1575.66 1668.02 750 -1575.66 1606.4 750 -1648.79 1606.4 750 -1648.79 1644.53 750 -1649.04 1644.53 750 -1649.04 1482.89 695 -1510.3 1482.89 695 -1510.3 1482.89 750 -1510.3 1482.89 750 -1510.3 1424.27 750 -1568.93 1424.27 750 -1568.93 1424.27 695 -1568.93 1424.27 695 -1568.93 1402.9 750 -1648.93 1402.9 750 -1648.93 1402.9 695 -1648.93 1402.9 695 -1648.93 1424.29 750 -1729.06 1424.29 750 -1729.06 1424.29 695 -1729.06 1424.29 695 -1729.06 1482.92 750 -1787.68 1482.92 750 -1787.68 1482.92 695 -1787.68 1482.92 695 -1787.68 1562.92 750 -1809.17 1562.92 750 -1809.17 1562.92 695 -1809.17 1562.92 695 -1809.17 1643.04 750 -1787.66 1643.04 750 -1787.66 1643.04 695 -1787.66 1643.04 695 -1787.66 1701.66 750 -1729.03 1701.66 750 -1729.03 1701.66 695 -1729.03 1701.66 695 -1729.03 1723.15 750 -1648.9 1723.15 750 -1648.9 1723.15 695 -1648.9 1723.15 695 -1648.9 1701.65 750 -1568.91 1701.65 750 -1568.91 1701.65 695 -1568.91 1701.65 695 -1568.91 1643.02 750 -1510.29 1643.02 750 -1510.29 1643.02 695 -1510.29 1643.02 695 -1510.29 1562.89 750 -1488.79 1562.89 750 -1488.79</float_array>
                    <technique_common>
                        <accessor count="153" source="#ID47" stride="3">
                            <param name="X" type="float"/>
                            <param name="Y" type="float"/>
                            <param name="Z" type="float"/>
                        </accessor>
                    </technique_common>
                </source>
                <source id="ID48">
                    <float_array id="ID49" count="366">0.756552 0.651653 0.0545658 0.98245 0.139991 -0.123267 0.608249 0.786664 0.105795 0.943476 0.123867 -0.307425 0.0698752 0.288049 0.955063 0.173402 0.708512 0.684063 0.400211 0.260995 0.878471 0.0673476 0.816101 0.573971 0.548675 0.240521 0.80069 -0.866358 0.33244 0.372702 -0.57034 0.735549 0.365622 -0.696043 0.337938 0.6335 -0.51712 0.829044 0.212777 -0.582845 0.33434 0.740613 -0.632376 0.236242 -0.737761 -0.549255 0.701412 -0.454247 -0.835482 0.286933 -0.468657 -0.378403 0.81516 -0.438549 -0.901229 0.297326 -0.315251 0.541553 0.124676 -0.83137 0.28948 0.643996 -0.708146 0.187651 0.152979 -0.97025 0.29975 0.785364 -0.541621 9.39062e-005 0.160393 -0.987053 0.952087 0.167489 0.255888 0.169464 0.963254 0.208382 0.684011 0.619478 0.385197 0.403669 0.851568 0.33449 0.621095 0.740417 0.256951 0.240958 0.965778 -0.095983 0.557115 0.6568 -0.508171 0.414169 0.870677 -0.265301 0.384052 0.763992 -0.518479 -0.0425057 0.945686 -0.322291 -0.331071 0.607645 -0.721914 -0.106744 0.902293 -0.417701 -0.395468 0.737082 -0.54801 -0.344147 0.937563 -0.0503916 -0.842388 0.528089 0.107259 -0.472972 0.880429 -0.033792 -0.703858 0.688904 0.173188 -0.139738 0.957914 0.250749 -0.161729 0.540026 0.825963 -0.218328 0.819326 0.53013 -0.086148 0.687367 0.721183 -0.525532 0.847508 0.0744702 -0.903832 0.426869 -0.029509 -0.33532 0.936438 0.103175 -0.437569 0.544273 0.715752 -0.0951719 0.914686 0.392799 -0.354544 0.428573 0.831038 -0.0293095 0.907959 0.418032 -0.491609 0.421019 0.762276 0.870337 0.374664 0.319594 0.408419 0.882505 0.233192 0.709779 0.394723 0.583445 0.402393 0.904072 0.14399 0.604139 0.390728 0.694513 0.584854 0.362987 -0.725387 0.308992 0.909291 -0.278773 0.78096 0.368525 -0.504273 0.221427 0.931548 -0.288424 0.856169 0.352573 -0.377712 -0.514764 0.388817 -0.764094 -0.193331 0.883026 -0.427655 -0.232584 0.38753 -0.892034 -0.194638 0.9367 -0.291049 -0.0826875 0.367069 -0.926511 -0.863302 0.421797 0.277124 -0.292075 0.920195 0.260639 -0.106166 0.924432 0.366272 0.134518 0.911239 0.389293 0.321495 0.92258 0.213277 0.429974 0.902786 -0.00998962 0.453009 0.882435 -0.126852 0.0928484 0.898422 -0.429206 0.00926852 0.999907 0.00995049 -0.0104145 0.99943 0.0321094 0.000204626 0.999989 0.00460371 -0.00152974 0.999988 0.00462496 0 1 -0 -0.0115593 0.999928 0.00307176 -0.00846071 0.999963 0.0013435 -0.012588 0.999914 -0.00360736 -0.00829739 0.99991 -0.0105688 0.011468 0.999923 -0.00469707 0.00428817 0.999987 -0.00284765 0.00452665 0.999973 -0.00582142 0.00955318 0.999869 -0.0130381 0.00332909 0.999745 -0.0223448 -0.00208232 0.999959 -0.00878762 -0.00261792 0.999988 -0.00408454 -0.379172 0.912259 -0.154959 -0.347519 0.916415 -0.198532 0.0402801 0.908335 -0.416298 0.0109449 0.999933 0.00380735 0.00422533 0.999987 0.00278019 0.463861 0.829499 0.31107 0.267545 0.581905 0.767988 -0.157567 0.829498 0.535822 -0.677502 0.559255 0.477729 0.852791 0.521645 -0.0251863 -0.259633 0 0.965707 0.25907 0 0.965859 0.707039 0 0.707175 0.965707 0 0.259633 0.965859 -0 -0.25907 -0.00595096 0.999929 0.0103731 0.707175 -0 -0.707039 0.259256 -0 -0.965809 -0.259448 0 -0.965757 -0.707039 0 -0.707175 -0.966185 0 -0.257849 -0.966134 0 0.258039 -0.966134 0 0.258039 -0.707175 0 0.707039 -0.602426 0.75572 0.256847 -0.438609 0.750541 -0.494277 -0.671986 0.545465 -0.500902 0.402384 0.637128 -0.657385 0.296326 0.504329 -0.811075 -0.0151324 0.999818 0.0116194</float_array>
                    <technique_common>
                        <accessor count="122" source="#ID49" stride="3">
                            <param name="X" type="float"/>
                            <param name="Y" type="float"/>
                            <param name="Z" type="float"/>
                        </accessor>
                    </technique_common>
                </source>
                <source id="ID50">
                    <float_array id="ID51" count="306">0.333496 0.624023 0.32959 0.631348 0.398438 0.807617 0.398193 0.825684 0.567383 0.697021 0.576904 0.70874 0.756104 0.686523 0.776855 0.697266 0.70874 0.5 0.726563 0.5 0.756104 0.313721 0.776855 0.302979 0.567383 0.303223 0.576904 0.291504 0.398438 0.192627 0.398193 0.174561 0.333496 0.376221 0.32959 0.368896 0.171875 0.5 0.158203 0.5 -2.32153 0.170654 -2.14795 0.327637 -2.12598 0.289063 -1.96948 0.336914 -1.90747 0.300537 -2.0144 0.5 -1.9624 0.5 -1.96948 0.66333 -1.90747 0.699707 -2.14795 0.672607 -2.12598 0.711182 -2.30786 0.769531 -2.32153 0.82959 -2.36914 0.608643 -2.39648 0.632813 -2.52222 0.5 -2.58374 0.5 -2.36914 0.391602 -2.39648 0.367432 -2.30786 0.230713 0.160645 0.757813 0.179443 0.745605 -0.135986 0.5 -0.103027 0.5 0.160645 0.242432 0.179443 0.254639 0.295898 -0.134521 0.308105 -0.104248 0.647461 0.0881348 0.643066 0.107666 1.03833 0.112549 1.01514 0.131104 0.94458 0.5 0.925781 0.5 1.03833 0.887695 1.01514 0.869141 0.647461 0.912109 0.643066 0.892578 0.295898 1.13452 0.308105 1.10425 -1.86938 0.5 -1.8269 0.756592 -2.10059 0.798584 -2.35889 0.923584 -2.4834 0.687988 -2.6958 0.5 -2.4834 0.312256 0.5 -0.265625 0.301758 -0.239502 0.116943 -0.163086 -0.163086 0.117188 -0.0412598 -0.0412598 -0.239502 0.698242 -0.163086 0.883057 -0.0412598 1.04126 0.301758 1.2395 0.116943 1.16309 1.2395 0.302002 1.16309 0.117188 1.26563 0.5 1.2395 0.698242 1.16309 0.883057 1.04126 1.04126 0.882813 1.16309 0.5 1.26563 -1.8269 0.243652 -2.10059 0.20166 -2.35889 0.0766602 1.04126 -0.0412598 0.697998 -0.239502 0.507324 0.5 -2.38818 1 -2.08911 0.824707 -1.75659 0.80542 -1.83643 0.5 -2.50317 0.703125 2.5 -3.99585 2.5 -3.47583 2.75 -3.99585 2.75 -3.47583 3 -3.99585 3 -3.47583 3.25 -3.99585 3.25 -3.47583 -2.49976 -3.99585 -2.49976 -3.47583 -2.24976 -3.99585 -2.24976 -3.47583 -1.99976 -3.99585 -1.99976 -3.47583 -1.74976 -3.99585 -1.74976 -3.47583 -1.49976 -3.99585 -1.49976 -3.47583 -1.24976 -3.99585 -1.24976 -3.47583 -0.239502 0.302002 -0.999756 -3.99585 -0.999756 -3.47583 -0.749756 -3.99585 -0.749756 -3.47583 -0.499756 -3.99585 -0.499756 -3.47583 -0.249756 -3.99585 -0.249756 -3.47583 0 -3.99585 0 -3.47583 0.25 -3.99585 0.25 -3.47583 0.5 -3.99585 0.5 -3.47583 0.75 -3.99585 0.75 -3.47583 1 -3.99585 1 -3.47583 1.25 -3.99585 1.25 -3.47583 1.5 -3.99585 1.5 -3.47583 1.75 -3.99585 1.75 -3.47583 2 -3.99585 2 -3.47583 2.25 -3.99585 2.25 -3.47583 -1.75659 0.194824 -2.38818 0 -2.08911 0.175537 -2.75586 0.5 -2.50317 0.297119 0.882813 -0.163086 -0.265625 0.5 0.697998 1.2395</float_array>
                    <technique_common>
                        <accessor count="153" source="#ID51" stride="2">
                            <param name="S" type="float"/>
                            <param name="T" type="float"/>
                        </accessor>
                    </technique_common>
                </source>
                <vertices id="ID52">
                    <input semantic="POSITION" source="#ID46"/>
                </vertices>
                <triangles count="168" material="Material1">
                    <input offset="0" semantic="VERTEX" source="#ID52"/>
                    <input offset="1" semantic="NORMAL" source="#ID48"/>
                    <input offset="2" semantic="TEXCOORD" source="#ID50" set="0"/>
                    <p>64 2 2 103 1 1 66 0 0 103 1 1 64 2 2 93 3 3 65 5 4 93 4 3 64 2 2 93 4 3 65 5 4 95 6 5 63 7 6 95 6 5 65 5 4 95 6 5 63 7 6 91 8 7 62 10 8 91 9 7 63 7 6 91 9 7 62 10 8 87 11 9 60 12 10 87 11 9 62 10 8 87 11 9 60 12 10 79 13 11 61 15 12 79 14 11 60 12 10 79 14 11 61 15 12 81 16 13 58 17 14 81 16 13 61 15 12 81 16 13 58 17 14 75 18 15 59 20 16 75 19 15 58 17 14 75 19 15 59 20 16 77 21 17 57 22 18 77 21 17 59 20 16 77 21 17 57 22 18 69 23 19 66 0 0 69 24 19 57 22 18 69 24 19 66 0 0 103 1 1 38 27 22 82 26 21 40 25 20 82 26 21 38 27 22 80 28 23 36 29 24 80 28 23 38 27 22 80 28 23 36 29 24 88 30 25 16 31 26 88 30 25 36 29 24 88 30 25 16 31 26 92 32 27 18 33 28 92 32 27 16 31 26 92 32 27 18 33 28 96 34 29 20 35 30 96 34 29 18 33 28 96 34 29 20 35 30 94 36 31 22 37 32 94 36 31 20 35 30 94 36 31 22 37 32 104 38 33 24 39 34 104 38 33 22 37 32 104 38 33 24 39 34 70 40 35 26 41 36 70 40 35 24 39 34 70 40 35 26 41 36 78 42 37 42 43 38 78 42 37 26 41 36 78 42 37 42 43 38 76 44 39 40 25 20 76 44 39 42 43 38 76 44 39 40 25 20 82 26 21 47 47 42 105 46 41 49 45 40 105 46 41 47 47 42 67 48 43 56 49 44 67 48 43 47 47 42 67 48 43 56 49 44 71 50 45 53 51 46 71 50 45 56 49 44 71 50 45 53 51 46 73 52 47 55 54 48 73 53 47 53 51 46 73 53 47 55 54 48 83 55 49 54 56 50 83 55 49 55 54 48 83 55 49 54 56 50 85 57 51 52 59 52 85 58 51 54 56 50 85 58 51 52 59 52 89 60 53 51 61 54 89 60 53 52 59 52 89 60 53 51 61 54 97 62 55 50 64 56 97 63 55 51 61 54 97 63 55 50 64 56 99 65 57 48 66 58 99 65 57 50 64 56 99 65 57 48 66 58 101 67 59 49 45 40 101 68 59 48 66 58 101 68 59 49 45 40 105 46 41 10 69 60 16 31 26 36 29 24 16 31 26 10 69 60 18 33 28 12 70 61 18 33 28 10 69 60 18 33 28 12 70 61 20 35 30 14 71 62 20 35 30 12 70 61 20 35 30 14 71 62 22 37 32 4 72 63 22 37 32 14 71 62 22 37 32 4 72 63 24 39 34 6 73 64 24 39 34 4 72 63 24 39 34 6 73 64 26 41 36 8 74 65 26 41 36 6 73 64 26 41 36 8 74 65 30 75 66 53 51 46 0 76 67 55 54 48 0 76 67 53 51 46 3 77 68 56 49 44 3 77 68 53 51 46 3 77 68 56 49 44 7 78 69 11 79 70 7 78 69 56 49 44 7 78 69 11 79 70 9 80 71 49 45 40 17 81 72 47 47 42 17 81 72 49 45 40 19 82 73 48 66 58 19 82 73 49 45 40 19 82 73 48 66 58 21 83 74 25 84 75 21 83 74 48 66 58 21 83 74 25 84 75 23 80 76 39 86 79 43 85 78 41 80 77 43 85 78 39 86 79 52 59 52 37 87 80 52 59 52 39 86 79 52 59 52 37 87 80 35 88 81 31 90 83 51 61 54 33 89 82 51 61 54 31 90 83 50 64 56 27 91 84 50 64 56 31 90 83 50 64 56 27 91 84 25 84 75 36 29 24 32 92 85 10 69 60 32 92 85 36 29 24 34 93 86 38 27 22 34 93 86 36 29 24 34 93 86 38 27 22 40 25 20 30 75 66 42 43 38 26 41 36 42 43 38 30 75 66 40 25 20 28 94 87 40 25 20 30 75 66 40 25 20 28 94 87 34 93 86 55 54 48 44 95 88 54 56 50 44 95 88 55 54 48 46 96 89 0 76 67 46 96 89 55 54 48 5 80 90 58 17 14 61 15 12 58 17 14 5 80 90 59 20 16 57 22 18 59 20 16 5 80 90 4 72 63 100 98 92 102 97 91 100 98 92 4 72 63 14 71 62 100 98 92 12 70 61 98 99 93 12 70 61 100 98 92 14 71 62 90 100 94 12 70 61 10 69 60 12 70 61 90 100 94 98 99 93 106 101 95 4 72 63 102 97 91 4 72 63 106 101 95 6 73 64 2 102 98 110 102 97 108 102 96 110 102 97 2 102 98 152 102 99 150 103 102 151 103 101 1 103 100 151 103 101 150 103 102 148 103 103 146 104 106 147 104 105 149 104 104 147 104 105 146 104 106 144 104 107 142 105 110 143 105 109 145 105 108 143 105 109 142 105 110 140 105 111 138 106 114 139 106 113 141 106 112 139 106 113 138 106 114 136 106 115 13 107 116 56 49 44 47 47 42 56 49 44 13 107 116 11 79 70 134 108 119 135 108 118 137 108 117 135 108 118 134 108 119 132 108 120 130 109 123 131 109 122 133 109 121 131 109 122 130 109 123 128 109 124 126 110 127 127 110 126 129 110 125 127 110 126 126 110 127 124 110 128 122 111 131 123 111 130 125 111 129 123 111 130 122 111 131 120 111 132 118 112 135 119 112 134 121 112 133 119 112 134 118 112 135 116 112 136 114 114 139 115 114 138 117 113 137 115 114 138 114 114 139 112 113 140 107 115 143 111 115 142 113 115 141 111 115 142 107 115 143 109 115 144 86 116 145 10 69 60 32 92 85 10 69 60 86 116 145 90 100 94 60 12 10 5 80 90 61 15 12 5 80 90 60 12 10 62 10 8 63 7 6 5 80 90 62 10 8 5 80 90 63 7 6 65 5 4 64 2 2 5 80 90 65 5 4 5 80 90 64 2 2 66 0 0 74 117 146 34 93 86 28 94 87 34 93 86 74 117 146 84 118 147 32 92 85 84 118 147 86 116 145 84 118 147 32 92 85 34 93 86 8 74 65 106 101 95 68 119 148 106 101 95 8 74 65 6 73 64 68 119 148 30 75 66 8 74 65 30 75 66 68 119 148 72 120 149 28 94 87 72 120 149 74 117 146 72 120 149 28 94 87 30 75 66 44 95 88 46 96 89 45 80 150 13 107 116 47 47 42 15 121 151 51 61 54 35 88 81 33 89 82 25 84 75 48 66 58 50 64 56 43 85 78 52 59 52 54 56 50 52 59 52 35 88 81 51 61 54 54 56 50 44 95 88 43 85 78 27 91 84 31 90 83 29 80 152 47 47 42 17 81 72 15 121 151 57 22 18 5 80 90 66 0 0</p>
                </triangles>
            </mesh>
        </geometry>
        <geometry id="ID54">
            <mesh>
                <source id="ID55">
                    <float_array id="ID56" count="339">1897.25 720 -1532.38 1897.25 720 -1532.38 1897.25 720 -1532.38 1742.75 720.375 -1678.63 1742.75 720.375 -1678.63 1742.75 720.375 -1678.63 1742.75 720.375 -1678.63 1742.75 720.375 -1678.63 1742.75 720.375 -1678.63 1742.75 720.375 -1678.63 1742.5 699.25 -1698 1716.25 699 -1693.63 1744.25 690.5 -1678.25 1719.5 690.375 -1674.13 1745.25 699.375 -1657.88 1722 699.125 -1653.63 1744.63 720.5 -1651.38 1721.88 720.375 -1647.13 1743 741.5 -1659.25 1719.63 741.25 -1655 1741.25 750.125 -1680 1716.25 749.875 -1675.88 1740.25 741.25 -1699.38 1713.88 741 -1695 1740.88 720.125 -1705.5 1740.88 720.125 -1705.5 1714.13 719.875 -1701 1714.13 719.875 -1701 1915.88 741 -1540.38 1923.88 741 -1521.63 1897.25 749.75 -1532.38 1905.25 749.75 -1513.63 1872.13 720 -1521.63 1880.25 720 -1503 1878.63 741 -1524.38 1886.63 741 -1505.75 1922.25 719.875 -1543.13 1930.38 719.875 -1524.38 3219.13 382.125 161 3174.63 382.25 190 3373.13 382.25 807.75 3423.63 382.125 816.625 2880.25 565.375 -1139.63 2935.38 565.375 -1162.5 3032.38 454.5 -463.875 2972.25 454.5 -471 3196.88 391.25 175.625 3398.5 391.25 812.375 2908 575.375 -1151.13 3002.25 463.5 -467.375 3167.25 352.375 194.875 3226.63 352.125 156.25 3364.75 352.125 806.125 3432 352.125 818.125 2871 535.75 -1135.75 2944.5 535.75 -1166.25 3042.38 424.625 -462.75 2962.25 424.625 -472.25 2338.13 755.25 -1795.75 2322.88 765.125 -1769.63 2345.75 725.375 -1803 2307.75 725.375 -1732.38 2309.63 755.25 -1742.63 2875.13 382.25 1192.75 2887.13 391.125 1214.38 2872.25 352.375 1184.88 2907.63 352.125 1240.25 2901.75 382.125 1234.25 2905 391.125 1206.63 2919.88 382.125 1226.25 2925.63 352.125 1232.38 2889.5 352.375 1177.38 2892.75 382.25 1185.13 2337.5 757.625 -1760.63 2324.13 747.625 -1733.75 2322 716.375 -1723.63 2360.13 716.375 -1794.13 2352.75 747.625 -1786.63 2900.75 576.5 -1166.63 2873.25 566.5 -1154.38 2864.13 535.75 -1150.25 2936.75 535.75 -1182.38 2927.75 566.5 -1178.5 3002.13 464.625 -482.5 3032.13 455.75 -479 3042.13 425.75 -477.875 2962 425.75 -487.25 2972 455.75 -486 3186 391.25 158.375 3208.5 382.125 144.125 3216 352.125 139.375 3156.25 352.375 177.25 3163.63 382.25 172.5 3405.38 391.25 794.75 3380 382.25 790.625 3371.63 352.125 789.25 3438.63 352.125 800 3430.38 382.125 798.625 3398.38 352.125 812.25 3398.38 352.125 812.25 2907 352.125 1205.25 3196.88 352.125 175.5 3196.88 352.125 175.5 3405.13 352.125 794.75 3002.38 424.375 -467.5 3002.38 424.375 -467.5 3186.13 352.125 158.375 3186.13 352.125 158.375 2907.88 535.75 -1151 3002 425.5 -482.5 3002 425.5 -482.5 2341 716.375 -1758.75 2900.5 535.75 -1166.38</float_array>
                    <technique_common>
                        <accessor count="113" source="#ID56" stride="3">
                            <param name="X" type="float"/>
                            <param name="Y" type="float"/>
                            <param name="Z" type="float"/>
                        </accessor>
                    </technique_common>
                </source>
                <source id="ID57">
                    <float_array id="ID58" count="408">0.459976 0.886575 -0.0490605 0.775128 0.482676 0.407677 0.120805 0.699502 0.704346 0.597852 0.0561475 0.799637 0.183269 0.0406545 0.982222 0.138893 -0.664121 0.73461 0.81042 -0.396278 0.431489 0.273215 -0.961679 -0.0229757 0.00408339 -0.999975 -0.00580193 -0.114976 -0.68456 -0.719832 -0.290815 0.680852 -0.672211 0.154375 0.586032 -0.795446 0.00311811 0.99998 0.00547457 0.591472 0.708618 -0.384735 0.248401 0.786884 0.564898 -0.610487 0.692859 0.383735 -0.61123 0.692431 0.383323 0.00100463 0.999999 -0.000709069 0.00094388 0.999999 -0.000595054 0.502778 0.804332 -0.316646 -0.515509 0.439329 0.735691 -0.697844 0.713087 0.0672308 -0.0600465 0.856138 0.513246 -0.00734007 0.997214 0.0742336 0.560704 0.77512 -0.291205 0.61208 0.668576 -0.422332 0.831794 0.542105 -0.119333 0.354774 0.914523 0.19438 0.71736 0.577208 0.390162 0.452483 0.57717 0.679804 -0.870253 0.313899 0.379641 -0.87061 0.316237 0.376873 -0.676614 0.675991 0.291939 -0.676191 0.677059 0.290444 -9.98333e-005 1 0.000326558 -0.162267 0.267819 -0.949707 -0.161151 0.269166 -0.949516 -0.131172 0.648418 -0.749898 -0.130488 0.648928 -0.749577 0.304079 0.208083 -0.929644 -0.383086 0.270262 -0.883291 0.387758 0.253197 0.886304 0.340159 0.534702 0.773554 0.389081 0.254306 0.885406 -0.859181 0.309608 0.40737 -0.72192 0.579615 0.377991 -0.578179 0.275752 0.7679 -0.171075 0.630641 0.756985 0.855279 0.315474 -0.411064 0.836083 0.46783 0.286531 0.861832 0.309548 -0.401779 0.551079 0.809154 -0.203914 0.478764 0.176654 0.859987 0.496414 0.408232 0.766107 0.903875 0.266478 0.334664 0.571716 0.791455 0.216192 -0.469068 0.169962 -0.866653 -0.487526 0.403976 -0.774029 -0.893552 0.266399 -0.361381 -0.562184 0.795992 -0.22438 -0.0712051 0.991693 0.107119 0.315422 0.791763 0.523087 -0.00411706 0.802256 0.596965 0.00315584 0.802425 -0.596745 -0.813978 0.281712 0.508014 -0.812917 0.282701 0.509162 0.951895 0.201409 0.230933 0.883069 0.447198 0.142139 0.81145 0.283757 -0.510913 -0.948438 0.314505 0.0393951 -0.850684 0.265201 0.453878 0.948165 0.317677 0.00795673 0.595727 0.487209 0.638542 0.865566 0.273356 -0.41961 0.954463 0.260254 -0.145834 0.626044 0.324784 -0.708932 -0.337706 0.324355 0.8836 -0.187047 0.560457 0.806784 0.0700622 0.308965 0.948489 -0.152712 -0.342993 -0.926842 -0.151922 -0.343814 -0.926667 -0.113581 -0.684016 -0.72057 0.870273 0.316869 -0.377118 0.677634 0.675498 -0.290714 0.872041 0.314548 -0.374972 0.678971 0.674593 -0.289694 -0.000405783 1 0.000173136 -0.0133897 0.999699 -0.0205618 0.157619 -0.00117685 -0.987499 0.545064 -0.000824164 0.838394 0.547352 0.00144494 0.836901 0.545968 -0.00267668 0.837802 0.543427 -0.00268195 0.839452 0.834191 0.0530673 -0.548916 0.81637 0.0522535 -0.575161 -0.172752 -0.00132734 0.984965 -0.179206 -0.00324754 0.983806 0.823633 0.0423994 -0.565536 -0.178428 -0.00257355 0.98395 -0.395026 0.000381089 -0.91867 -0.393367 0.00136132 -0.919381 -0.394663 0 -0.918826 0.996171 0.0524009 -0.0699877 0.996239 0.0468619 -0.0728846 0.99653 0.0470723 -0.0686501 0.996311 0.0512997 -0.0687889 0.996314 0.0491417 -0.0703041 0.996307 0.0497645 -0.0699727 0.996345 0.0506433 -0.0687882 0.996572 0.0492023 -0.0665054 -0.404647 -0.00288172 -0.914469 -0.403681 -0.00301772 -0.914895 -0.404765 -0.00312669 -0.914416 -0.403794 -0.00289816 -0.914845 -0.405612 -0.00274572 -0.914041 -0.405263 -0.00237533 -0.914197 0.875562 0.0946521 0.473743 0.114501 0.00091364 -0.993423 0.116407 0.000441852 -0.993201 0.116724 0.00084772 -0.993164 0.117934 0.00206449 -0.993019 0.38328 0.00162443 0.923631 0.384391 0.00154214 0.923169 0.115773 -0.000369881 -0.993276 0.115643 -0.000369467 -0.993291 -0.117572 -0.00219592 0.993062 -0.117756 -0.0030568 0.993038 -0.117908 -0.00207312 0.993022 -0.534337 -0.00199002 -0.845269 -0.533732 -0.00212952 -0.845651 -0.53414 -0.00255513 -0.845392 -0.536647 -0.000559007 -0.843807 -0.534436 -0.00170746 -0.845207 -0.535546 -0.00171101 -0.844504 0.153825 -0.00183991 -0.988097 0.154826 -0.00270331 -0.987938</float_array>
                    <technique_common>
                        <accessor count="136" source="#ID58" stride="3">
                            <param name="X" type="float"/>
                            <param name="Y" type="float"/>
                            <param name="Z" type="float"/>
                        </accessor>
                    </technique_common>
                </source>
                <source id="ID59">
                    <float_array id="ID60" count="212">-0.399902 -0.399902 -0.199951 -0.399902 -0.199951 -0.599854 0 -0.399902 0 -0.599854 0.199951 -0.599854 0.199951 -0.399902 0.399902 -0.399902 0.399902 -0.599854 0.599854 -0.599854 1.12622 -5.59985 1.12622 -5.52002 1.50562 -5.59985 1.50562 -5.52051 1.87622 -5.52002 1.12451 -1.19995 1.12451 -1.13989 1.49854 -1.19995 1.49829 -1.13989 1.87451 -1.13989 1.12476 0.800049 1.125 0.844971 1.49976 0.799805 1.5 0.844482 1.875 0.844238 1.87451 6.19995 1.87476 6.13477 1.49854 6.19995 1.49902 6.13477 1.12476 6.13477 0 2.59985 0 2.3999 -0.199951 2.59985 -0.199951 2.3999 -0.399902 2.3999 -0.799805 -0.599854 -0.799805 -0.399902 -0.599854 -0.599854 -0.599854 -0.399902 1 -5.51978 1 -5.59985 2 -5.59985 1.87622 -5.59985 2 -5.51978 1 3.08496 1.12622 3.08496 1 3.0249 1.12622 3.0249 2 3.0249 1.87622 3.0249 2 3.08496 1.87622 3.08496 2 -3.7998 1.87573 -3.80005 2 -3.71997 1.87573 -3.71997 1 -3.71997 1.12573 -3.71997 1 -3.7998 1.12573 -3.80005 1.50488 3.08496 1.50488 3.0249 1.50293 -3.80054 1.50342 -3.72046 1 -1.13989 1 -1.19995 2 -1.19995 1.87451 -1.19995 2 -1.13989 1 0.845215 1 0.800049 2 0.800049 1.87476 0.800049 2 0.844238 2 6.13477 2 6.19995 1 6.19995 1.12451 6.19995 1 6.13477 0.998047 -0.599854 0.998047 -0.399902 0.599854 -0.399902 -0.799805 2.59985 -0.599854 2.59985 -0.799805 2.3999 -0.599854 2.3999 -0.399902 2.59985 -0.399902 -0.599854 1.50073 -3.71997 1.69946 -1.19995 1.41797 -5.52002 1.70068 -3.80005 -0.699951 2.3999 -0.0998535 2.3999 0.799072 -0.399902 -0.0998535 -0.399902 0.299805 -0.399902 -0.699951 -0.399902 0.0998535 -0.399902 0.5 -0.399902 1.50098 3.07764 1.49976 6.13623 2 0.842285 1.30127 3.01978 1.49976 0.800049 1.29932 -1.13989</float_array>
                    <technique_common>
                        <accessor count="106" source="#ID60" stride="2">
                            <param name="S" type="float"/>
                            <param name="T" type="float"/>
                        </accessor>
                    </technique_common>
                </source>
                <vertices id="ID61">
                    <input semantic="POSITION" source="#ID55"/>
                </vertices>
                <triangles count="124" material="Material1">
                    <input offset="0" semantic="VERTEX" source="#ID61"/>
                    <input offset="1" semantic="NORMAL" source="#ID57"/>
                    <input offset="2" semantic="TEXCOORD" source="#ID59" set="0"/>
                    <p>19 2 2 18 1 1 20 0 0 18 1 1 19 2 2 16 3 3 17 4 4 16 3 3 19 2 2 16 3 3 17 4 4 15 5 5 15 5 5 14 6 6 16 3 3 14 6 6 15 5 5 12 7 7 13 8 8 12 7 7 15 5 5 12 7 7 13 8 8 11 9 9 64 12 12 72 11 11 63 10 10 72 11 11 64 12 12 68 13 13 69 14 14 68 13 13 64 12 12 46 17 17 92 16 16 39 15 15 92 16 16 46 17 17 88 18 18 89 19 19 88 18 18 46 17 17 49 22 22 87 21 21 45 20 20 87 21 21 49 22 22 83 23 23 84 24 24 83 23 23 49 22 22 59 27 27 77 26 26 58 25 25 77 26 26 59 27 27 73 28 28 74 29 29 73 28 28 59 27 27 35 32 32 32 31 31 33 30 30 32 31 31 35 32 32 34 33 33 30 34 34 34 33 33 35 32 32 23 37 37 24 36 36 26 35 35 24 36 36 23 37 37 22 38 38 20 0 0 22 38 38 23 37 37 65 40 40 72 11 11 71 39 39 72 11 11 65 40 40 63 10 10 70 43 43 67 42 42 66 41 41 67 42 42 70 43 43 69 14 14 54 46 46 79 45 45 80 44 44 79 45 45 54 46 46 42 47 47 81 50 50 43 49 49 55 48 48 43 49 49 81 50 50 82 51 51 96 54 54 41 53 53 53 52 52 41 53 53 96 54 54 97 55 55 52 58 58 94 57 57 95 56 56 94 57 57 52 58 58 40 59 59 42 47 47 78 60 60 79 45 45 78 60 60 42 47 47 48 61 61 97 55 55 47 62 62 41 53 53 47 62 62 97 55 55 93 63 63 40 59 59 93 63 63 94 57 57 93 63 63 40 59 59 47 62 62 48 61 61 82 51 51 78 60 60 82 51 51 48 61 61 43 49 49 50 65 65 92 16 16 91 64 64 92 16 16 50 65 65 39 15 15 90 68 68 38 67 67 51 66 66 38 67 67 90 68 68 89 19 19 57 70 70 87 21 21 86 69 69 87 21 21 57 70 70 45 20 20 85 73 73 44 72 72 56 71 71 44 72 72 85 73 73 84 24 24 60 75 75 77 26 26 76 74 74 77 26 26 60 75 75 58 25 25 75 78 78 62 77 77 61 76 76 62 77 77 75 78 78 74 29 29 25 80 80 11 9 9 27 79 79 11 9 9 25 80 80 10 81 81 36 84 84 29 83 83 37 82 82 29 83 83 36 84 84 28 85 85 31 86 86 30 34 34 35 32 32 30 34 34 31 86 86 29 83 83 21 87 87 20 0 0 23 37 37 20 0 0 21 87 87 19 2 2 94 57 57 93 63 63 103 88 88 51 66 66 38 67 67 102 89 89 39 90 15 50 90 65 101 90 65 38 67 67 46 91 17 102 89 89 46 91 17 39 92 15 102 89 89 68 13 13 69 94 14 100 93 90 53 52 52 41 53 53 99 95 91 40 96 59 52 96 58 98 96 58 69 94 14 70 97 43 100 93 90 41 53 53 47 62 62 99 95 91 47 62 62 40 98 59 99 95 91 72 11 11 68 13 13 100 93 90 2 99 92 28 99 85 36 99 84 1 100 93 32 100 31 34 100 33 0 101 34 34 101 33 30 101 34 71 39 39 72 11 11 100 93 90 9 102 94 10 102 81 25 102 80 3 104 0 22 103 38 20 0 0 8 105 95 18 1 1 16 3 3 7 106 96 14 6 6 12 7 7 6 107 97 24 107 36 22 107 38 3 104 0 20 0 0 18 1 1 5 108 98 16 3 3 14 6 6 4 109 99 12 109 7 10 109 81 78 112 60 82 111 51 112 110 100 0 101 34 30 101 34 28 101 85 82 111 51 81 113 50 112 110 100 69 14 14 64 12 12 67 42 42 80 115 44 79 114 45 112 110 100 79 114 45 78 112 60 112 110 100 73 28 28 74 29 29 111 116 101 76 74 74 77 26 26 111 116 101 74 29 29 75 78 78 111 116 101 77 26 26 73 28 28 111 116 101 84 24 24 85 73 73 110 117 102 86 120 69 87 119 21 109 118 23 55 122 48 43 49 49 108 121 103 42 47 47 54 46 46 108 121 103 83 124 23 84 123 24 109 118 23 46 17 17 38 67 67 89 19 19 43 49 49 48 61 61 108 121 103 87 119 21 83 124 23 109 118 23 48 61 61 42 47 47 108 121 103 49 22 22 44 72 72 84 24 24 45 20 20 57 70 70 105 125 70 56 127 71 44 72 72 104 126 104 91 130 64 92 129 16 106 128 105 74 29 29 59 27 27 62 77 77 89 131 19 90 131 68 107 131 68 49 22 22 45 20 20 104 126 104 92 129 16 88 132 18 106 128 105 88 132 18 89 133 19 106 128 105 44 72 72 49 22 22 104 126 104 93 63 63 97 134 55 103 88 88 97 134 55 96 135 54 103 88 88 95 56 56 94 57 57 103 88 88 11 9 9 10 81 81 12 7 7 29 83 83 28 85 85 30 34 34</p>
                </triangles>
            </mesh>
        </geometry>
        <geometry id="ID63">
            <mesh>
                <source id="ID64">
                    <float_array id="ID65" count="60">1512.26 775 -1486.17 1700.4 775 -1551.03 1696.91 775 -1749.91 1506.67 775 -1808.05 1392.53 775 -1645.19 1455.66 775 -1725.3 1601.67 775 -1775.67 1694.66 775 -1652.28 1606.02 775 -1525.79 1458.27 775 -1570.93 1418.03 775 -1645.56 1510.03 775 -1683.67 1515.04 775 -1784.05 1579.16 775 -1707.54 1676.66 775 -1734.53 1623.15 775 -1649.04 1679.52 775 -1565.53 1581.15 775 -1589.17 1519.77 775 -1510.55 1511.28 775 -1610.67</float_array>
                    <technique_common>
                        <accessor count="20" source="#ID65" stride="3">
                            <param name="X" type="float"/>
                            <param name="Y" type="float"/>
                            <param name="Z" type="float"/>
                        </accessor>
                    </technique_common>
                </source>
                <source id="ID66">
                    <float_array id="ID67" count="3">0 1 -0</float_array>
                    <technique_common>
                        <accessor count="1" source="#ID67" stride="3">
                            <param name="X" type="float"/>
                            <param name="Y" type="float"/>
                            <param name="Z" type="float"/>
                        </accessor>
                    </technique_common>
                </source>
                <source id="ID68">
                    <float_array id="ID69" count="40">0.64917 0.61084 0.992188 0.5 0.919922 0.5 0.64917 0.389404 0.626709 0.405518 0.625732 0.095459 0.446777 0.346924 0.438721 0.321045 0.150146 0.25 0.0917969 0.20752 0.308594 0.5 0.335449 0.5 0.150146 0.750244 0.446777 0.65332 0.438721 0.679199 0.625732 0.904785 0.648193 0.973633 0.626709 0.594727 0.648193 0.0266113 0.0917969 0.792725</float_array>
                    <technique_common>
                        <accessor count="20" source="#ID69" stride="2">
                            <param name="S" type="float"/>
                            <param name="T" type="float"/>
                        </accessor>
                    </technique_common>
                </source>
                <vertices id="ID70">
                    <input semantic="POSITION" source="#ID64"/>
                </vertices>
                <triangles count="28" material="Material1">
                    <input offset="0" semantic="VERTEX" source="#ID70"/>
                    <input offset="1" semantic="NORMAL" source="#ID66"/>
                    <input offset="2" semantic="TEXCOORD" source="#ID68" set="0"/>
                    <p>10 0 2 4 0 1 9 0 0 4 0 1 10 0 2 5 0 3 11 0 4 5 0 3 10 0 2 5 0 3 11 0 4 12 0 5 13 0 6 12 0 5 11 0 4 12 0 5 13 0 6 6 0 7 14 0 8 6 0 7 13 0 6 6 0 7 14 0 8 2 0 9 7 0 10 2 0 9 14 0 8 15 0 11 7 0 10 14 0 8 7 0 10 15 0 11 16 0 12 17 0 13 16 0 12 15 0 11 16 0 12 17 0 13 8 0 14 18 0 15 8 0 14 17 0 13 8 0 14 18 0 15 0 0 16 9 0 0 0 0 16 18 0 15 13 0 6 15 0 11 14 0 8 15 0 11 13 0 6 17 0 13 11 0 4 17 0 13 13 0 6 17 0 13 11 0 4 19 0 17 10 0 2 19 0 17 11 0 4 19 0 17 10 0 2 9 0 0 3 0 18 12 0 5 6 0 7 12 0 5 3 0 18 5 0 3 1 0 19 16 0 12 8 0 14 16 0 12 1 0 19 7 0 10 18 0 15 19 0 17 9 0 0 19 0 17 18 0 15 17 0 13</p>
                </triangles>
            </mesh>
        </geometry>
        <geometry id="ID72">
            <mesh>
                <source id="ID73">
                    <float_array id="ID74" count="579">2440.38 638.75 -1666.5 2667.75 640.125 -1489.38 2355.25 717.75 -1786.13 2728.75 638.375 -1419.13 2810.75 535.25 -1291.38 2858.38 535.375 -1328 2777.38 638.875 -1454.75 2716.25 640.125 -1524.38 2464 661.875 -1713.75 2452.5 668.625 -1694.13 2442.13 661.375 -1673.75 2347.25 741.625 -1782.75 2334.25 748.875 -1762.5 2851.5 558.625 -1325.38 2770.63 662.25 -1452.38 2710.88 663.25 -1520.63 2325 741.625 -1740.25 2326.88 717.75 -1731.5 2900.38 567.125 -1167.13 2878.75 560.25 -1157.5 2872.63 536.5 -1154.38 2928.13 536.5 -1178.38 2921.75 560.25 -1176.13 1912.75 738 -1539 1881.75 738 -1525.63 1783.75 701.875 -1696.38 1743.13 701.875 -1694.63 1776.25 701.875 -1663.88 1744.63 701.875 -1661.25 1814.25 738 -1652 1814.25 738 -1652 1814.25 738 -1652 1793.5 738 -1662.75 1793.5 738 -1662.75 1793.5 738 -1662.75 1774.63 738 -1665.13 1742.38 738 -1662.5 1839.38 738 -1673.88 1839.38 738 -1673.88 1839.38 738 -1673.88 1809.63 738 -1691.5 1809.63 738 -1691.5 1809.63 738 -1691.5 1782.13 738 -1697.5 1740.88 738 -1696 1897.25 745.125 -1532.38 1876.5 720 -1523.5 1917.88 720 -1541.25 1838.75 720 -1607.38 1844 738 -1609.63 1822.63 720 -1634.75 1827.63 738 -1637.75 1810 720 -1647.88 1810 720 -1647.88 1791.13 720 -1657 1791.13 720 -1657 1774.13 720 -1658.88 1743.75 720 -1656.13 1859.5 745.125 -1616.75 1874.63 738 -1623.75 1842.75 745.125 -1646.88 1856.5 738 -1655 1827.5 745.125 -1663.75 1802 745.125 -1678.5 1778.38 745.125 -1682.25 1741.25 745.125 -1679.88 1879.63 720 -1626.13 1861.13 720 -1657.75 1843.5 720 -1677 1843.5 720 -1677 1812.63 720 -1695.38 1812.63 720 -1695.38 1784.13 720 -1702.13 1784.13 720 -1702.13 1741.75 720 -1700.75 1741.75 720 -1700.75 3222.38 381.25 1022 3341.38 381.25 898.25 3235.63 375.75 1030.88 3360 375.625 901 3052.25 352.25 1117.5 2892.38 352.375 1185.25 3240.13 352.125 1033.88 3366.25 352.125 901.875 3315.25 352.375 895.125 3203 352.375 1010.63 3082.63 352.125 1148 3373.63 352.375 806.75 3424.25 352.125 815.25 3067.38 381.25 1132.75 3056 375.5 1121.13 2894.13 376.375 1190.25 2903 381.875 1206 3321.75 375.5 895.75 3207.75 375.5 1013.38 3078.75 375.625 1144.13 3379.5 376.25 807.375 3399 381.875 811.125 3418.38 376.25 814.625 2914.38 376.25 1220.25 2918.63 352.25 1223.75 3410.38 352.375 553 3425.38 352.375 638.625 3470.75 352.125 633.5 3456.5 352.125 541.5 3173.5 352.375 187.625 3303.25 352.375 347.625 3348.13 352.125 324.125 3217.63 352.125 160.75 3418.13 352.125 433.5 3372.5 352.375 450.375 3408.38 352.375 723.5 3455.38 352.125 724.25 3433.63 381.25 547.125 3415.88 375.25 551.625 3430.75 375.25 638 3448.25 381.25 635.875 3465.13 375.625 634.125 3450.88 375.5 542.875 3195.5 381.75 174.25 3178.38 376.125 184.75 3308.75 375.375 344.75 3325.88 381.25 335.75 3342.75 375.375 327 3212.75 376 163.625 3412.5 375.5 435.625 3395.38 381.25 441.875 3377.88 375.25 448.375 3414.13 375.375 723.5 3432 381.25 723.75 3449.5 375.625 724.125 3384.75 376.25 793.125 3403.75 381.875 796.25 3379.25 352.375 792.5 3427.88 352.125 800 3422.38 376.125 799.375 3000.75 378.375 -322.375 3002.63 454.625 -471.25 3024 372.125 -318.375 3026.63 448.5 -466.375 3207.88 352.125 145.25 3105.5 352.125 -11.25 3060.13 352.375 10.875 3164.25 352.375 172.75 3050.13 352.125 -180.375 3000.38 352.375 -167.625 3031.38 349.375 -315.5 2970.88 349.625 -323.375 3033 424.5 -462.5 2971.63 424.625 -472.375 3186 381.75 159 3203.13 376 148.25 3100.13 375 -8.625 3082.75 381.25 -0.125 3169 376.125 169.75 3065.63 375.5 8.125 3044 375 -179.125 3024.5 381.125 -174.625 3006.13 375.5 -169.375 2978.13 372.75 -324.25 2978.38 448.625 -473.75 2907.63 565.875 -1152.13 2941.88 565 -1045 2886 559 -1142.13 2920.63 556.875 -1035.25 2978.25 449.375 -486.625 3002.13 455.125 -483.25 2999.63 465.375 -618.625 2976.38 458.75 -621.75 2964.25 557.5 -1053.75 2956.25 457.25 -887.5 2977.13 463.875 -895.5 2880 535.375 -1138.63 2915.75 534 -1030.38 2971.13 534.125 -1054.75 2935.5 535.375 -1163.25 2969.88 436.25 -622.5 2971.5 425.75 -487.375 3032.63 425.75 -477.75 3029.5 436.375 -614.25 2948.5 434.75 -885 3004.75 434.75 -906.25 2929.13 559.125 -1161.13 3026 449.375 -479.375 3022.63 459.25 -615.5 2998.13 457.25 -903.875 2751.25 669.5 -1439 2833.13 565.375 -1312.38 2732.75 661.625 -1424.63 2815.38 558.125 -1297.75 2674.38 663.25 -1494.25 2693.63 670.125 -1507.5 2468.88 638.75 -1719.13</float_array>
                    <technique_common>
                        <accessor count="193" source="#ID74" stride="3">
                            <param name="X" type="float"/>
                            <param name="Y" type="float"/>
                            <param name="Z" type="float"/>
                        </accessor>
                    </technique_common>
                </source>
                <source id="ID75">
                    <float_array id="ID76" count="570">-0.0313711 0.253603 -0.9668 0.0913788 0.253026 -0.963134 -0.0298959 0.642024 -0.766102 0.0674284 0.645368 -0.76089 0.00895892 0.999738 -0.021068 0.125979 0.904565 -0.407298 0.0147244 0.999555 -0.0259411 0.24841 0.906251 -0.342056 0.0152408 0.999761 -0.0156718 0.605576 0.660928 -0.44323 0.0148293 0.999833 -0.0106521 0.00778088 0.999961 -0.00408337 -0.586723 0.681475 0.437434 -0.662474 0.674434 0.325984 -0.838698 0.304015 0.451842 -0.869662 0.301184 0.391121 -0.755996 0.229391 0.613066 -0.648263 0.547379 0.529275 -0.769337 0.248204 0.588656 -0.538788 0.746825 0.38982 -0.844657 0.247871 0.474461 -0.663688 0.682752 0.30556 -0.92894 0.241619 0.280518 -0.781406 0.594714 0.189 -0.97127 0.23315 0.0477128 -0.734933 0.67733 -0.0331207 -0.940051 0.228447 -0.25321 -0.705642 0.669834 -0.231069 -0.898114 0.220706 -0.380369 -0.554261 0.797226 -0.239217 0.917186 0.21886 0.332972 0.693655 0.67611 0.248432 0.933209 0.230685 0.275509 0.717966 0.675871 0.166503 0.969925 0.235725 0.0606621 0.732343 0.680091 -0.0339133 0.948437 0.238498 -0.208774 0.77052 0.599167 -0.21748 0.885953 0.245473 -0.393486 0.644609 0.687952 -0.33347 0.796694 0.249138 -0.550645 0.538118 0.74439 -0.395363 0.75945 0.239118 -0.605027 0.567584 0.690109 -0.448996 0.871261 0.272536 -0.408201 0.637594 0.706911 -0.306186 0.877073 0.292008 -0.38141 0.775814 0.598707 -0.199155 0.823569 0.289249 -0.487922 0.675222 0.727804 -0.119902 0.532862 0.6423 -0.550916 0.117326 0.978595 0.169077 0.0417453 0.997761 -0.0522461 -0.456621 0.76141 0.460165 0.214333 0.966732 0.139605 -0.198922 0.696923 0.689006 0.405375 0.858946 0.312861 -0.0974638 0.547216 0.831297 -0.380903 0.215116 -0.899243 -0.476496 0.212124 -0.853203 -0.292006 0.663213 -0.689116 -0.366471 0.65678 -0.659045 0.00301957 0.999994 -0.00174913 -0.441423 0.719092 -0.536706 0.000106178 1 -7.13343e-006 0.00121406 0.999995 0.00280337 0.467278 0.718354 0.515382 0.589295 0.670461 0.450791 0.741969 0.223293 0.632157 0.808465 0.223113 0.544615 -0.303105 0.306847 0.902204 -0.401773 0.305754 0.863188 -0.628161 0.31625 0.710915 -0.711543 0.294944 0.637742 -0.394115 0.657698 0.641956 -0.749329 0.29954 0.590578 -0.598924 0.620495 0.506237 -0.875631 0.28192 0.392163 -0.531367 0.81534 0.229934 -0.212964 0.927314 0.307791 -0.0929268 0.927113 0.363079 -0.0155595 0.686909 0.726577 0.0595133 0.686696 0.724505 0.018553 0.136588 0.990454 0.0901032 0.0373669 0.995231 0.0834237 -0.261771 0.961518 -0.911459 0.276597 0.304526 -0.681643 0.693871 0.232178 -0.904722 0.269026 0.330309 -0.685152 0.601286 0.411122 -0.899725 0.317219 0.29978 -0.622195 0.703796 0.342848 -0.95377 0.294565 0.059621 -0.709978 0.702733 0.0458085 -0.960889 0.275001 0.0326749 -0.559246 0.826224 0.0678077 0.962876 0.269942 -0.00103191 0.813783 0.580706 0.0231868 0.958275 0.282685 -0.0424101 0.552222 0.833695 -0.00189276 0.842981 0.536846 0.0343353 0.122707 0.968036 0.218743 0.758544 0.650811 0.0324881 0.0500463 0.966898 0.250208 0.550657 0.817337 -0.16952 0.00305744 0.99997 0.00719025 0.814608 0.229027 -0.532879 0.699572 0.545543 -0.4615 0.853943 0.245407 -0.458865 0.655269 0.694104 -0.298064 0.933446 0.259444 -0.247723 0.69829 0.698121 -0.158172 0.954753 0.295319 -0.0351174 0.617863 0.768779 0.164996 0.938849 0.300632 0.167877 0.635452 0.681512 0.362963 -0.951965 0.275408 0.133836 -0.800864 0.535196 0.268668 -0.944069 0.292376 0.152483 -0.633658 0.737702 0.232966 -0.938814 0.267963 0.216388 -0.692778 0.695333 0.191235 -0.888289 0.255525 0.381642 -0.704176 0.607947 0.366794 -0.816723 0.242909 0.523411 -0.490157 0.814104 0.311417 0.00362609 0.999992 0.00181715 0.002687 0.999996 -0.00045952 -0.00049988 0.999999 0.00122009 -0.00224857 0.999996 0.00142783 -0.814958 0.214631 -0.53831 -0.708304 0.534431 -0.461183 -0.779157 0.225117 -0.58501 -0.567949 0.676927 -0.468192 -0.657536 0.217645 -0.721303 -0.0558705 0.888646 0.455178 -0.0176463 0.974067 0.225572 0.00679016 0.9999 -0.012422 0.618616 0.21877 0.754621 0.432079 0.575108 0.694664 0.315258 0.662658 0.679336 0.0053901 0.999979 0.00356327 0.0779845 0.994329 0.0723062 -0.0607581 0.997228 0.0429483 0.00214116 0.999997 -0.00100158 0.666344 0.669786 -0.327679 0.675829 0.671435 -0.304023 0.871141 0.295401 -0.392238 0.637654 0.734616 -0.231812 0.523178 0.692449 -0.496789 -0.0279763 0.999451 0.0177527 0.0888961 0.994079 -0.062482 0.170194 0.955963 0.239099 0.000256406 0.999959 -0.00902183 -0.00414228 0.99999 -0.00176127 0.711985 0.275311 -0.645973 0.709926 0.278105 -0.647042 0.771415 0.285123 -0.56888 0.842765 0.291429 -0.452567 0.000294087 0.999958 0.00915649 0.00676591 0.999959 -0.00598397 0.95629 0.287316 -0.0543941 0.951145 0.285443 -0.117666 0.609983 0.673744 0.417121 0.466447 0.214425 0.858166 0.914252 0.27669 -0.29595 -0.0410362 -0.301363 -0.952626 -0.0358722 -0.311746 -0.949488 -0.0307031 -0.322084 -0.946213 0.214648 0.252789 -0.943411 0.223696 0.240611 -0.944493 0.492062 0.260814 -0.830573 0.493126 0.259114 -0.830474 0.494188 0.257413 -0.830371 -0.000888811 0.999903 -0.0138935 -0.110983 0.321877 0.940254 -0.104046 0.315075 0.943346 -0.434942 0.325574 0.83954 -0.425481 0.310505 0.850031 -0.415839 0.295304 0.860159 -0.692618 0.312514 0.650089 -0.689963 0.30681 0.655606 -0.75817 0.306523 0.575518 -0.674634 0.673015 0.303184 -0.00180305 0.999935 -0.0112126 0.60483 0.286701 -0.742956 0.631376 0.305743 -0.712661 0.66367 0.267536 -0.698546 0.410771 0.202385 0.888992 0.0799552 -0.256356 0.96327</float_array>
                    <technique_common>
                        <accessor count="190" source="#ID76" stride="3">
                            <param name="X" type="float"/>
                            <param name="Y" type="float"/>
                            <param name="Z" type="float"/>
                        </accessor>
                    </technique_common>
                </source>
                <source id="ID77">
                    <float_array id="ID78" count="386">-0.799805 -0.399902 -0.799805 0 -0.599854 -0.399902 -0.599854 0 -0.399902 0 -0.599854 0.300049 -0.399902 0.300049 -0.599854 0.700195 -0.399902 0.700195 -0.599854 1 -0.399902 1 -0.399902 1.3999 -0.199951 1 -0.199951 1.3999 0 1.3999 0 2.3999 1 -1.19995 1.12451 -1.19995 1 -1.7749 1.12598 -1.7749 1 -2.19995 1.12646 -2.19971 1 -2.59985 1.12671 -2.59985 1 -3 1.1272 -2.99976 1 -3.3999 1.12646 -3.3999 1 -3.71997 1.12573 -3.71997 2 -3.71997 1.87573 -3.71997 2 -3.3999 1.87646 -3.3999 2 -3 1.8772 -2.99976 2 -2.59985 1.87671 -2.59985 2 -2.19995 1.87646 -2.19971 2 -1.7749 1.87598 -1.7749 2 -1.19995 1.87451 -1.19995 2 3.08496 1.87622 3.08496 2 3.625 1.87622 3.62476 2 4.33472 1.87427 4.33667 1.88623 4.74609 1.4978 4.34253 1.54492 4.7666 1.14209 4.82446 1.50366 5.5498 1.12573 5.5498 1.49902 6.13477 1.12476 6.13477 1 -5.51978 1 -5 1.12622 -5.52002 1.12598 -5 1.50415 -5.00049 1.12744 -4.59961 1.5105 -4.59888 1.50903 -4.19946 1.87744 -4.59961 1.8772 -4.19971 2 -4.19995 2 -3.7998 1 6.13477 1 5.5498 1 4.84985 1 4.34985 1.12427 4.34814 1 3.625 1.12622 3.62476 1 3.08496 1.12622 3.08496 -0.199951 0.700195 -0.199951 0.300049 -0.199951 0 -0.199951 -0.399902 0 0 0 -0.399902 0.199951 -0.399902 1 3.0249 1.12622 3.0249 1 2.57495 1.12476 2.57471 1 1.97485 1.14258 1.97974 1 1.25 1.12573 1.24878 1 0.845215 1.125 0.844971 2 0.844238 1.875 0.844238 2 1.24146 1.87573 1.24243 1.88745 1.97021 1.55054 1.98169 1.87476 2.57471 1.49902 2.57471 1.87622 3.0249 1.50488 3.0249 2 -1.13989 1.87451 -1.13989 2 -0.599854 1.87354 -0.599854 2 -0.0249023 1.87183 -0.0244141 2 0.400146 1.87256 0.400391 2 0.800049 1.87476 0.800049 1 0.800049 1.12476 0.800049 1 0.400146 1.12256 0.400391 1 -0.0249023 1.12183 -0.0244141 1 -0.599854 1.12354 -0.599854 1 -1.13989 1.12451 -1.13989 1.49854 -1.19995 1.50439 -1.77441 1.5061 -2.19946 1.50757 -2.59937 1 -3.7998 1.12573 -3.80005 1 -4.19995 1.1272 -4.19971 1 -4.59985 1.49976 0.799805 1.49097 0.401367 1.48804 -0.0234375 2 -4.59985 1.87598 -5 1.87622 -5.52002 1.50562 -5.52051 1.5 0.844482 1.50342 1.24536 -0.399902 2.3999 -0.599854 1.3999 -0.599854 2.3999 -0.799805 2.3999 1.87476 6.13477 1.87573 5.5498 1.49463 -0.599854 1.49829 -1.13989 1.50537 3.62476 1.5061 -3.40039 1.50928 -2.99976 -0.599854 0.800049 -0.799805 0.800049 -0.799805 1 -0.799805 1.3999 1.50293 -3.80054 1.50342 -3.72046 2 1.96631 2 2.57495 1.87573 -3.80005 2 -5 2 3.0249 0.599854 0 0.998047 0 0.599854 -0.399902 0.998047 -0.399902 -0.599854 0.200195 -0.799805 0.200195 -0.599854 0.400146 -0.799805 0.400146 -0.599854 0.600098 -0.799805 0.600098 -0.399902 -0.399902 -0.199951 0.200195 0 0.200195 -0.199951 0.400146 -0.199951 0.600098 0 0.400146 0 0.600098 -0.199951 0.800049 0 0.800049 0 1 -0.199951 2.3999 1.50488 3.08496 2 5.5498 2 6.13477 2 4.73926 2 -5.51978 0.199951 0</float_array>
                    <technique_common>
                        <accessor count="193" source="#ID78" stride="2">
                            <param name="S" type="float"/>
                            <param name="T" type="float"/>
                        </accessor>
                    </technique_common>
                </source>
                <vertices id="ID79">
                    <input semantic="POSITION" source="#ID73"/>
                </vertices>
                <triangles count="236" material="Material1">
                    <input offset="0" semantic="VERTEX" source="#ID79"/>
                    <input offset="1" semantic="NORMAL" source="#ID75"/>
                    <input offset="2" semantic="TEXCOORD" source="#ID77" set="0"/>
                    <p>44 2 2 72 1 1 74 0 0 72 1 1 44 2 2 43 3 3 64 4 4 43 3 3 44 2 2 43 3 3 64 4 4 40 5 5 63 6 6 40 5 5 64 4 4 40 5 5 63 6 6 37 7 7 62 8 8 37 7 7 63 6 6 37 7 7 62 8 8 61 9 9 60 10 10 61 9 9 62 8 8 61 9 9 60 10 10 58 11 11 51 12 12 58 11 11 60 10 10 58 11 11 51 12 12 49 13 13 48 14 14 49 13 13 51 12 12 49 13 13 48 14 14 46 15 15 106 18 18 120 17 17 105 16 16 120 17 17 106 18 18 121 19 19 110 20 20 121 19 19 106 18 18 121 19 19 110 20 20 127 21 21 101 22 22 127 21 21 110 20 20 127 21 21 101 22 22 114 23 23 102 24 24 114 23 23 101 22 22 114 23 23 102 24 24 115 25 25 111 26 26 115 25 25 102 24 24 115 25 25 111 26 26 128 27 27 133 28 28 128 27 27 111 26 26 128 27 27 133 28 28 131 29 29 112 32 32 135 31 31 134 30 30 135 31 31 112 32 32 130 33 33 103 34 34 130 33 33 112 32 32 130 33 33 103 34 34 117 35 35 104 36 36 117 35 35 103 34 34 117 35 35 104 36 36 118 37 37 109 38 38 118 37 37 104 36 36 118 37 37 109 38 38 125 39 39 107 40 40 125 39 39 109 38 38 125 39 39 107 40 40 123 41 41 108 42 42 123 41 41 107 40 40 123 41 41 108 42 42 124 43 43 5 46 46 22 45 45 21 44 44 22 45 45 5 46 46 13 47 47 6 48 48 13 47 47 5 46 46 13 47 47 6 48 48 14 49 49 15 50 50 14 49 49 6 48 48 14 49 49 15 50 50 186 51 51 191 52 52 186 51 51 15 50 50 186 51 51 191 52 52 190 53 53 9 54 54 190 53 53 191 52 52 190 53 53 9 54 54 10 55 55 12 56 56 10 55 55 9 54 54 10 55 55 12 56 56 16 57 57 91 60 60 80 59 59 81 58 58 80 59 59 91 60 60 90 61 61 89 62 62 90 61 61 91 60 60 90 61 61 89 62 62 94 63 63 76 64 64 94 63 63 89 62 62 94 63 63 76 64 64 77 65 65 78 66 66 77 65 65 76 64 64 77 65 65 78 66 66 79 67 67 83 68 68 79 67 67 78 66 66 79 67 67 83 68 68 88 69 69 0 71 71 16 57 57 17 70 70 16 57 57 0 71 71 10 55 55 1 72 72 10 55 55 0 71 71 10 55 55 1 72 72 190 53 53 3 73 73 190 53 53 1 72 72 190 53 53 3 73 73 188 74 74 4 75 75 188 74 74 3 73 73 188 74 74 4 75 75 189 76 76 20 77 77 189 76 76 4 75 75 189 76 76 20 77 77 19 78 78 62 8 8 51 12 12 60 10 10 51 12 12 62 8 8 31 79 79 63 6 6 31 79 79 62 8 8 31 79 79 63 6 6 34 80 80 64 4 4 34 80 80 63 6 6 34 80 80 64 4 4 35 81 81 36 82 82 35 81 81 64 4 4 35 81 81 36 82 82 56 83 83 57 84 84 56 83 83 36 82 82 56 83 83 57 84 84 28 85 85 173 88 88 163 87 87 172 86 86 163 87 87 173 88 88 164 89 89 180 90 90 164 89 89 173 88 88 164 89 89 180 90 90 170 91 91 176 92 92 170 91 91 180 90 90 170 91 91 176 92 92 168 93 93 177 94 94 168 93 93 176 92 92 168 93 93 177 94 94 165 95 95 179 98 98 183 97 97 178 96 96 183 97 97 179 98 98 184 99 99 185 100 100 184 99 99 179 98 98 184 99 99 185 100 100 171 101 101 169 102 102 171 101 101 185 100 100 171 101 101 169 102 102 162 103 103 182 104 104 162 103 103 169 102 102 162 103 103 182 104 104 161 105 105 141 108 108 151 107 107 140 106 106 151 107 107 141 108 108 152 109 109 144 110 110 152 109 109 141 108 108 152 109 109 144 110 110 156 111 111 146 112 112 156 111 111 144 110 110 156 111 111 146 112 112 138 113 113 148 114 114 138 113 113 146 112 112 138 113 113 148 114 114 139 115 115 147 118 118 160 117 117 149 116 116 160 117 117 147 118 118 159 119 119 145 120 120 159 119 119 147 118 118 159 119 119 145 120 120 158 121 121 142 122 122 158 121 121 145 120 120 158 121 121 142 122 122 155 123 123 143 124 124 155 123 123 142 122 122 155 123 123 143 124 124 154 125 125 119 126 126 123 41 41 124 43 43 123 41 41 119 126 126 122 127 127 121 19 19 122 127 127 119 126 126 122 127 127 121 19 19 126 128 128 127 21 21 126 128 128 121 19 19 126 128 128 127 21 21 113 129 129 114 23 23 113 129 129 127 21 21 113 129 129 114 23 23 115 25 25 84 132 132 96 131 131 87 130 130 96 131 131 84 132 132 93 133 133 85 134 134 93 133 133 84 132 132 93 133 133 85 134 134 94 63 63 80 59 59 94 63 63 85 134 134 94 63 63 80 59 59 90 61 61 159 119 119 137 135 135 160 117 117 137 135 135 159 119 119 136 136 136 157 137 137 136 136 136 159 119 119 136 136 136 157 137 137 138 113 113 156 111 111 138 113 113 157 137 137 78 66 66 82 138 138 83 68 68 82 138 138 78 66 66 95 139 139 89 62 62 95 139 139 78 66 66 95 139 139 89 62 62 99 140 140 92 141 141 99 140 140 89 62 62 184 99 99 166 142 142 183 97 97 166 142 142 184 99 99 167 143 143 171 101 101 167 143 143 184 99 99 167 143 143 171 101 101 168 93 93 170 91 91 168 93 93 171 101 101 126 128 128 123 41 41 122 127 127 123 41 41 126 128 128 125 39 39 113 129 129 125 39 39 126 128 128 125 39 39 113 129 129 118 37 37 117 35 35 118 37 37 113 129 129 45 144 144 58 11 11 49 13 13 58 11 11 45 144 144 59 145 145 23 146 146 59 145 145 45 144 144 59 145 145 23 146 146 47 147 147 9 54 54 11 148 148 12 56 56 11 148 148 9 54 54 8 149 149 191 52 52 8 149 149 9 54 54 8 149 149 191 52 52 15 50 50 158 121 121 157 137 137 159 119 119 157 137 137 158 121 121 153 150 150 155 123 123 153 150 150 158 121 121 153 150 150 155 123 123 154 125 125 153 150 150 156 111 111 157 137 137 156 111 111 153 150 150 152 109 109 150 151 151 152 109 109 153 150 150 152 109 109 150 151 151 151 107 107 188 74 74 186 51 51 190 53 53 186 51 51 188 74 74 187 152 152 189 76 76 187 152 152 188 74 74 187 152 152 189 76 76 19 78 78 130 33 33 129 153 153 135 31 31 129 153 153 130 33 33 116 154 154 117 35 35 116 154 154 130 33 33 116 154 154 117 35 35 113 129 129 61 9 9 68 156 156 38 155 155 68 156 156 61 9 9 67 157 157 66 158 158 67 157 157 61 9 9 162 103 103 170 91 91 171 101 101 170 91 91 162 103 103 164 89 89 163 87 87 164 89 89 162 103 103 97 159 159 77 65 65 79 67 67 77 65 65 97 159 159 93 133 133 96 131 131 93 133 133 97 159 159 116 154 154 128 27 27 129 153 153 128 27 27 116 154 154 115 25 25 113 129 129 115 25 25 116 154 154 129 153 153 132 160 160 135 31 31 132 160 160 129 153 153 131 29 29 128 27 27 131 29 29 129 153 153 181 161 161 185 100 100 179 98 98 185 100 100 181 161 161 174 162 162 98 163 163 79 67 67 88 69 69 79 67 67 98 163 163 97 159 159 66 158 158 59 145 145 47 147 147 59 145 145 66 158 158 61 9 9 95 139 139 86 164 164 82 138 138 86 164 164 95 139 139 99 140 140 174 162 162 169 102 102 185 100 100 169 102 102 174 162 162 175 165 165 26 167 168 73 167 167 25 166 166 73 167 167 26 167 168 75 168 169 42 169 170 72 1 1 43 3 3 72 1 1 42 169 170 71 170 171 39 172 174 70 172 173 41 171 172 70 172 173 39 172 174 69 173 175 65 174 176 64 4 4 44 2 2 64 4 4 65 174 176 36 82 82 56 83 83 33 175 177 35 81 81 33 175 177 56 83 83 55 176 178 54 178 181 30 178 180 32 177 179 30 178 180 54 178 181 53 179 182 52 181 184 51 12 12 29 180 183 51 12 12 52 181 184 50 182 185 24 183 186 49 13 13 46 15 15 49 13 13 24 183 186 45 144 144 18 184 187 187 152 152 19 78 78 187 152 152 18 184 187 22 45 45 13 47 47 187 152 152 22 45 45 187 152 152 13 47 47 14 49 49 167 143 143 165 95 95 166 142 142 165 95 95 167 143 143 168 93 93 138 113 113 137 135 135 136 136 136 137 135 135 138 113 113 139 115 115 2 186 189 8 149 149 192 185 188 8 149 149 2 186 189 11 148 148 7 187 190 15 50 50 6 48 48 15 50 50 7 187 190 192 185 188 192 185 188 8 149 149 15 50 50 119 126 126 120 17 17 121 19 19 89 62 62 91 60 60 92 141 141 58 11 11 59 145 145 61 9 9 86 164 164 99 140 140 100 188 191 56 83 83 28 85 85 27 189 192 187 152 152 14 49 49 186 51 51 154 125 125 150 151 151 153 150 150 89 62 62 78 66 66 76 64 64 162 103 103 161 105 105 163 87 87 175 165 165 182 104 104 169 102 102 51 12 12 50 182 185 48 14 14 77 65 65 93 133 133 94 63 63</p>
                </triangles>
            </mesh>
        </geometry>
    </library_geometries>
    <library_visual_scenes>
        <visual_scene id="ID25">
            <node id="ID26" name="n0b2">
                <translate sid="translate">0 0 -0</translate>
                <rotate sid="rotateY">0 1 0 -0</rotate>
                <rotate sid="rotateX">1 0 0 0</rotate>
                <rotate sid="rotateZ">0 0 1 -0</rotate>
                <scale sid="scale">1 1 1</scale>
                <instance_geometry url="#ID27">
                    <bind_material>
                        <technique_common>
                            <instance_material symbol="Material1" target="#ID20">
                                <bind_vertex_input semantic="UVSET0" input_semantic="TEXCOORD" input_set="0"/>
                            </instance_material>
                        </technique_common>
                    </bind_material>
                </instance_geometry>
            </node>
            <node id="ID35" name="n1b1">
                <translate sid="translate">0 0 -0</translate>
                <rotate sid="rotateY">0 1 0 -0</rotate>
                <rotate sid="rotateX">1 0 0 0</rotate>
                <rotate sid="rotateZ">0 0 1 -0</rotate>
                <scale sid="scale">1 1 1</scale>
                <instance_geometry url="#ID36">
                    <bind_material>
                        <technique_common>
                            <instance_material symbol="Material1" target="#ID13">
                                <bind_vertex_input semantic="UVSET0" input_semantic="TEXCOORD" input_set="0"/>
                            </instance_material>
                        </technique_common>
                    </bind_material>
                </instance_geometry>
            </node>
            <node id="ID44" name="n2b0">
                <translate sid="translate">0 0 -0</translate>
                <rotate sid="rotateY">0 1 0 -0</rotate>
                <rotate sid="rotateX">1 0 0 0</rotate>
                <rotate sid="rotateZ">0 0 1 -0</rotate>
                <scale sid="scale">1 1 1</scale>
                <instance_geometry url="#ID45">
                    <bind_material>
                        <technique_common>
                            <instance_material symbol="Material1" target="#ID8">
                                <bind_vertex_input semantic="UVSET0" input_semantic="TEXCOORD" input_set="0"/>
                            </instance_material>
                        </technique_common>
                    </bind_material>
                </instance_geometry>
            </node>
            <node id="ID53" name="n3b3">
                <translate sid="translate">0 0 -0</translate>
                <rotate sid="rotateY">0 1 0 -0</rotate>
                <rotate sid="rotateX">1 0 0 0</rotate>
                <rotate sid="rotateZ">0 0 1 -0</rotate>
                <scale sid="scale">1 1 1</scale>
                <instance_geometry url="#ID54">
                    <bind_material>
                        <technique_common>
                            <instance_material symbol="Material1" target="#ID3">
                                <bind_vertex_input semantic="UVSET0" input_semantic="TEXCOORD" input_set="0"/>
                            </instance_material>
                        </technique_common>
                    </bind_material>
                </instance_geometry>
            </node>
            <node id="ID62" name="n4b4">
                <translate sid="translate">0 0 -0</translate>
                <rotate sid="rotateY">0 1 0 -0</rotate>
                <rotate sid="rotateX">1 0 0 0</rotate>
                <rotate sid="rotateZ">0 0 1 -0</rotate>
                <scale sid="scale">1 1 1</scale>
                <instance_geometry url="#ID63">
                    <bind_material>
                        <technique_common>
                            <instance_material symbol="Material1" target="#ID18">
                                <bind_vertex_input semantic="UVSET0" input_semantic="TEXCOORD" input_set="0"/>
                            </instance_material>
                        </technique_common>
                    </bind_material>
                </instance_geometry>
            </node>
            <node id="ID71" name="n5b5">
                <translate sid="translate">0 0 -0</translate>
                <rotate sid="rotateY">0 1 0 -0</rotate>
                <rotate sid="rotateX">1 0 0 0</rotate>
                <rotate sid="rotateZ">0 0 1 -0</rotate>
                <scale sid="scale">1 1 1</scale>
                <instance_geometry url="#ID72">
                    <bind_material>
                        <technique_common>
                            <instance_material symbol="Material1" target="#ID18">
                                <bind_vertex_input semantic="UVSET0" input_semantic="TEXCOORD" input_set="0"/>
                            </instance_material>
                        </technique_common>
                    </bind_material>
                </instance_geometry>
            </node>
        </visual_scene>
    </library_visual_scenes>
    <scene>
        <instance_visual_scene url="#ID25"/>
    </scene>
</COLLADA>
